{
	"patcher" : 	{
		"fileversion" : 1,
		"appversion" : 		{
			"major" : 6,
			"minor" : 1,
			"revision" : 9,
			"architecture" : "x86"
		}
,
		"rect" : [ 1209.0, 388.0, 1060.0, 682.0 ],
		"bglocked" : 0,
		"openinpresentation" : 0,
		"default_fontsize" : 12.0,
		"default_fontface" : 0,
		"default_fontname" : "Arial",
		"gridonopen" : 1,
		"gridsize" : [ 15.0, 15.0 ],
		"gridsnaponopen" : 1,
		"statusbarvisible" : 2,
		"toolbarvisible" : 1,
		"boxanimatetime" : 200,
		"imprint" : 0,
		"enablehscroll" : 1,
		"enablevscroll" : 1,
		"devicewidth" : 0.0,
		"description" : "",
		"digest" : "",
		"tags" : "",
		"boxes" : [ 			{
				"box" : 				{
					"fontname" : "Arial",
					"fontsize" : 12.0,
					"id" : "obj-3",
					"maxclass" : "newobj",
					"numinlets" : 1,
					"numoutlets" : 3,
					"outlettype" : [ "", "", "OSCTimeTag" ],
					"patching_rect" : [ 1004.0, 294.0, 113.0, 20.0 ],
					"text" : "OpenSoundControl"
				}

			}
, 			{
				"box" : 				{
					"comment" : "",
					"id" : "obj-2",
					"maxclass" : "outlet",
					"numinlets" : 1,
					"numoutlets" : 0,
					"patching_rect" : [ 465.0, 515.0, 30.0, 30.0 ]
				}

			}
, 			{
				"box" : 				{
					"comment" : "",
					"id" : "obj-1",
					"maxclass" : "inlet",
					"numinlets" : 0,
					"numoutlets" : 1,
					"outlettype" : [ "signal" ],
					"patching_rect" : [ 240.333374, 21.0, 30.0, 30.0 ]
				}

			}
, 			{
				"box" : 				{
					"fontname" : "Arial",
					"fontsize" : 12.0,
					"id" : "obj-74",
					"maxclass" : "message",
					"numinlets" : 2,
					"numoutlets" : 1,
					"outlettype" : [ "" ],
					"patching_rect" : [ 570.333374, 320.333313, 56.0, 18.0 ],
					"text" : "/attack 0"
				}

			}
, 			{
				"box" : 				{
					"fontname" : "Arial",
					"fontsize" : 12.0,
					"id" : "obj-76",
					"maxclass" : "newobj",
					"numinlets" : 2,
					"numoutlets" : 1,
					"outlettype" : [ "bang" ],
					"patching_rect" : [ 561.833374, 284.333313, 49.0, 20.0 ],
					"text" : "delay 3"
				}

			}
, 			{
				"box" : 				{
					"fontname" : "Arial",
					"fontsize" : 12.0,
					"id" : "obj-77",
					"maxclass" : "message",
					"numinlets" : 2,
					"numoutlets" : 1,
					"outlettype" : [ "" ],
					"patching_rect" : [ 505.333374, 314.333313, 56.0, 18.0 ],
					"text" : "/attack 1"
				}

			}
, 			{
				"box" : 				{
					"fontname" : "Arial",
					"fontsize" : 12.0,
					"id" : "obj-78",
					"maxclass" : "message",
					"numinlets" : 2,
					"numoutlets" : 1,
					"outlettype" : [ "" ],
					"patching_rect" : [ 651.333374, 309.833313, 73.0, 18.0 ],
					"text" : "/pitch $1 $2"
				}

			}
, 			{
				"box" : 				{
					"fontname" : "Arial",
					"fontsize" : 12.0,
					"id" : "obj-79",
					"maxclass" : "newobj",
					"numinlets" : 2,
					"numoutlets" : 1,
					"outlettype" : [ "" ],
					"patching_rect" : [ 818.783325, 394.5, 29.5, 20.0 ],
					"text" : "join"
				}

			}
, 			{
				"box" : 				{
					"fontname" : "Arial",
					"fontsize" : 12.0,
					"id" : "obj-80",
					"maxclass" : "message",
					"numinlets" : 2,
					"numoutlets" : 1,
					"outlettype" : [ "" ],
					"patching_rect" : [ 899.833374, 301.333313, 41.0, 18.0 ],
					"text" : "$2 $3"
				}

			}
, 			{
				"box" : 				{
					"fontname" : "Arial",
					"fontsize" : 12.0,
					"id" : "obj-81",
					"maxclass" : "newobj",
					"numinlets" : 1,
					"numoutlets" : 3,
					"outlettype" : [ "bang", "", "" ],
					"patching_rect" : [ 813.533325, 248.333313, 40.0, 20.0 ],
					"text" : "t b l l"
				}

			}
, 			{
				"box" : 				{
					"fontname" : "Arial",
					"fontsize" : 12.0,
					"id" : "obj-82",
					"maxclass" : "message",
					"numinlets" : 2,
					"numoutlets" : 1,
					"outlettype" : [ "" ],
					"patching_rect" : [ 838.333374, 301.333313, 32.5, 18.0 ],
					"text" : "$1"
				}

			}
, 			{
				"box" : 				{
					"fontname" : "Arial",
					"fontsize" : 12.0,
					"id" : "obj-83",
					"maxclass" : "newobj",
					"numinlets" : 3,
					"numoutlets" : 2,
					"outlettype" : [ "", "" ],
					"patching_rect" : [ 746.833374, 339.0, 124.0, 20.0 ],
					"text" : "combine /sines / num"
				}

			}
, 			{
				"box" : 				{
					"id" : "obj-87",
					"maxclass" : "button",
					"numinlets" : 1,
					"numoutlets" : 1,
					"outlettype" : [ "bang" ],
					"patching_rect" : [ 562.333374, 225.333313, 15.0, 15.0 ]
				}

			}
, 			{
				"box" : 				{
					"fontname" : "Arial",
					"fontsize" : 9.0,
					"id" : "obj-96",
					"linecount" : 2,
					"maxclass" : "newobj",
					"numinlets" : 1,
					"numoutlets" : 9,
					"outlettype" : [ "list", "float", "float", "float", "list", "bang", "list", "list", "FullPacket" ],
					"patching_rect" : [ 240.333374, 86.333313, 567.0, 27.0 ],
					"text" : "analyzer~ @buffersize 2048 @hopsize 512 @fftsize 4096 @windowtype blackman70 @initialdelay 0 @numpitches 1 @numpeakstofind 20 @numpeakstooutput 20 @barkformat list"
				}

			}
, 			{
				"box" : 				{
					"fontname" : "Geneva",
					"fontsize" : 9.0,
					"frgb" : 0.0,
					"id" : "obj-99",
					"linecount" : 2,
					"maxclass" : "comment",
					"numinlets" : 1,
					"numoutlets" : 0,
					"patching_rect" : [ 553.333374, 243.333313, 33.0, 27.0 ],
					"text" : "Attack"
				}

			}
 ],
		"lines" : [ 			{
				"patchline" : 				{
					"destination" : [ "obj-96", 0 ],
					"disabled" : 0,
					"hidden" : 0,
					"source" : [ "obj-1", 0 ]
				}

			}
, 			{
				"patchline" : 				{
					"destination" : [ "obj-2", 0 ],
					"disabled" : 0,
					"hidden" : 0,
					"source" : [ "obj-3", 1 ]
				}

			}
, 			{
				"patchline" : 				{
					"destination" : [ "obj-2", 0 ],
					"disabled" : 0,
					"hidden" : 0,
					"source" : [ "obj-74", 0 ]
				}

			}
, 			{
				"patchline" : 				{
					"destination" : [ "obj-74", 0 ],
					"disabled" : 0,
					"hidden" : 0,
					"source" : [ "obj-76", 0 ]
				}

			}
, 			{
				"patchline" : 				{
					"destination" : [ "obj-2", 0 ],
					"disabled" : 0,
					"hidden" : 0,
					"source" : [ "obj-77", 0 ]
				}

			}
, 			{
				"patchline" : 				{
					"destination" : [ "obj-2", 0 ],
					"disabled" : 0,
					"hidden" : 0,
					"source" : [ "obj-78", 0 ]
				}

			}
, 			{
				"patchline" : 				{
					"destination" : [ "obj-2", 0 ],
					"disabled" : 0,
					"hidden" : 0,
					"source" : [ "obj-79", 0 ]
				}

			}
, 			{
				"patchline" : 				{
					"destination" : [ "obj-79", 1 ],
					"disabled" : 0,
					"hidden" : 0,
					"source" : [ "obj-80", 0 ]
				}

			}
, 			{
				"patchline" : 				{
					"destination" : [ "obj-80", 0 ],
					"disabled" : 0,
					"hidden" : 0,
					"source" : [ "obj-81", 2 ]
				}

			}
, 			{
				"patchline" : 				{
					"destination" : [ "obj-82", 0 ],
					"disabled" : 0,
					"hidden" : 0,
					"source" : [ "obj-81", 1 ]
				}

			}
, 			{
				"patchline" : 				{
					"destination" : [ "obj-83", 0 ],
					"disabled" : 0,
					"hidden" : 0,
					"source" : [ "obj-81", 0 ]
				}

			}
, 			{
				"patchline" : 				{
					"destination" : [ "obj-83", 2 ],
					"disabled" : 0,
					"hidden" : 0,
					"source" : [ "obj-82", 0 ]
				}

			}
, 			{
				"patchline" : 				{
					"destination" : [ "obj-79", 0 ],
					"disabled" : 0,
					"hidden" : 0,
					"source" : [ "obj-83", 0 ]
				}

			}
, 			{
				"patchline" : 				{
					"destination" : [ "obj-76", 0 ],
					"disabled" : 0,
					"hidden" : 0,
					"source" : [ "obj-87", 0 ]
				}

			}
, 			{
				"patchline" : 				{
					"destination" : [ "obj-77", 0 ],
					"disabled" : 0,
					"hidden" : 0,
					"source" : [ "obj-87", 0 ]
				}

			}
, 			{
				"patchline" : 				{
					"destination" : [ "obj-78", 0 ],
					"disabled" : 0,
					"hidden" : 0,
					"source" : [ "obj-96", 6 ]
				}

			}
, 			{
				"patchline" : 				{
					"destination" : [ "obj-81", 0 ],
					"disabled" : 0,
					"hidden" : 0,
					"source" : [ "obj-96", 7 ]
				}

			}
, 			{
				"patchline" : 				{
					"destination" : [ "obj-87", 0 ],
					"disabled" : 0,
					"hidden" : 0,
					"source" : [ "obj-96", 5 ]
				}

			}
 ]
	}

}
