{
	"patcher" : 	{
		"fileversion" : 1,
		"appversion" : 		{
			"major" : 7,
			"minor" : 0,
			"revision" : 4,
			"architecture" : "x86",
			"modernui" : 1
		}
,
		"rect" : [ 1084.0, 77.0, 1852.0, 1059.0 ],
		"bglocked" : 0,
		"openinpresentation" : 0,
		"default_fontsize" : 12.0,
		"default_fontface" : 0,
		"default_fontname" : "Arial",
		"gridonopen" : 1,
		"gridsize" : [ 15.0, 15.0 ],
		"gridsnaponopen" : 1,
		"objectsnaponopen" : 1,
		"statusbarvisible" : 2,
		"toolbarvisible" : 1,
		"lefttoolbarpinned" : 0,
		"toptoolbarpinned" : 0,
		"righttoolbarpinned" : 0,
		"bottomtoolbarpinned" : 0,
		"toolbars_unpinned_last_save" : 0,
		"tallnewobj" : 0,
		"boxanimatetime" : 200,
		"enablehscroll" : 1,
		"enablevscroll" : 1,
		"devicewidth" : 0.0,
		"description" : "",
		"digest" : "",
		"tags" : "",
		"style" : "",
		"subpatcher_template" : "",
		"boxes" : [ 			{
				"box" : 				{
					"id" : "obj-72",
					"maxclass" : "newobj",
					"numinlets" : 0,
					"numoutlets" : 1,
					"outlettype" : [ "" ],
					"patcher" : 					{
						"fileversion" : 1,
						"appversion" : 						{
							"major" : 7,
							"minor" : 0,
							"revision" : 4,
							"architecture" : "x86",
							"modernui" : 1
						}
,
						"rect" : [ 1084.0, 77.0, 1852.0, 1059.0 ],
						"bglocked" : 0,
						"openinpresentation" : 0,
						"default_fontsize" : 12.0,
						"default_fontface" : 0,
						"default_fontname" : "Arial",
						"gridonopen" : 1,
						"gridsize" : [ 15.0, 15.0 ],
						"gridsnaponopen" : 1,
						"objectsnaponopen" : 1,
						"statusbarvisible" : 2,
						"toolbarvisible" : 1,
						"lefttoolbarpinned" : 0,
						"toptoolbarpinned" : 0,
						"righttoolbarpinned" : 0,
						"bottomtoolbarpinned" : 0,
						"toolbars_unpinned_last_save" : 0,
						"tallnewobj" : 0,
						"boxanimatetime" : 200,
						"enablehscroll" : 1,
						"enablevscroll" : 1,
						"devicewidth" : 0.0,
						"description" : "",
						"digest" : "",
						"tags" : "",
						"style" : "",
						"subpatcher_template" : "",
						"visible" : 1,
						"boxes" : [ 							{
								"box" : 								{
									"comment" : "",
									"id" : "obj-2",
									"maxclass" : "outlet",
									"numinlets" : 1,
									"numoutlets" : 0,
									"patching_rect" : [ 418.949951, 966.0, 30.0, 30.0 ],
									"style" : ""
								}

							}
, 							{
								"box" : 								{
									"fontname" : "Arial",
									"fontsize" : 12.0,
									"id" : "obj-78",
									"maxclass" : "newobj",
									"numinlets" : 2,
									"numoutlets" : 1,
									"outlettype" : [ "" ],
									"patching_rect" : [ 418.949951, 905.5, 29.5, 22.0 ],
									"style" : "",
									"text" : "join"
								}

							}
, 							{
								"box" : 								{
									"fontname" : "Arial",
									"fontsize" : 12.0,
									"id" : "obj-79",
									"maxclass" : "message",
									"numinlets" : 2,
									"numoutlets" : 1,
									"outlettype" : [ "" ],
									"patching_rect" : [ 500.0, 812.333313, 32.5, 22.0 ],
									"style" : "",
									"text" : "$2"
								}

							}
, 							{
								"box" : 								{
									"fontname" : "Arial",
									"fontsize" : 12.0,
									"id" : "obj-80",
									"maxclass" : "newobj",
									"numinlets" : 1,
									"numoutlets" : 3,
									"outlettype" : [ "bang", "", "" ],
									"patching_rect" : [ 413.699951, 759.333313, 40.0, 22.0 ],
									"style" : "",
									"text" : "t b l l"
								}

							}
, 							{
								"box" : 								{
									"fontname" : "Arial",
									"fontsize" : 12.0,
									"id" : "obj-81",
									"maxclass" : "message",
									"numinlets" : 2,
									"numoutlets" : 1,
									"outlettype" : [ "" ],
									"patching_rect" : [ 438.5, 812.333313, 32.5, 22.0 ],
									"style" : "",
									"text" : "$1"
								}

							}
, 							{
								"box" : 								{
									"fontname" : "Arial",
									"fontsize" : 12.0,
									"id" : "obj-82",
									"maxclass" : "newobj",
									"numinlets" : 3,
									"numoutlets" : 2,
									"outlettype" : [ "", "" ],
									"patching_rect" : [ 347.0, 850.0, 108.0, 22.0 ],
									"style" : "",
									"text" : "combine /cc / num"
								}

							}
, 							{
								"box" : 								{
									"fontname" : "Arial",
									"fontsize" : 12.0,
									"id" : "obj-158",
									"maxclass" : "newobj",
									"numinlets" : 7,
									"numoutlets" : 7,
									"outlettype" : [ "", "", "", "", "", "", "" ],
									"patching_rect" : [ 265.666626, 478.5, 131.0, 22.0 ],
									"style" : "",
									"text" : "route 22 23 24 25 26 1"
								}

							}
, 							{
								"box" : 								{
									"id" : "obj-153",
									"maxclass" : "toggle",
									"numinlets" : 1,
									"numoutlets" : 1,
									"outlettype" : [ "int" ],
									"parameter_enable" : 0,
									"patching_rect" : [ 395.499512, 544.5, 20.0, 20.0 ],
									"presentation" : 1,
									"presentation_rect" : [ 165.666504, 100.833618, 20.0, 20.0 ],
									"style" : ""
								}

							}
, 							{
								"box" : 								{
									"id" : "obj-154",
									"maxclass" : "toggle",
									"numinlets" : 1,
									"numoutlets" : 1,
									"outlettype" : [ "int" ],
									"parameter_enable" : 0,
									"patching_rect" : [ 364.499512, 544.5, 20.0, 20.0 ],
									"presentation" : 1,
									"presentation_rect" : [ 134.666504, 100.833618, 20.0, 20.0 ],
									"style" : ""
								}

							}
, 							{
								"box" : 								{
									"id" : "obj-155",
									"maxclass" : "toggle",
									"numinlets" : 1,
									"numoutlets" : 1,
									"outlettype" : [ "int" ],
									"parameter_enable" : 0,
									"patching_rect" : [ 333.499512, 544.5, 20.0, 20.0 ],
									"presentation" : 1,
									"presentation_rect" : [ 103.666504, 100.833618, 20.0, 20.0 ],
									"style" : ""
								}

							}
, 							{
								"box" : 								{
									"id" : "obj-156",
									"maxclass" : "toggle",
									"numinlets" : 1,
									"numoutlets" : 1,
									"outlettype" : [ "int" ],
									"parameter_enable" : 0,
									"patching_rect" : [ 302.499512, 544.5, 20.0, 20.0 ],
									"presentation" : 1,
									"presentation_rect" : [ 72.666504, 100.833618, 20.0, 20.0 ],
									"style" : ""
								}

							}
, 							{
								"box" : 								{
									"id" : "obj-157",
									"maxclass" : "toggle",
									"numinlets" : 1,
									"numoutlets" : 1,
									"outlettype" : [ "int" ],
									"parameter_enable" : 0,
									"patching_rect" : [ 272.166626, 544.5, 20.0, 20.0 ],
									"presentation" : 1,
									"presentation_rect" : [ 42.333618, 100.833618, 20.0, 20.0 ],
									"style" : ""
								}

							}
, 							{
								"box" : 								{
									"id" : "obj-152",
									"maxclass" : "slider",
									"numinlets" : 1,
									"numoutlets" : 1,
									"outlettype" : [ "" ],
									"parameter_enable" : 0,
									"patching_rect" : [ 357.0, 584.0, 21.166656, 72.0 ],
									"presentation" : 1,
									"presentation_rect" : [ 109.999847, 130.833618, 21.166656, 72.0 ],
									"style" : ""
								}

							}
, 							{
								"box" : 								{
									"id" : "obj-151",
									"maxclass" : "slider",
									"numinlets" : 1,
									"numoutlets" : 1,
									"outlettype" : [ "" ],
									"parameter_enable" : 0,
									"patching_rect" : [ 304.0, 584.0, 21.166656, 72.0 ],
									"presentation" : 1,
									"presentation_rect" : [ 71.499847, 130.833618, 21.166656, 72.0 ],
									"style" : ""
								}

							}
, 							{
								"box" : 								{
									"id" : "obj-139",
									"maxclass" : "dial",
									"numinlets" : 1,
									"numoutlets" : 1,
									"outlettype" : [ "float" ],
									"parameter_enable" : 0,
									"patching_rect" : [ 916.666504, 515.5, 23.833618, 23.833618 ],
									"presentation" : 1,
									"presentation_rect" : [ 416.666504, 105.0, 23.833618, 23.833618 ],
									"style" : ""
								}

							}
, 							{
								"box" : 								{
									"id" : "obj-140",
									"maxclass" : "dial",
									"numinlets" : 1,
									"numoutlets" : 1,
									"outlettype" : [ "float" ],
									"parameter_enable" : 0,
									"patching_rect" : [ 885.666504, 515.5, 23.833618, 23.833618 ],
									"presentation" : 1,
									"presentation_rect" : [ 385.666504, 105.0, 23.833618, 23.833618 ],
									"style" : ""
								}

							}
, 							{
								"box" : 								{
									"id" : "obj-141",
									"maxclass" : "dial",
									"numinlets" : 1,
									"numoutlets" : 1,
									"outlettype" : [ "float" ],
									"parameter_enable" : 0,
									"patching_rect" : [ 854.666504, 515.5, 23.833618, 23.833618 ],
									"presentation" : 1,
									"presentation_rect" : [ 354.666504, 105.0, 23.833618, 23.833618 ],
									"style" : ""
								}

							}
, 							{
								"box" : 								{
									"id" : "obj-142",
									"maxclass" : "dial",
									"numinlets" : 1,
									"numoutlets" : 1,
									"outlettype" : [ "float" ],
									"parameter_enable" : 0,
									"patching_rect" : [ 823.666504, 515.5, 23.833618, 23.833618 ],
									"presentation" : 1,
									"presentation_rect" : [ 323.666504, 105.0, 23.833618, 23.833618 ],
									"style" : ""
								}

							}
, 							{
								"box" : 								{
									"id" : "obj-143",
									"maxclass" : "dial",
									"numinlets" : 1,
									"numoutlets" : 1,
									"outlettype" : [ "float" ],
									"parameter_enable" : 0,
									"patching_rect" : [ 792.666504, 515.5, 23.833618, 23.833618 ],
									"presentation" : 1,
									"presentation_rect" : [ 292.666504, 105.0, 23.833618, 23.833618 ],
									"style" : ""
								}

							}
, 							{
								"box" : 								{
									"id" : "obj-144",
									"maxclass" : "dial",
									"numinlets" : 1,
									"numoutlets" : 1,
									"outlettype" : [ "float" ],
									"parameter_enable" : 0,
									"patching_rect" : [ 761.666504, 515.5, 23.833618, 23.833618 ],
									"presentation" : 1,
									"presentation_rect" : [ 261.666504, 105.0, 23.833618, 23.833618 ],
									"style" : ""
								}

							}
, 							{
								"box" : 								{
									"id" : "obj-145",
									"maxclass" : "dial",
									"numinlets" : 1,
									"numoutlets" : 1,
									"outlettype" : [ "float" ],
									"parameter_enable" : 0,
									"patching_rect" : [ 730.666504, 515.5, 23.833618, 23.833618 ],
									"presentation" : 1,
									"presentation_rect" : [ 230.666504, 105.0, 23.833618, 23.833618 ],
									"style" : ""
								}

							}
, 							{
								"box" : 								{
									"id" : "obj-146",
									"maxclass" : "dial",
									"numinlets" : 1,
									"numoutlets" : 1,
									"outlettype" : [ "float" ],
									"parameter_enable" : 0,
									"patching_rect" : [ 699.666504, 515.5, 23.833618, 23.833618 ],
									"presentation" : 1,
									"presentation_rect" : [ 199.666504, 105.0, 23.833618, 23.833618 ],
									"style" : ""
								}

							}
, 							{
								"box" : 								{
									"id" : "obj-4",
									"maxclass" : "dial",
									"numinlets" : 1,
									"numoutlets" : 1,
									"outlettype" : [ "float" ],
									"parameter_enable" : 0,
									"patching_rect" : [ 916.666504, 478.5, 23.833618, 23.833618 ],
									"presentation" : 1,
									"presentation_rect" : [ 416.666504, 68.0, 23.833618, 23.833618 ],
									"style" : ""
								}

							}
, 							{
								"box" : 								{
									"id" : "obj-131",
									"maxclass" : "dial",
									"numinlets" : 1,
									"numoutlets" : 1,
									"outlettype" : [ "float" ],
									"parameter_enable" : 0,
									"patching_rect" : [ 885.666504, 478.5, 23.833618, 23.833618 ],
									"presentation" : 1,
									"presentation_rect" : [ 385.666504, 68.0, 23.833618, 23.833618 ],
									"style" : ""
								}

							}
, 							{
								"box" : 								{
									"id" : "obj-6",
									"maxclass" : "dial",
									"numinlets" : 1,
									"numoutlets" : 1,
									"outlettype" : [ "float" ],
									"parameter_enable" : 0,
									"patching_rect" : [ 854.666504, 478.5, 23.833618, 23.833618 ],
									"presentation" : 1,
									"presentation_rect" : [ 354.666504, 68.0, 23.833618, 23.833618 ],
									"style" : ""
								}

							}
, 							{
								"box" : 								{
									"id" : "obj-133",
									"maxclass" : "dial",
									"numinlets" : 1,
									"numoutlets" : 1,
									"outlettype" : [ "float" ],
									"parameter_enable" : 0,
									"patching_rect" : [ 823.666504, 478.5, 23.833618, 23.833618 ],
									"presentation" : 1,
									"presentation_rect" : [ 323.666504, 68.0, 23.833618, 23.833618 ],
									"style" : ""
								}

							}
, 							{
								"box" : 								{
									"id" : "obj-134",
									"maxclass" : "dial",
									"numinlets" : 1,
									"numoutlets" : 1,
									"outlettype" : [ "float" ],
									"parameter_enable" : 0,
									"patching_rect" : [ 792.666504, 478.5, 23.833618, 23.833618 ],
									"presentation" : 1,
									"presentation_rect" : [ 292.666504, 68.0, 23.833618, 23.833618 ],
									"style" : ""
								}

							}
, 							{
								"box" : 								{
									"id" : "obj-135",
									"maxclass" : "dial",
									"numinlets" : 1,
									"numoutlets" : 1,
									"outlettype" : [ "float" ],
									"parameter_enable" : 0,
									"patching_rect" : [ 761.666504, 478.5, 23.833618, 23.833618 ],
									"presentation" : 1,
									"presentation_rect" : [ 261.666504, 68.0, 23.833618, 23.833618 ],
									"style" : ""
								}

							}
, 							{
								"box" : 								{
									"id" : "obj-136",
									"maxclass" : "dial",
									"numinlets" : 1,
									"numoutlets" : 1,
									"outlettype" : [ "float" ],
									"parameter_enable" : 0,
									"patching_rect" : [ 730.666504, 478.5, 23.833618, 23.833618 ],
									"presentation" : 1,
									"presentation_rect" : [ 230.666504, 68.0, 23.833618, 23.833618 ],
									"style" : ""
								}

							}
, 							{
								"box" : 								{
									"id" : "obj-137",
									"maxclass" : "dial",
									"numinlets" : 1,
									"numoutlets" : 1,
									"outlettype" : [ "float" ],
									"parameter_enable" : 0,
									"patching_rect" : [ 699.666504, 478.5, 23.833618, 23.833618 ],
									"presentation" : 1,
									"presentation_rect" : [ 199.666504, 68.0, 23.833618, 23.833618 ],
									"style" : ""
								}

							}
, 							{
								"box" : 								{
									"id" : "obj-13",
									"maxclass" : "dial",
									"numinlets" : 1,
									"numoutlets" : 1,
									"outlettype" : [ "float" ],
									"parameter_enable" : 0,
									"patching_rect" : [ 916.666504, 439.583191, 23.833618, 23.833618 ],
									"presentation" : 1,
									"presentation_rect" : [ 416.666504, 29.083191, 23.833618, 23.833618 ],
									"style" : ""
								}

							}
, 							{
								"box" : 								{
									"id" : "obj-126",
									"maxclass" : "dial",
									"numinlets" : 1,
									"numoutlets" : 1,
									"outlettype" : [ "float" ],
									"parameter_enable" : 0,
									"patching_rect" : [ 885.666504, 439.583191, 23.833618, 23.833618 ],
									"presentation" : 1,
									"presentation_rect" : [ 385.666504, 29.083191, 23.833618, 23.833618 ],
									"style" : ""
								}

							}
, 							{
								"box" : 								{
									"id" : "obj-17",
									"maxclass" : "dial",
									"numinlets" : 1,
									"numoutlets" : 1,
									"outlettype" : [ "float" ],
									"parameter_enable" : 0,
									"patching_rect" : [ 854.666504, 439.583191, 23.833618, 23.833618 ],
									"presentation" : 1,
									"presentation_rect" : [ 354.666504, 29.083191, 23.833618, 23.833618 ],
									"style" : ""
								}

							}
, 							{
								"box" : 								{
									"id" : "obj-124",
									"maxclass" : "dial",
									"numinlets" : 1,
									"numoutlets" : 1,
									"outlettype" : [ "float" ],
									"parameter_enable" : 0,
									"patching_rect" : [ 823.666504, 439.583191, 23.833618, 23.833618 ],
									"presentation" : 1,
									"presentation_rect" : [ 323.666504, 29.083191, 23.833618, 23.833618 ],
									"style" : ""
								}

							}
, 							{
								"box" : 								{
									"id" : "obj-19",
									"maxclass" : "dial",
									"numinlets" : 1,
									"numoutlets" : 1,
									"outlettype" : [ "float" ],
									"parameter_enable" : 0,
									"patching_rect" : [ 792.666504, 439.583191, 23.833618, 23.833618 ],
									"presentation" : 1,
									"presentation_rect" : [ 292.666504, 29.083191, 23.833618, 23.833618 ],
									"style" : ""
								}

							}
, 							{
								"box" : 								{
									"id" : "obj-122",
									"maxclass" : "dial",
									"numinlets" : 1,
									"numoutlets" : 1,
									"outlettype" : [ "float" ],
									"parameter_enable" : 0,
									"patching_rect" : [ 761.666504, 439.583191, 23.833618, 23.833618 ],
									"presentation" : 1,
									"presentation_rect" : [ 261.666504, 29.083191, 23.833618, 23.833618 ],
									"style" : ""
								}

							}
, 							{
								"box" : 								{
									"id" : "obj-121",
									"maxclass" : "dial",
									"numinlets" : 1,
									"numoutlets" : 1,
									"outlettype" : [ "float" ],
									"parameter_enable" : 0,
									"patching_rect" : [ 730.666504, 439.583191, 23.833618, 23.833618 ],
									"presentation" : 1,
									"presentation_rect" : [ 230.666504, 29.083191, 23.833618, 23.833618 ],
									"style" : ""
								}

							}
, 							{
								"box" : 								{
									"id" : "obj-100",
									"maxclass" : "dial",
									"numinlets" : 1,
									"numoutlets" : 1,
									"outlettype" : [ "float" ],
									"parameter_enable" : 0,
									"patching_rect" : [ 699.666504, 439.583191, 23.833618, 23.833618 ],
									"presentation" : 1,
									"presentation_rect" : [ 199.666504, 29.083191, 23.833618, 23.833618 ],
									"style" : ""
								}

							}
, 							{
								"box" : 								{
									"id" : "obj-99",
									"maxclass" : "toggle",
									"numinlets" : 1,
									"numoutlets" : 1,
									"outlettype" : [ "int" ],
									"parameter_enable" : 0,
									"patching_rect" : [ 1224.333252, 506.0, 20.0, 20.0 ],
									"presentation" : 1,
									"presentation_rect" : [ 626.333252, 130.833618, 13.0, 13.0 ],
									"style" : ""
								}

							}
, 							{
								"box" : 								{
									"id" : "obj-98",
									"maxclass" : "toggle",
									"numinlets" : 1,
									"numoutlets" : 1,
									"outlettype" : [ "int" ],
									"parameter_enable" : 0,
									"patching_rect" : [ 1191.333252, 506.0, 20.0, 20.0 ],
									"presentation" : 1,
									"presentation_rect" : [ 603.333252, 130.833618, 13.0, 13.0 ],
									"style" : ""
								}

							}
, 							{
								"box" : 								{
									"id" : "obj-97",
									"maxclass" : "toggle",
									"numinlets" : 1,
									"numoutlets" : 1,
									"outlettype" : [ "int" ],
									"parameter_enable" : 0,
									"patching_rect" : [ 1158.333252, 506.0, 20.0, 20.0 ],
									"presentation" : 1,
									"presentation_rect" : [ 580.333252, 130.833618, 13.0, 13.0 ],
									"style" : ""
								}

							}
, 							{
								"box" : 								{
									"id" : "obj-96",
									"maxclass" : "toggle",
									"numinlets" : 1,
									"numoutlets" : 1,
									"outlettype" : [ "int" ],
									"parameter_enable" : 0,
									"patching_rect" : [ 1125.333252, 506.0, 20.0, 20.0 ],
									"presentation" : 1,
									"presentation_rect" : [ 559.333252, 130.833618, 13.0, 13.0 ],
									"style" : ""
								}

							}
, 							{
								"box" : 								{
									"id" : "obj-95",
									"maxclass" : "toggle",
									"numinlets" : 1,
									"numoutlets" : 1,
									"outlettype" : [ "int" ],
									"parameter_enable" : 0,
									"patching_rect" : [ 1092.333252, 506.0, 20.0, 20.0 ],
									"presentation" : 1,
									"presentation_rect" : [ 537.333313, 130.833618, 13.0, 13.0 ],
									"style" : ""
								}

							}
, 							{
								"box" : 								{
									"id" : "obj-94",
									"maxclass" : "toggle",
									"numinlets" : 1,
									"numoutlets" : 1,
									"outlettype" : [ "int" ],
									"parameter_enable" : 0,
									"patching_rect" : [ 1059.333252, 506.0, 20.0, 20.0 ],
									"presentation" : 1,
									"presentation_rect" : [ 515.333313, 130.833618, 13.0, 13.0 ],
									"style" : ""
								}

							}
, 							{
								"box" : 								{
									"id" : "obj-93",
									"maxclass" : "toggle",
									"numinlets" : 1,
									"numoutlets" : 1,
									"outlettype" : [ "int" ],
									"parameter_enable" : 0,
									"patching_rect" : [ 1026.333252, 506.0, 20.0, 20.0 ],
									"presentation" : 1,
									"presentation_rect" : [ 494.333313, 130.833618, 13.0, 13.0 ],
									"style" : ""
								}

							}
, 							{
								"box" : 								{
									"id" : "obj-92",
									"maxclass" : "toggle",
									"numinlets" : 1,
									"numoutlets" : 1,
									"outlettype" : [ "int" ],
									"parameter_enable" : 0,
									"patching_rect" : [ 993.333252, 506.0, 20.0, 20.0 ],
									"presentation" : 1,
									"presentation_rect" : [ 474.333313, 130.833618, 13.0, 13.0 ],
									"style" : ""
								}

							}
, 							{
								"box" : 								{
									"id" : "obj-91",
									"maxclass" : "toggle",
									"numinlets" : 1,
									"numoutlets" : 1,
									"outlettype" : [ "int" ],
									"parameter_enable" : 0,
									"patching_rect" : [ 961.333252, 506.0, 20.0, 20.0 ],
									"presentation" : 1,
									"presentation_rect" : [ 454.333313, 130.833618, 13.0, 13.0 ],
									"style" : ""
								}

							}
, 							{
								"box" : 								{
									"id" : "obj-90",
									"maxclass" : "toggle",
									"numinlets" : 1,
									"numoutlets" : 1,
									"outlettype" : [ "int" ],
									"parameter_enable" : 0,
									"patching_rect" : [ 918.666504, 547.5, 20.0, 20.0 ],
									"presentation" : 1,
									"presentation_rect" : [ 418.666504, 137.0, 20.0, 20.0 ],
									"style" : ""
								}

							}
, 							{
								"box" : 								{
									"id" : "obj-89",
									"maxclass" : "toggle",
									"numinlets" : 1,
									"numoutlets" : 1,
									"outlettype" : [ "int" ],
									"parameter_enable" : 0,
									"patching_rect" : [ 887.666504, 547.5, 20.0, 20.0 ],
									"presentation" : 1,
									"presentation_rect" : [ 387.666504, 137.0, 20.0, 20.0 ],
									"style" : ""
								}

							}
, 							{
								"box" : 								{
									"id" : "obj-88",
									"maxclass" : "toggle",
									"numinlets" : 1,
									"numoutlets" : 1,
									"outlettype" : [ "int" ],
									"parameter_enable" : 0,
									"patching_rect" : [ 856.666504, 547.5, 20.0, 20.0 ],
									"presentation" : 1,
									"presentation_rect" : [ 356.666504, 137.0, 20.0, 20.0 ],
									"style" : ""
								}

							}
, 							{
								"box" : 								{
									"id" : "obj-87",
									"maxclass" : "toggle",
									"numinlets" : 1,
									"numoutlets" : 1,
									"outlettype" : [ "int" ],
									"parameter_enable" : 0,
									"patching_rect" : [ 825.666504, 547.5, 20.0, 20.0 ],
									"presentation" : 1,
									"presentation_rect" : [ 325.666504, 137.0, 20.0, 20.0 ],
									"style" : ""
								}

							}
, 							{
								"box" : 								{
									"id" : "obj-20",
									"maxclass" : "toggle",
									"numinlets" : 1,
									"numoutlets" : 1,
									"outlettype" : [ "int" ],
									"parameter_enable" : 0,
									"patching_rect" : [ 794.666504, 547.5, 20.0, 20.0 ],
									"presentation" : 1,
									"presentation_rect" : [ 294.666504, 137.0, 20.0, 20.0 ],
									"style" : ""
								}

							}
, 							{
								"box" : 								{
									"id" : "obj-21",
									"maxclass" : "toggle",
									"numinlets" : 1,
									"numoutlets" : 1,
									"outlettype" : [ "int" ],
									"parameter_enable" : 0,
									"patching_rect" : [ 763.666504, 547.5, 20.0, 20.0 ],
									"presentation" : 1,
									"presentation_rect" : [ 263.666504, 137.0, 20.0, 20.0 ],
									"style" : ""
								}

							}
, 							{
								"box" : 								{
									"id" : "obj-23",
									"maxclass" : "toggle",
									"numinlets" : 1,
									"numoutlets" : 1,
									"outlettype" : [ "int" ],
									"parameter_enable" : 0,
									"patching_rect" : [ 732.666504, 547.5, 20.0, 20.0 ],
									"presentation" : 1,
									"presentation_rect" : [ 232.666504, 137.0, 20.0, 20.0 ],
									"style" : ""
								}

							}
, 							{
								"box" : 								{
									"id" : "obj-83",
									"maxclass" : "toggle",
									"numinlets" : 1,
									"numoutlets" : 1,
									"outlettype" : [ "int" ],
									"parameter_enable" : 0,
									"patching_rect" : [ 702.333618, 547.5, 20.0, 20.0 ],
									"presentation" : 1,
									"presentation_rect" : [ 202.333618, 137.0, 20.0, 20.0 ],
									"style" : ""
								}

							}
, 							{
								"box" : 								{
									"fontname" : "Arial",
									"fontsize" : 12.0,
									"id" : "obj-54",
									"maxclass" : "newobj",
									"numinlets" : 18,
									"numoutlets" : 18,
									"outlettype" : [ "", "", "", "", "", "", "", "", "", "", "", "", "", "", "", "", "", "" ],
									"patching_rect" : [ 591.166626, 336.0, 321.0, 22.0 ],
									"style" : "",
									"text" : "route 27 28 29 30 31 32 33 34 35 36 37 38 39 40 41 42 43"
								}

							}
, 							{
								"box" : 								{
									"id" : "obj-53",
									"ignoreclick" : 1,
									"maxclass" : "kslider",
									"mode" : 1,
									"numinlets" : 2,
									"numoutlets" : 2,
									"offset" : 21,
									"outlettype" : [ "int", "int" ],
									"parameter_enable" : 0,
									"patching_rect" : [ 444.0, 592.0, 624.0, 53.0 ],
									"presentation" : 1,
									"presentation_rect" : [ 196.666504, 167.0, 416.0, 38.0 ],
									"range" : 89,
									"style" : ""
								}

							}
, 							{
								"box" : 								{
									"id" : "obj-38",
									"maxclass" : "slider",
									"numinlets" : 1,
									"numoutlets" : 1,
									"outlettype" : [ "" ],
									"parameter_enable" : 0,
									"patching_rect" : [ 1224.333252, 336.0, 22.0, 159.0 ],
									"presentation" : 1,
									"presentation_rect" : [ 626.333252, 52.833618, 15.0, 76.0 ],
									"style" : ""
								}

							}
, 							{
								"box" : 								{
									"id" : "obj-24",
									"maxclass" : "slider",
									"numinlets" : 1,
									"numoutlets" : 1,
									"outlettype" : [ "" ],
									"parameter_enable" : 0,
									"patching_rect" : [ 1191.333252, 336.0, 22.0, 159.0 ],
									"presentation" : 1,
									"presentation_rect" : [ 603.333252, 52.833618, 15.0, 76.0 ],
									"style" : ""
								}

							}
, 							{
								"box" : 								{
									"id" : "obj-29",
									"maxclass" : "slider",
									"numinlets" : 1,
									"numoutlets" : 1,
									"outlettype" : [ "" ],
									"parameter_enable" : 0,
									"patching_rect" : [ 1158.333252, 336.0, 22.0, 159.0 ],
									"presentation" : 1,
									"presentation_rect" : [ 580.333252, 52.833618, 15.0, 76.0 ],
									"style" : ""
								}

							}
, 							{
								"box" : 								{
									"id" : "obj-35",
									"maxclass" : "slider",
									"numinlets" : 1,
									"numoutlets" : 1,
									"outlettype" : [ "" ],
									"parameter_enable" : 0,
									"patching_rect" : [ 1125.333252, 336.0, 22.0, 159.0 ],
									"presentation" : 1,
									"presentation_rect" : [ 559.333252, 52.833618, 15.0, 76.0 ],
									"style" : ""
								}

							}
, 							{
								"box" : 								{
									"id" : "obj-34",
									"maxclass" : "slider",
									"numinlets" : 1,
									"numoutlets" : 1,
									"outlettype" : [ "" ],
									"parameter_enable" : 0,
									"patching_rect" : [ 1092.333252, 336.0, 22.0, 159.0 ],
									"presentation" : 1,
									"presentation_rect" : [ 537.333313, 52.833618, 15.0, 76.0 ],
									"style" : ""
								}

							}
, 							{
								"box" : 								{
									"id" : "obj-30",
									"maxclass" : "slider",
									"numinlets" : 1,
									"numoutlets" : 1,
									"outlettype" : [ "" ],
									"parameter_enable" : 0,
									"patching_rect" : [ 1059.333252, 336.0, 22.0, 159.0 ],
									"presentation" : 1,
									"presentation_rect" : [ 515.333313, 52.833618, 15.0, 76.0 ],
									"style" : ""
								}

							}
, 							{
								"box" : 								{
									"id" : "obj-32",
									"maxclass" : "slider",
									"numinlets" : 1,
									"numoutlets" : 1,
									"outlettype" : [ "" ],
									"parameter_enable" : 0,
									"patching_rect" : [ 1026.333252, 336.0, 22.0, 159.0 ],
									"presentation" : 1,
									"presentation_rect" : [ 494.333313, 52.833618, 15.0, 76.0 ],
									"style" : ""
								}

							}
, 							{
								"box" : 								{
									"id" : "obj-31",
									"maxclass" : "slider",
									"numinlets" : 1,
									"numoutlets" : 1,
									"outlettype" : [ "" ],
									"parameter_enable" : 0,
									"patching_rect" : [ 993.333252, 336.0, 22.0, 159.0 ],
									"presentation" : 1,
									"presentation_rect" : [ 474.333313, 52.833618, 15.0, 76.0 ],
									"style" : ""
								}

							}
, 							{
								"box" : 								{
									"id" : "obj-39",
									"maxclass" : "slider",
									"numinlets" : 1,
									"numoutlets" : 1,
									"outlettype" : [ "" ],
									"parameter_enable" : 0,
									"patching_rect" : [ 960.333252, 336.0, 22.0, 159.0 ],
									"presentation" : 1,
									"presentation_rect" : [ 453.333313, 52.833618, 15.0, 76.0 ],
									"style" : ""
								}

							}
, 							{
								"box" : 								{
									"fontname" : "Arial",
									"fontsize" : 12.0,
									"id" : "obj-40",
									"maxclass" : "newobj",
									"numinlets" : 10,
									"numoutlets" : 10,
									"outlettype" : [ "", "", "", "", "", "", "", "", "", "" ],
									"patching_rect" : [ 649.166626, 280.0, 188.0, 22.0 ],
									"style" : "",
									"text" : "route 75 76 77 78 79 80 81 82 83"
								}

							}
, 							{
								"box" : 								{
									"fontname" : "Arial",
									"fontsize" : 13.0,
									"id" : "obj-41",
									"maxclass" : "comment",
									"numinlets" : 1,
									"numoutlets" : 0,
									"patching_rect" : [ 1095.5, 216.0, 70.0, 21.0 ],
									"style" : "",
									"text" : "MIDI chan",
									"textcolor" : [ 0.501961, 0.501961, 0.501961, 1.0 ]
								}

							}
, 							{
								"box" : 								{
									"fontname" : "Arial",
									"fontsize" : 13.0,
									"id" : "obj-42",
									"maxclass" : "comment",
									"numinlets" : 1,
									"numoutlets" : 0,
									"patching_rect" : [ 994.0, 216.0, 72.0, 21.0 ],
									"style" : "",
									"text" : "picth bend",
									"textcolor" : [ 0.501961, 0.501961, 0.501961, 1.0 ]
								}

							}
, 							{
								"box" : 								{
									"fontname" : "Arial",
									"fontsize" : 13.0,
									"id" : "obj-43",
									"maxclass" : "comment",
									"numinlets" : 1,
									"numoutlets" : 0,
									"patching_rect" : [ 884.0, 216.0, 72.0, 21.0 ],
									"style" : "",
									"text" : "after touch",
									"textcolor" : [ 0.501961, 0.501961, 0.501961, 1.0 ]
								}

							}
, 							{
								"box" : 								{
									"fontname" : "Arial",
									"fontsize" : 13.0,
									"id" : "obj-44",
									"maxclass" : "comment",
									"numinlets" : 1,
									"numoutlets" : 0,
									"patching_rect" : [ 774.333252, 216.0, 86.0, 21.0 ],
									"style" : "",
									"text" : "Pgm Change",
									"textcolor" : [ 0.501961, 0.501961, 0.501961, 1.0 ]
								}

							}
, 							{
								"box" : 								{
									"fontname" : "Arial",
									"fontsize" : 13.0,
									"id" : "obj-45",
									"maxclass" : "comment",
									"numinlets" : 1,
									"numoutlets" : 0,
									"patching_rect" : [ 664.166626, 216.0, 102.0, 21.0 ],
									"style" : "",
									"text" : "Control Change",
									"textcolor" : [ 0.501961, 0.501961, 0.501961, 1.0 ]
								}

							}
, 							{
								"box" : 								{
									"fontname" : "Arial",
									"fontsize" : 13.0,
									"id" : "obj-46",
									"maxclass" : "comment",
									"numinlets" : 1,
									"numoutlets" : 0,
									"patching_rect" : [ 554.166626, 216.0, 91.0, 21.0 ],
									"style" : "",
									"text" : "Poly Pressure",
									"textcolor" : [ 0.501961, 0.501961, 0.501961, 1.0 ]
								}

							}
, 							{
								"box" : 								{
									"fontname" : "Arial",
									"fontsize" : 13.0,
									"id" : "obj-47",
									"maxclass" : "comment",
									"numinlets" : 1,
									"numoutlets" : 0,
									"patching_rect" : [ 444.0, 216.0, 80.0, 21.0 ],
									"style" : "",
									"text" : "Note On/Off",
									"textcolor" : [ 0.501961, 0.501961, 0.501961, 1.0 ]
								}

							}
, 							{
								"box" : 								{
									"fontname" : "Arial",
									"fontsize" : 13.0,
									"id" : "obj-48",
									"maxclass" : "newobj",
									"numinlets" : 1,
									"numoutlets" : 3,
									"outlettype" : [ "", "", "" ],
									"patching_rect" : [ 444.0, 149.0, 46.0, 23.0 ],
									"style" : "",
									"text" : "unjoin"
								}

							}
, 							{
								"box" : 								{
									"fontname" : "Arial",
									"fontsize" : 13.0,
									"id" : "obj-49",
									"maxclass" : "number",
									"numinlets" : 1,
									"numoutlets" : 2,
									"outlettype" : [ "", "bang" ],
									"parameter_enable" : 0,
									"patching_rect" : [ 444.0, 176.0, 38.0, 23.0 ],
									"style" : ""
								}

							}
, 							{
								"box" : 								{
									"id" : "obj-50",
									"maxclass" : "button",
									"numinlets" : 1,
									"numoutlets" : 1,
									"outlettype" : [ "bang" ],
									"patching_rect" : [ 444.0, 197.0, 20.0, 20.0 ],
									"style" : ""
								}

							}
, 							{
								"box" : 								{
									"fontname" : "Arial",
									"fontsize" : 13.0,
									"id" : "obj-51",
									"maxclass" : "number",
									"numinlets" : 1,
									"numoutlets" : 2,
									"outlettype" : [ "", "bang" ],
									"parameter_enable" : 0,
									"patching_rect" : [ 481.0, 176.0, 38.0, 23.0 ],
									"style" : ""
								}

							}
, 							{
								"box" : 								{
									"fontname" : "Arial",
									"fontsize" : 13.0,
									"id" : "obj-52",
									"maxclass" : "number",
									"numinlets" : 1,
									"numoutlets" : 2,
									"outlettype" : [ "", "bang" ],
									"parameter_enable" : 0,
									"patching_rect" : [ 591.166626, 176.0, 38.0, 23.0 ],
									"style" : ""
								}

							}
, 							{
								"box" : 								{
									"fontname" : "Arial",
									"fontsize" : 13.0,
									"id" : "obj-55",
									"maxclass" : "number",
									"numinlets" : 1,
									"numoutlets" : 2,
									"outlettype" : [ "", "bang" ],
									"parameter_enable" : 0,
									"patching_rect" : [ 554.166626, 176.0, 38.0, 23.0 ],
									"style" : ""
								}

							}
, 							{
								"box" : 								{
									"fontname" : "Arial",
									"fontsize" : 13.0,
									"id" : "obj-56",
									"maxclass" : "newobj",
									"numinlets" : 1,
									"numoutlets" : 3,
									"outlettype" : [ "", "", "" ],
									"patching_rect" : [ 554.166626, 149.0, 46.0, 23.0 ],
									"style" : "",
									"text" : "unjoin"
								}

							}
, 							{
								"box" : 								{
									"fontname" : "Arial",
									"fontsize" : 13.0,
									"id" : "obj-57",
									"maxclass" : "number",
									"numinlets" : 1,
									"numoutlets" : 2,
									"outlettype" : [ "", "bang" ],
									"parameter_enable" : 0,
									"patching_rect" : [ 701.166626, 176.0, 38.0, 23.0 ],
									"style" : ""
								}

							}
, 							{
								"box" : 								{
									"fontname" : "Arial",
									"fontsize" : 13.0,
									"id" : "obj-58",
									"maxclass" : "number",
									"numinlets" : 1,
									"numoutlets" : 2,
									"outlettype" : [ "", "bang" ],
									"parameter_enable" : 0,
									"patching_rect" : [ 664.166626, 176.0, 38.0, 23.0 ],
									"style" : ""
								}

							}
, 							{
								"box" : 								{
									"fontname" : "Arial",
									"fontsize" : 13.0,
									"id" : "obj-59",
									"maxclass" : "newobj",
									"numinlets" : 1,
									"numoutlets" : 3,
									"outlettype" : [ "", "", "" ],
									"patching_rect" : [ 664.166626, 149.0, 46.0, 23.0 ],
									"style" : "",
									"text" : "unjoin"
								}

							}
, 							{
								"box" : 								{
									"fontname" : "Arial",
									"fontsize" : 13.0,
									"id" : "obj-60",
									"maxclass" : "number",
									"numinlets" : 1,
									"numoutlets" : 2,
									"outlettype" : [ "", "bang" ],
									"parameter_enable" : 0,
									"patching_rect" : [ 774.0, 161.0, 53.0, 23.0 ],
									"style" : ""
								}

							}
, 							{
								"box" : 								{
									"id" : "obj-61",
									"maxclass" : "button",
									"numinlets" : 1,
									"numoutlets" : 1,
									"outlettype" : [ "bang" ],
									"patching_rect" : [ 774.0, 197.0, 20.0, 20.0 ],
									"style" : ""
								}

							}
, 							{
								"box" : 								{
									"fontname" : "Arial",
									"fontsize" : 13.0,
									"id" : "obj-62",
									"maxclass" : "newobj",
									"numinlets" : 1,
									"numoutlets" : 7,
									"outlettype" : [ "", "", "", "int", "int", "int", "int" ],
									"patching_rect" : [ 444.0, 121.0, 679.0, 23.0 ],
									"style" : "",
									"text" : "midiparse"
								}

							}
, 							{
								"box" : 								{
									"fontname" : "Arial",
									"fontsize" : 13.0,
									"id" : "obj-63",
									"maxclass" : "number",
									"numinlets" : 1,
									"numoutlets" : 2,
									"outlettype" : [ "", "bang" ],
									"parameter_enable" : 0,
									"patching_rect" : [ 1104.0, 161.0, 53.0, 23.0 ],
									"style" : ""
								}

							}
, 							{
								"box" : 								{
									"id" : "obj-64",
									"maxclass" : "button",
									"numinlets" : 1,
									"numoutlets" : 1,
									"outlettype" : [ "bang" ],
									"patching_rect" : [ 1104.0, 197.0, 20.0, 20.0 ],
									"style" : ""
								}

							}
, 							{
								"box" : 								{
									"fontname" : "Arial",
									"fontsize" : 13.0,
									"id" : "obj-65",
									"maxclass" : "number",
									"numinlets" : 1,
									"numoutlets" : 2,
									"outlettype" : [ "", "bang" ],
									"parameter_enable" : 0,
									"patching_rect" : [ 994.0, 161.0, 53.0, 23.0 ],
									"style" : ""
								}

							}
, 							{
								"box" : 								{
									"id" : "obj-66",
									"maxclass" : "button",
									"numinlets" : 1,
									"numoutlets" : 1,
									"outlettype" : [ "bang" ],
									"patching_rect" : [ 994.0, 197.0, 20.0, 20.0 ],
									"style" : ""
								}

							}
, 							{
								"box" : 								{
									"id" : "obj-67",
									"maxclass" : "button",
									"numinlets" : 1,
									"numoutlets" : 1,
									"outlettype" : [ "bang" ],
									"patching_rect" : [ 884.0, 197.0, 20.0, 20.0 ],
									"style" : ""
								}

							}
, 							{
								"box" : 								{
									"fontname" : "Arial",
									"fontsize" : 13.0,
									"id" : "obj-68",
									"maxclass" : "number",
									"numinlets" : 1,
									"numoutlets" : 2,
									"outlettype" : [ "", "bang" ],
									"parameter_enable" : 0,
									"patching_rect" : [ 884.0, 161.0, 53.0, 23.0 ],
									"style" : ""
								}

							}
, 							{
								"box" : 								{
									"id" : "obj-69",
									"maxclass" : "button",
									"numinlets" : 1,
									"numoutlets" : 1,
									"outlettype" : [ "bang" ],
									"patching_rect" : [ 554.166626, 197.0, 20.0, 20.0 ],
									"style" : ""
								}

							}
, 							{
								"box" : 								{
									"id" : "obj-70",
									"maxclass" : "button",
									"numinlets" : 1,
									"numoutlets" : 1,
									"outlettype" : [ "bang" ],
									"patching_rect" : [ 664.166626, 197.0, 20.0, 20.0 ],
									"style" : ""
								}

							}
, 							{
								"box" : 								{
									"fontname" : "Arial",
									"fontsize" : 13.0,
									"id" : "obj-71",
									"maxclass" : "newobj",
									"numinlets" : 1,
									"numoutlets" : 1,
									"outlettype" : [ "" ],
									"patching_rect" : [ 444.0, 58.0, 182.0, 23.0 ],
									"style" : "",
									"text" : "loadmess \"Keystation Pro 88\""
								}

							}
, 							{
								"box" : 								{
									"fontname" : "Arial",
									"fontsize" : 12.0,
									"id" : "obj-1",
									"maxclass" : "newobj",
									"numinlets" : 1,
									"numoutlets" : 1,
									"outlettype" : [ "int" ],
									"patching_rect" : [ 444.0, 89.0, 42.0, 22.0 ],
									"style" : "",
									"text" : "midiin"
								}

							}
, 							{
								"box" : 								{
									"fontname" : "Arial",
									"fontsize" : 12.0,
									"id" : "obj-147",
									"maxclass" : "newobj",
									"numinlets" : 9,
									"numoutlets" : 9,
									"outlettype" : [ "", "", "", "", "", "", "", "", "" ],
									"patching_rect" : [ 468.166626, 478.5, 185.0, 22.0 ],
									"style" : "",
									"text" : "route 85 86 87 88 89 90 102 103"
								}

							}
, 							{
								"box" : 								{
									"fontname" : "Arial",
									"fontsize" : 12.0,
									"id" : "obj-148",
									"maxclass" : "newobj",
									"numinlets" : 9,
									"numoutlets" : 9,
									"outlettype" : [ "", "", "", "", "", "", "", "", "" ],
									"patching_rect" : [ 468.166626, 441.5, 222.0, 22.0 ],
									"style" : "",
									"text" : "route 104 105 106 107 108 109 110 111"
								}

							}
, 							{
								"box" : 								{
									"fontname" : "Arial",
									"fontsize" : 12.0,
									"id" : "obj-149",
									"maxclass" : "newobj",
									"numinlets" : 9,
									"numoutlets" : 9,
									"outlettype" : [ "", "", "", "", "", "", "", "", "" ],
									"patching_rect" : [ 468.166626, 405.5, 218.0, 22.0 ],
									"style" : "",
									"text" : "route 112 113 114 115 116 117 118 119"
								}

							}
 ],
						"lines" : [ 							{
								"patchline" : 								{
									"destination" : [ "obj-62", 0 ],
									"disabled" : 0,
									"hidden" : 0,
									"source" : [ "obj-1", 0 ]
								}

							}
, 							{
								"patchline" : 								{
									"destination" : [ "obj-139", 0 ],
									"disabled" : 0,
									"hidden" : 0,
									"midpoints" : [ 622.916626, 577.0, 913.0, 577.0, 913.0, 511.0, 926.166504, 511.0 ],
									"source" : [ "obj-147", 7 ]
								}

							}
, 							{
								"patchline" : 								{
									"destination" : [ "obj-140", 0 ],
									"disabled" : 0,
									"hidden" : 0,
									"midpoints" : [ 602.166626, 511.0, 895.166504, 511.0 ],
									"source" : [ "obj-147", 6 ]
								}

							}
, 							{
								"patchline" : 								{
									"destination" : [ "obj-141", 0 ],
									"disabled" : 0,
									"hidden" : 0,
									"midpoints" : [ 581.416626, 511.0, 864.166504, 511.0 ],
									"source" : [ "obj-147", 5 ]
								}

							}
, 							{
								"patchline" : 								{
									"destination" : [ "obj-142", 0 ],
									"disabled" : 0,
									"hidden" : 0,
									"midpoints" : [ 560.666626, 511.0, 833.166504, 511.0 ],
									"source" : [ "obj-147", 4 ]
								}

							}
, 							{
								"patchline" : 								{
									"destination" : [ "obj-143", 0 ],
									"disabled" : 0,
									"hidden" : 0,
									"midpoints" : [ 539.916626, 511.0, 802.166504, 511.0 ],
									"source" : [ "obj-147", 3 ]
								}

							}
, 							{
								"patchline" : 								{
									"destination" : [ "obj-144", 0 ],
									"disabled" : 0,
									"hidden" : 0,
									"midpoints" : [ 519.166626, 511.0, 771.166504, 511.0 ],
									"source" : [ "obj-147", 2 ]
								}

							}
, 							{
								"patchline" : 								{
									"destination" : [ "obj-145", 0 ],
									"disabled" : 0,
									"hidden" : 0,
									"midpoints" : [ 498.416626, 511.0, 740.166504, 511.0 ],
									"source" : [ "obj-147", 1 ]
								}

							}
, 							{
								"patchline" : 								{
									"destination" : [ "obj-146", 0 ],
									"disabled" : 0,
									"hidden" : 0,
									"midpoints" : [ 477.666626, 511.0, 709.166504, 511.0 ],
									"source" : [ "obj-147", 0 ]
								}

							}
, 							{
								"patchline" : 								{
									"destination" : [ "obj-131", 0 ],
									"disabled" : 0,
									"hidden" : 0,
									"midpoints" : [ 629.916626, 472.0, 895.166504, 472.0 ],
									"source" : [ "obj-148", 6 ]
								}

							}
, 							{
								"patchline" : 								{
									"destination" : [ "obj-133", 0 ],
									"disabled" : 0,
									"hidden" : 0,
									"midpoints" : [ 579.166626, 472.0, 833.166504, 472.0 ],
									"source" : [ "obj-148", 4 ]
								}

							}
, 							{
								"patchline" : 								{
									"destination" : [ "obj-134", 0 ],
									"disabled" : 0,
									"hidden" : 0,
									"midpoints" : [ 553.791626, 472.0, 802.166504, 472.0 ],
									"source" : [ "obj-148", 3 ]
								}

							}
, 							{
								"patchline" : 								{
									"destination" : [ "obj-135", 0 ],
									"disabled" : 0,
									"hidden" : 0,
									"midpoints" : [ 528.416626, 472.0, 771.166504, 472.0 ],
									"source" : [ "obj-148", 2 ]
								}

							}
, 							{
								"patchline" : 								{
									"destination" : [ "obj-136", 0 ],
									"disabled" : 0,
									"hidden" : 0,
									"midpoints" : [ 503.041626, 472.0, 740.166504, 472.0 ],
									"source" : [ "obj-148", 1 ]
								}

							}
, 							{
								"patchline" : 								{
									"destination" : [ "obj-137", 0 ],
									"disabled" : 0,
									"hidden" : 0,
									"midpoints" : [ 477.666626, 463.0, 454.0, 463.0, 454.0, 508.0, 685.0, 508.0, 685.0, 475.0, 709.166504, 475.0 ],
									"source" : [ "obj-148", 0 ]
								}

							}
, 							{
								"patchline" : 								{
									"destination" : [ "obj-147", 0 ],
									"disabled" : 0,
									"hidden" : 0,
									"midpoints" : [ 680.666626, 508.0, 454.0, 508.0, 454.0, 475.0, 477.666626, 475.0 ],
									"source" : [ "obj-148", 8 ]
								}

							}
, 							{
								"patchline" : 								{
									"destination" : [ "obj-4", 0 ],
									"disabled" : 0,
									"hidden" : 0,
									"midpoints" : [ 655.291626, 463.0, 694.0, 463.0, 694.0, 424.0, 913.0, 424.0, 913.0, 472.0, 926.166504, 472.0 ],
									"source" : [ "obj-148", 7 ]
								}

							}
, 							{
								"patchline" : 								{
									"destination" : [ "obj-6", 0 ],
									"disabled" : 0,
									"hidden" : 0,
									"midpoints" : [ 604.541626, 472.0, 864.166504, 472.0 ],
									"source" : [ "obj-148", 5 ]
								}

							}
, 							{
								"patchline" : 								{
									"destination" : [ "obj-100", 0 ],
									"disabled" : 0,
									"hidden" : 0,
									"midpoints" : [ 477.666626, 427.0, 454.0, 427.0, 454.0, 391.0, 709.166504, 391.0 ],
									"source" : [ "obj-149", 0 ]
								}

							}
, 							{
								"patchline" : 								{
									"destination" : [ "obj-121", 0 ],
									"disabled" : 0,
									"hidden" : 0,
									"midpoints" : [ 502.541626, 427.0, 454.0, 427.0, 454.0, 391.0, 740.166504, 391.0 ],
									"source" : [ "obj-149", 1 ]
								}

							}
, 							{
								"patchline" : 								{
									"destination" : [ "obj-122", 0 ],
									"disabled" : 0,
									"hidden" : 0,
									"midpoints" : [ 527.416626, 436.0, 771.166504, 436.0 ],
									"source" : [ "obj-149", 2 ]
								}

							}
, 							{
								"patchline" : 								{
									"destination" : [ "obj-124", 0 ],
									"disabled" : 0,
									"hidden" : 0,
									"midpoints" : [ 577.166626, 436.0, 833.166504, 436.0 ],
									"source" : [ "obj-149", 4 ]
								}

							}
, 							{
								"patchline" : 								{
									"destination" : [ "obj-126", 0 ],
									"disabled" : 0,
									"hidden" : 0,
									"midpoints" : [ 626.916626, 433.0, 895.166504, 433.0 ],
									"source" : [ "obj-149", 6 ]
								}

							}
, 							{
								"patchline" : 								{
									"destination" : [ "obj-13", 0 ],
									"disabled" : 0,
									"hidden" : 0,
									"midpoints" : [ 651.791626, 433.0, 926.166504, 433.0 ],
									"source" : [ "obj-149", 7 ]
								}

							}
, 							{
								"patchline" : 								{
									"destination" : [ "obj-148", 0 ],
									"disabled" : 0,
									"hidden" : 0,
									"midpoints" : [ 676.666626, 427.0, 697.0, 427.0, 697.0, 391.0, 454.0, 391.0, 454.0, 436.0, 477.666626, 436.0 ],
									"source" : [ "obj-149", 8 ]
								}

							}
, 							{
								"patchline" : 								{
									"destination" : [ "obj-17", 0 ],
									"disabled" : 0,
									"hidden" : 0,
									"midpoints" : [ 602.041626, 436.0, 864.166504, 436.0 ],
									"source" : [ "obj-149", 5 ]
								}

							}
, 							{
								"patchline" : 								{
									"destination" : [ "obj-19", 0 ],
									"disabled" : 0,
									"hidden" : 0,
									"midpoints" : [ 552.291626, 433.0, 802.166504, 433.0 ],
									"source" : [ "obj-149", 3 ]
								}

							}
, 							{
								"patchline" : 								{
									"destination" : [ "obj-152", 0 ],
									"disabled" : 0,
									"hidden" : 0,
									"midpoints" : [ 368.499969, 529.0, 361.0, 529.0, 361.0, 580.0, 366.5, 580.0 ],
									"source" : [ "obj-158", 5 ]
								}

							}
, 							{
								"patchline" : 								{
									"destination" : [ "obj-153", 0 ],
									"disabled" : 0,
									"hidden" : 0,
									"midpoints" : [ 349.833282, 529.0, 404.999512, 529.0 ],
									"source" : [ "obj-158", 4 ]
								}

							}
, 							{
								"patchline" : 								{
									"destination" : [ "obj-154", 0 ],
									"disabled" : 0,
									"hidden" : 0,
									"midpoints" : [ 331.166626, 529.0, 373.999512, 529.0 ],
									"source" : [ "obj-158", 3 ]
								}

							}
, 							{
								"patchline" : 								{
									"destination" : [ "obj-155", 0 ],
									"disabled" : 0,
									"hidden" : 0,
									"midpoints" : [ 312.499969, 529.0, 342.999512, 529.0 ],
									"source" : [ "obj-158", 2 ]
								}

							}
, 							{
								"patchline" : 								{
									"destination" : [ "obj-156", 0 ],
									"disabled" : 0,
									"hidden" : 0,
									"midpoints" : [ 293.833282, 529.0, 311.999512, 529.0 ],
									"source" : [ "obj-158", 1 ]
								}

							}
, 							{
								"patchline" : 								{
									"destination" : [ "obj-157", 0 ],
									"disabled" : 0,
									"hidden" : 0,
									"midpoints" : [ 275.166626, 529.0, 281.666626, 529.0 ],
									"source" : [ "obj-158", 0 ]
								}

							}
, 							{
								"patchline" : 								{
									"destination" : [ "obj-24", 0 ],
									"disabled" : 0,
									"hidden" : 0,
									"source" : [ "obj-40", 7 ]
								}

							}
, 							{
								"patchline" : 								{
									"destination" : [ "obj-29", 0 ],
									"disabled" : 0,
									"hidden" : 0,
									"source" : [ "obj-40", 6 ]
								}

							}
, 							{
								"patchline" : 								{
									"destination" : [ "obj-30", 0 ],
									"disabled" : 0,
									"hidden" : 0,
									"source" : [ "obj-40", 3 ]
								}

							}
, 							{
								"patchline" : 								{
									"destination" : [ "obj-31", 0 ],
									"disabled" : 0,
									"hidden" : 0,
									"source" : [ "obj-40", 1 ]
								}

							}
, 							{
								"patchline" : 								{
									"destination" : [ "obj-32", 0 ],
									"disabled" : 0,
									"hidden" : 0,
									"source" : [ "obj-40", 2 ]
								}

							}
, 							{
								"patchline" : 								{
									"destination" : [ "obj-34", 0 ],
									"disabled" : 0,
									"hidden" : 0,
									"source" : [ "obj-40", 4 ]
								}

							}
, 							{
								"patchline" : 								{
									"destination" : [ "obj-35", 0 ],
									"disabled" : 0,
									"hidden" : 0,
									"source" : [ "obj-40", 5 ]
								}

							}
, 							{
								"patchline" : 								{
									"destination" : [ "obj-38", 0 ],
									"disabled" : 0,
									"hidden" : 0,
									"source" : [ "obj-40", 8 ]
								}

							}
, 							{
								"patchline" : 								{
									"destination" : [ "obj-39", 0 ],
									"disabled" : 0,
									"hidden" : 0,
									"source" : [ "obj-40", 0 ]
								}

							}
, 							{
								"patchline" : 								{
									"destination" : [ "obj-49", 0 ],
									"disabled" : 0,
									"hidden" : 0,
									"source" : [ "obj-48", 0 ]
								}

							}
, 							{
								"patchline" : 								{
									"destination" : [ "obj-51", 0 ],
									"disabled" : 0,
									"hidden" : 0,
									"source" : [ "obj-48", 1 ]
								}

							}
, 							{
								"patchline" : 								{
									"destination" : [ "obj-50", 0 ],
									"disabled" : 0,
									"hidden" : 0,
									"source" : [ "obj-49", 0 ]
								}

							}
, 							{
								"patchline" : 								{
									"destination" : [ "obj-20", 0 ],
									"disabled" : 0,
									"hidden" : 0,
									"midpoints" : [ 653.960754, 391.0, 787.0, 391.0, 787.0, 544.0, 804.166504, 544.0 ],
									"source" : [ "obj-54", 3 ]
								}

							}
, 							{
								"patchline" : 								{
									"destination" : [ "obj-21", 0 ],
									"disabled" : 0,
									"hidden" : 0,
									"midpoints" : [ 636.196045, 391.0, 757.0, 391.0, 757.0, 544.0, 773.166504, 544.0 ],
									"source" : [ "obj-54", 2 ]
								}

							}
, 							{
								"patchline" : 								{
									"destination" : [ "obj-23", 0 ],
									"disabled" : 0,
									"hidden" : 0,
									"midpoints" : [ 618.431335, 391.0, 727.0, 391.0, 727.0, 544.0, 742.166504, 544.0 ],
									"source" : [ "obj-54", 1 ]
								}

							}
, 							{
								"patchline" : 								{
									"destination" : [ "obj-83", 0 ],
									"disabled" : 0,
									"hidden" : 0,
									"midpoints" : [ 600.666626, 391.0, 697.0, 391.0, 697.0, 436.0, 694.0, 436.0, 694.0, 544.0, 711.833618, 544.0 ],
									"source" : [ "obj-54", 0 ]
								}

							}
, 							{
								"patchline" : 								{
									"destination" : [ "obj-87", 0 ],
									"disabled" : 0,
									"hidden" : 0,
									"midpoints" : [ 671.725464, 391.0, 820.0, 391.0, 820.0, 544.0, 835.166504, 544.0 ],
									"source" : [ "obj-54", 4 ]
								}

							}
, 							{
								"patchline" : 								{
									"destination" : [ "obj-88", 0 ],
									"disabled" : 0,
									"hidden" : 0,
									"midpoints" : [ 689.490173, 391.0, 850.0, 391.0, 850.0, 544.0, 866.166504, 544.0 ],
									"source" : [ "obj-54", 5 ]
								}

							}
, 							{
								"patchline" : 								{
									"destination" : [ "obj-89", 0 ],
									"disabled" : 0,
									"hidden" : 0,
									"midpoints" : [ 707.254883, 424.0, 880.0, 424.0, 880.0, 544.0, 897.166504, 544.0 ],
									"source" : [ "obj-54", 6 ]
								}

							}
, 							{
								"patchline" : 								{
									"destination" : [ "obj-90", 0 ],
									"disabled" : 0,
									"hidden" : 0,
									"midpoints" : [ 725.019592, 424.0, 913.0, 424.0, 913.0, 544.0, 928.166504, 544.0 ],
									"source" : [ "obj-54", 7 ]
								}

							}
, 							{
								"patchline" : 								{
									"destination" : [ "obj-91", 0 ],
									"disabled" : 0,
									"hidden" : 0,
									"midpoints" : [ 742.784302, 424.0, 955.0, 424.0, 955.0, 502.0, 970.833252, 502.0 ],
									"source" : [ "obj-54", 8 ]
								}

							}
, 							{
								"patchline" : 								{
									"destination" : [ "obj-92", 0 ],
									"disabled" : 0,
									"hidden" : 0,
									"midpoints" : [ 760.54895, 424.0, 955.0, 424.0, 955.0, 502.0, 1002.833252, 502.0 ],
									"source" : [ "obj-54", 9 ]
								}

							}
, 							{
								"patchline" : 								{
									"destination" : [ "obj-93", 0 ],
									"disabled" : 0,
									"hidden" : 0,
									"midpoints" : [ 778.31366, 424.0, 955.0, 424.0, 955.0, 499.0, 1035.833252, 499.0 ],
									"source" : [ "obj-54", 10 ]
								}

							}
, 							{
								"patchline" : 								{
									"destination" : [ "obj-94", 0 ],
									"disabled" : 0,
									"hidden" : 0,
									"midpoints" : [ 796.078369, 424.0, 955.0, 424.0, 955.0, 502.0, 1068.833252, 502.0 ],
									"source" : [ "obj-54", 11 ]
								}

							}
, 							{
								"patchline" : 								{
									"destination" : [ "obj-95", 0 ],
									"disabled" : 0,
									"hidden" : 0,
									"midpoints" : [ 813.843079, 424.0, 955.0, 424.0, 955.0, 499.0, 1101.833252, 499.0 ],
									"source" : [ "obj-54", 12 ]
								}

							}
, 							{
								"patchline" : 								{
									"destination" : [ "obj-96", 0 ],
									"disabled" : 0,
									"hidden" : 0,
									"midpoints" : [ 831.607788, 424.0, 955.0, 424.0, 955.0, 538.0, 1120.0, 538.0, 1120.0, 502.0, 1134.833252, 502.0 ],
									"source" : [ "obj-54", 13 ]
								}

							}
, 							{
								"patchline" : 								{
									"destination" : [ "obj-97", 0 ],
									"disabled" : 0,
									"hidden" : 0,
									"midpoints" : [ 849.372498, 424.0, 955.0, 424.0, 955.0, 538.0, 1153.0, 538.0, 1153.0, 502.0, 1167.833252, 502.0 ],
									"source" : [ "obj-54", 14 ]
								}

							}
, 							{
								"patchline" : 								{
									"destination" : [ "obj-98", 0 ],
									"disabled" : 0,
									"hidden" : 0,
									"midpoints" : [ 867.137207, 424.0, 955.0, 424.0, 955.0, 538.0, 1186.0, 538.0, 1186.0, 502.0, 1200.833252, 502.0 ],
									"source" : [ "obj-54", 15 ]
								}

							}
, 							{
								"patchline" : 								{
									"destination" : [ "obj-99", 0 ],
									"disabled" : 0,
									"hidden" : 0,
									"midpoints" : [ 884.901917, 367.0, 946.0, 367.0, 946.0, 322.0, 1258.0, 322.0, 1258.0, 502.0, 1233.833252, 502.0 ],
									"source" : [ "obj-54", 16 ]
								}

							}
, 							{
								"patchline" : 								{
									"destination" : [ "obj-69", 0 ],
									"disabled" : 0,
									"hidden" : 0,
									"source" : [ "obj-55", 0 ]
								}

							}
, 							{
								"patchline" : 								{
									"destination" : [ "obj-52", 0 ],
									"disabled" : 0,
									"hidden" : 0,
									"source" : [ "obj-56", 1 ]
								}

							}
, 							{
								"patchline" : 								{
									"destination" : [ "obj-55", 0 ],
									"disabled" : 0,
									"hidden" : 0,
									"source" : [ "obj-56", 0 ]
								}

							}
, 							{
								"patchline" : 								{
									"destination" : [ "obj-70", 0 ],
									"disabled" : 0,
									"hidden" : 0,
									"source" : [ "obj-58", 0 ]
								}

							}
, 							{
								"patchline" : 								{
									"destination" : [ "obj-57", 0 ],
									"disabled" : 0,
									"hidden" : 0,
									"source" : [ "obj-59", 1 ]
								}

							}
, 							{
								"patchline" : 								{
									"destination" : [ "obj-58", 0 ],
									"disabled" : 0,
									"hidden" : 0,
									"source" : [ "obj-59", 0 ]
								}

							}
, 							{
								"patchline" : 								{
									"destination" : [ "obj-61", 0 ],
									"disabled" : 0,
									"hidden" : 0,
									"source" : [ "obj-60", 0 ]
								}

							}
, 							{
								"patchline" : 								{
									"destination" : [ "obj-149", 0 ],
									"disabled" : 0,
									"hidden" : 0,
									"midpoints" : [ 673.5, 142.0, 649.0, 142.0, 649.0, 265.0, 477.666626, 265.0 ],
									"source" : [ "obj-62", 2 ]
								}

							}
, 							{
								"patchline" : 								{
									"destination" : [ "obj-151", 0 ],
									"disabled" : 0,
									"hidden" : 0,
									"midpoints" : [ 1003.5, 142.0, 979.0, 142.0, 979.0, 322.0, 427.0, 322.0, 427.0, 580.0, 313.5, 580.0 ],
									"source" : [ "obj-62", 5 ]
								}

							}
, 							{
								"patchline" : 								{
									"destination" : [ "obj-158", 0 ],
									"disabled" : 0,
									"hidden" : 0,
									"midpoints" : [ 673.5, 142.0, 649.0, 142.0, 649.0, 265.0, 275.166626, 265.0 ],
									"source" : [ "obj-62", 2 ]
								}

							}
, 							{
								"patchline" : 								{
									"destination" : [ "obj-40", 0 ],
									"disabled" : 0,
									"hidden" : 0,
									"midpoints" : [ 673.5, 163.0, 641.0, 163.0, 641.0, 268.0, 658.666626, 268.0 ],
									"source" : [ "obj-62", 2 ]
								}

							}
, 							{
								"patchline" : 								{
									"destination" : [ "obj-48", 0 ],
									"disabled" : 0,
									"hidden" : 0,
									"source" : [ "obj-62", 0 ]
								}

							}
, 							{
								"patchline" : 								{
									"destination" : [ "obj-53", 0 ],
									"disabled" : 0,
									"hidden" : 0,
									"midpoints" : [ 453.5, 142.0, 430.0, 142.0, 430.0, 577.0, 453.5, 577.0 ],
									"source" : [ "obj-62", 0 ]
								}

							}
, 							{
								"patchline" : 								{
									"destination" : [ "obj-54", 0 ],
									"disabled" : 0,
									"hidden" : 0,
									"midpoints" : [ 673.5, 163.0, 600.666626, 163.0 ],
									"source" : [ "obj-62", 2 ]
								}

							}
, 							{
								"patchline" : 								{
									"destination" : [ "obj-56", 0 ],
									"disabled" : 0,
									"hidden" : 0,
									"source" : [ "obj-62", 1 ]
								}

							}
, 							{
								"patchline" : 								{
									"destination" : [ "obj-59", 0 ],
									"disabled" : 0,
									"hidden" : 0,
									"source" : [ "obj-62", 2 ]
								}

							}
, 							{
								"patchline" : 								{
									"destination" : [ "obj-60", 0 ],
									"disabled" : 0,
									"hidden" : 0,
									"source" : [ "obj-62", 3 ]
								}

							}
, 							{
								"patchline" : 								{
									"destination" : [ "obj-63", 0 ],
									"disabled" : 0,
									"hidden" : 0,
									"source" : [ "obj-62", 6 ]
								}

							}
, 							{
								"patchline" : 								{
									"destination" : [ "obj-65", 0 ],
									"disabled" : 0,
									"hidden" : 0,
									"source" : [ "obj-62", 5 ]
								}

							}
, 							{
								"patchline" : 								{
									"destination" : [ "obj-68", 0 ],
									"disabled" : 0,
									"hidden" : 0,
									"source" : [ "obj-62", 4 ]
								}

							}
, 							{
								"patchline" : 								{
									"destination" : [ "obj-80", 0 ],
									"disabled" : 0,
									"hidden" : 0,
									"source" : [ "obj-62", 2 ]
								}

							}
, 							{
								"patchline" : 								{
									"destination" : [ "obj-64", 0 ],
									"disabled" : 0,
									"hidden" : 0,
									"source" : [ "obj-63", 0 ]
								}

							}
, 							{
								"patchline" : 								{
									"destination" : [ "obj-66", 0 ],
									"disabled" : 0,
									"hidden" : 0,
									"source" : [ "obj-65", 0 ]
								}

							}
, 							{
								"patchline" : 								{
									"destination" : [ "obj-67", 0 ],
									"disabled" : 0,
									"hidden" : 0,
									"source" : [ "obj-68", 0 ]
								}

							}
, 							{
								"patchline" : 								{
									"destination" : [ "obj-1", 0 ],
									"disabled" : 0,
									"hidden" : 0,
									"source" : [ "obj-71", 0 ]
								}

							}
, 							{
								"patchline" : 								{
									"destination" : [ "obj-2", 0 ],
									"disabled" : 0,
									"hidden" : 0,
									"source" : [ "obj-78", 0 ]
								}

							}
, 							{
								"patchline" : 								{
									"destination" : [ "obj-78", 1 ],
									"disabled" : 0,
									"hidden" : 0,
									"source" : [ "obj-79", 0 ]
								}

							}
, 							{
								"patchline" : 								{
									"destination" : [ "obj-79", 0 ],
									"disabled" : 0,
									"hidden" : 0,
									"source" : [ "obj-80", 2 ]
								}

							}
, 							{
								"patchline" : 								{
									"destination" : [ "obj-81", 0 ],
									"disabled" : 0,
									"hidden" : 0,
									"source" : [ "obj-80", 1 ]
								}

							}
, 							{
								"patchline" : 								{
									"destination" : [ "obj-82", 0 ],
									"disabled" : 0,
									"hidden" : 0,
									"source" : [ "obj-80", 0 ]
								}

							}
, 							{
								"patchline" : 								{
									"destination" : [ "obj-82", 2 ],
									"disabled" : 0,
									"hidden" : 0,
									"source" : [ "obj-81", 0 ]
								}

							}
, 							{
								"patchline" : 								{
									"destination" : [ "obj-78", 0 ],
									"disabled" : 0,
									"hidden" : 0,
									"source" : [ "obj-82", 0 ]
								}

							}
 ]
					}
,
					"patching_rect" : [ 726.5, 77.0, 18.0, 22.0 ],
					"saved_object_attributes" : 					{
						"description" : "",
						"digest" : "",
						"globalpatchername" : "",
						"style" : "",
						"tags" : ""
					}
,
					"style" : "",
					"text" : "p"
				}

			}
, 			{
				"box" : 				{
					"fontname" : "Arial",
					"fontsize" : 12.0,
					"id" : "obj-75",
					"maxclass" : "newobj",
					"numinlets" : 1,
					"numoutlets" : 0,
					"patching_rect" : [ 1099.0, 1011.0, 93.0, 22.0 ],
					"style" : "",
					"text" : "print @popup 1"
				}

			}
, 			{
				"box" : 				{
					"fontname" : "Arial",
					"fontsize" : 12.0,
					"id" : "obj-28",
					"maxclass" : "message",
					"numinlets" : 2,
					"numoutlets" : 1,
					"outlettype" : [ "" ],
					"patching_rect" : [ 447.333344, 530.333313, 56.0, 22.0 ],
					"style" : "",
					"text" : "/attack 0"
				}

			}
, 			{
				"box" : 				{
					"fontname" : "Arial",
					"fontsize" : 12.0,
					"id" : "obj-27",
					"maxclass" : "newobj",
					"numinlets" : 2,
					"numoutlets" : 1,
					"outlettype" : [ "bang" ],
					"patching_rect" : [ 438.833344, 494.333313, 49.0, 22.0 ],
					"style" : "",
					"text" : "delay 3"
				}

			}
, 			{
				"box" : 				{
					"fontname" : "Arial",
					"fontsize" : 12.0,
					"id" : "obj-25",
					"maxclass" : "message",
					"numinlets" : 2,
					"numoutlets" : 1,
					"outlettype" : [ "" ],
					"patching_rect" : [ 382.333344, 524.333313, 56.0, 22.0 ],
					"style" : "",
					"text" : "/attack 1"
				}

			}
, 			{
				"box" : 				{
					"fontname" : "Arial",
					"fontsize" : 12.0,
					"id" : "obj-22",
					"maxclass" : "message",
					"numinlets" : 2,
					"numoutlets" : 1,
					"outlettype" : [ "" ],
					"patching_rect" : [ 538.333374, 467.833313, 73.0, 22.0 ],
					"style" : "",
					"text" : "/pitch $1 $2"
				}

			}
, 			{
				"box" : 				{
					"fontname" : "Arial",
					"fontsize" : 12.0,
					"id" : "obj-37",
					"maxclass" : "newobj",
					"numinlets" : 2,
					"numoutlets" : 1,
					"outlettype" : [ "" ],
					"patching_rect" : [ 706.949951, 611.5, 29.5, 22.0 ],
					"style" : "",
					"text" : "join"
				}

			}
, 			{
				"box" : 				{
					"fontname" : "Arial",
					"fontsize" : 12.0,
					"id" : "obj-33",
					"maxclass" : "message",
					"numinlets" : 2,
					"numoutlets" : 1,
					"outlettype" : [ "" ],
					"patching_rect" : [ 788.0, 518.333313, 41.0, 22.0 ],
					"style" : "",
					"text" : "$2 $3"
				}

			}
, 			{
				"box" : 				{
					"fontname" : "Arial",
					"fontsize" : 12.0,
					"id" : "obj-26",
					"maxclass" : "newobj",
					"numinlets" : 1,
					"numoutlets" : 3,
					"outlettype" : [ "bang", "", "" ],
					"patching_rect" : [ 701.699951, 465.333313, 40.0, 22.0 ],
					"style" : "",
					"text" : "t b l l"
				}

			}
, 			{
				"box" : 				{
					"fontname" : "Arial",
					"fontsize" : 12.0,
					"id" : "obj-18",
					"maxclass" : "message",
					"numinlets" : 2,
					"numoutlets" : 1,
					"outlettype" : [ "" ],
					"patching_rect" : [ 726.5, 518.333313, 32.5, 22.0 ],
					"style" : "",
					"text" : "$1"
				}

			}
, 			{
				"box" : 				{
					"fontname" : "Arial",
					"fontsize" : 12.0,
					"id" : "obj-3",
					"maxclass" : "newobj",
					"numinlets" : 3,
					"numoutlets" : 2,
					"outlettype" : [ "", "" ],
					"patching_rect" : [ 635.0, 556.0, 124.0, 22.0 ],
					"style" : "",
					"text" : "combine /sines / num"
				}

			}
, 			{
				"box" : 				{
					"fontname" : "Arial",
					"fontsize" : 12.0,
					"id" : "obj-16",
					"maxclass" : "newobj",
					"numinlets" : 1,
					"numoutlets" : 2,
					"outlettype" : [ "bang", "" ],
					"patching_rect" : [ 257.0, 774.333313, 30.0, 22.0 ],
					"style" : "",
					"text" : "t b l"
				}

			}
, 			{
				"box" : 				{
					"id" : "obj-14",
					"maxclass" : "button",
					"numinlets" : 1,
					"numoutlets" : 1,
					"outlettype" : [ "bang" ],
					"patching_rect" : [ 245.75, 829.0, 24.0, 24.0 ],
					"style" : ""
				}

			}
, 			{
				"box" : 				{
					"fontname" : "Arial",
					"fontsize" : 12.0,
					"id" : "obj-15",
					"maxclass" : "newobj",
					"numinlets" : 1,
					"numoutlets" : 3,
					"outlettype" : [ "", "", "OSCTimeTag" ],
					"patching_rect" : [ 346.833344, 841.333313, 113.0, 22.0 ],
					"style" : "",
					"text" : "OpenSoundControl"
				}

			}
, 			{
				"box" : 				{
					"fontname" : "Arial",
					"fontsize" : 9.0,
					"id" : "obj-36",
					"maxclass" : "newobj",
					"numinlets" : 1,
					"numoutlets" : 0,
					"patching_rect" : [ 440.833344, 951.166687, 108.0, 19.0 ],
					"style" : "",
					"text" : "udpsend 127.0.0.1 7400"
				}

			}
, 			{
				"box" : 				{
					"id" : "obj-7",
					"maxclass" : "button",
					"numinlets" : 1,
					"numoutlets" : 1,
					"outlettype" : [ "bang" ],
					"patching_rect" : [ 439.333344, 435.333313, 15.0, 15.0 ],
					"style" : ""
				}

			}
, 			{
				"box" : 				{
					"fontname" : "Geneva",
					"fontsize" : 9.0,
					"id" : "obj-8",
					"maxclass" : "comment",
					"numinlets" : 1,
					"numoutlets" : 0,
					"patching_rect" : [ 280.333344, 640.333313, 51.0, 17.0 ],
					"style" : "",
					"text" : "Noisiness"
				}

			}
, 			{
				"box" : 				{
					"fontname" : "Geneva",
					"fontsize" : 9.0,
					"id" : "obj-9",
					"maxclass" : "comment",
					"numinlets" : 1,
					"numoutlets" : 0,
					"patching_rect" : [ 226.333328, 640.333313, 54.0, 17.0 ],
					"style" : "",
					"text" : "Brightness"
				}

			}
, 			{
				"box" : 				{
					"bgcolor" : [ 0.866667, 0.866667, 0.866667, 1.0 ],
					"fontname" : "Geneva",
					"fontsize" : 9.0,
					"format" : 6,
					"htricolor" : [ 0.87, 0.82, 0.24, 1.0 ],
					"id" : "obj-10",
					"maxclass" : "flonum",
					"numinlets" : 1,
					"numoutlets" : 2,
					"outlettype" : [ "", "bang" ],
					"parameter_enable" : 0,
					"patching_rect" : [ 281.333344, 622.333313, 49.0, 19.0 ],
					"style" : "",
					"textcolor" : [ 0.0, 0.0, 0.0, 1.0 ],
					"tricolor" : [ 0.75, 0.75, 0.75, 1.0 ],
					"triscale" : 0.9
				}

			}
, 			{
				"box" : 				{
					"bgcolor" : [ 0.866667, 0.866667, 0.866667, 1.0 ],
					"fontname" : "Geneva",
					"fontsize" : 9.0,
					"format" : 6,
					"htricolor" : [ 0.87, 0.82, 0.24, 1.0 ],
					"id" : "obj-11",
					"maxclass" : "flonum",
					"numinlets" : 1,
					"numoutlets" : 2,
					"outlettype" : [ "", "bang" ],
					"parameter_enable" : 0,
					"patching_rect" : [ 229.333328, 622.333313, 49.0, 19.0 ],
					"style" : "",
					"textcolor" : [ 0.0, 0.0, 0.0, 1.0 ],
					"tricolor" : [ 0.75, 0.75, 0.75, 1.0 ],
					"triscale" : 0.9
				}

			}
, 			{
				"box" : 				{
					"bgcolor" : [ 0.866667, 0.866667, 0.866667, 1.0 ],
					"fontname" : "Geneva",
					"fontsize" : 9.0,
					"format" : 6,
					"htricolor" : [ 0.87, 0.82, 0.24, 1.0 ],
					"id" : "obj-12",
					"maxclass" : "flonum",
					"numinlets" : 1,
					"numoutlets" : 2,
					"outlettype" : [ "", "bang" ],
					"parameter_enable" : 0,
					"patching_rect" : [ 177.333328, 622.333313, 49.0, 19.0 ],
					"style" : "",
					"textcolor" : [ 0.0, 0.0, 0.0, 1.0 ],
					"tricolor" : [ 0.75, 0.75, 0.75, 1.0 ],
					"triscale" : 0.9
				}

			}
, 			{
				"box" : 				{
					"bgcolor" : [ 0.866667, 0.866667, 0.866667, 1.0 ],
					"fontname" : "Geneva",
					"fontsize" : 9.0,
					"format" : 6,
					"htricolor" : [ 0.87, 0.82, 0.24, 1.0 ],
					"id" : "obj-84",
					"maxclass" : "flonum",
					"numinlets" : 1,
					"numoutlets" : 2,
					"outlettype" : [ "", "bang" ],
					"parameter_enable" : 0,
					"patching_rect" : [ 119.333336, 710.333313, 49.0, 19.0 ],
					"style" : "",
					"textcolor" : [ 0.0, 0.0, 0.0, 1.0 ],
					"tricolor" : [ 0.75, 0.75, 0.75, 1.0 ],
					"triscale" : 0.9
				}

			}
, 			{
				"box" : 				{
					"bgcolor" : [ 0.866667, 0.866667, 0.866667, 1.0 ],
					"fontname" : "Geneva",
					"fontsize" : 9.0,
					"format" : 6,
					"htricolor" : [ 0.87, 0.82, 0.24, 1.0 ],
					"id" : "obj-85",
					"maxclass" : "flonum",
					"numinlets" : 1,
					"numoutlets" : 2,
					"outlettype" : [ "", "bang" ],
					"parameter_enable" : 0,
					"patching_rect" : [ 67.333336, 710.333313, 49.0, 19.0 ],
					"style" : "",
					"textcolor" : [ 0.0, 0.0, 0.0, 1.0 ],
					"tricolor" : [ 0.75, 0.75, 0.75, 1.0 ],
					"triscale" : 0.9
				}

			}
, 			{
				"box" : 				{
					"fontname" : "Geneva",
					"fontsize" : 9.0,
					"id" : "obj-86",
					"linecount" : 2,
					"maxclass" : "newobj",
					"numinlets" : 1,
					"numoutlets" : 2,
					"outlettype" : [ "float", "float" ],
					"patching_rect" : [ 67.333336, 688.333313, 56.0, 29.0 ],
					"style" : "",
					"text" : "unpack 0. 0."
				}

			}
, 			{
				"box" : 				{
					"fontname" : "Arial",
					"fontsize" : 9.0,
					"id" : "obj-117",
					"linecount" : 2,
					"maxclass" : "newobj",
					"numinlets" : 1,
					"numoutlets" : 9,
					"outlettype" : [ "list", "float", "float", "float", "list", "bang", "list", "list", "FullPacket" ],
					"patching_rect" : [ 49.333344, 286.333313, 567.0, 29.0 ],
					"style" : "",
					"text" : "analyzer~ @buffersize 2048 @hopsize 512 @fftsize 4096 @windowtype blackman70 @initialdelay 0 @numpitches 1 @numpeakstofind 20 @numpeakstooutput 20 @barkformat list"
				}

			}
, 			{
				"box" : 				{
					"fontname" : "Geneva",
					"fontsize" : 9.0,
					"id" : "obj-123",
					"maxclass" : "comment",
					"numinlets" : 1,
					"numoutlets" : 0,
					"patching_rect" : [ 119.333336, 729.333313, 52.0, 17.0 ],
					"style" : "",
					"text" : "Pitch (Hz)"
				}

			}
, 			{
				"box" : 				{
					"fontname" : "Geneva",
					"fontsize" : 9.0,
					"id" : "obj-125",
					"linecount" : 2,
					"maxclass" : "comment",
					"numinlets" : 1,
					"numoutlets" : 0,
					"patching_rect" : [ 80.333336, 673.333313, 36.0, 27.0 ],
					"style" : "",
					"text" : "Cooked"
				}

			}
, 			{
				"box" : 				{
					"fontname" : "Geneva",
					"fontsize" : 9.0,
					"id" : "obj-127",
					"linecount" : 2,
					"maxclass" : "comment",
					"numinlets" : 1,
					"numoutlets" : 0,
					"patching_rect" : [ 430.333344, 453.333313, 33.0, 27.0 ],
					"style" : "",
					"text" : "Attack"
				}

			}
, 			{
				"box" : 				{
					"fontname" : "Geneva",
					"fontsize" : 9.0,
					"id" : "obj-130",
					"linecount" : 2,
					"maxclass" : "comment",
					"numinlets" : 1,
					"numoutlets" : 0,
					"patching_rect" : [ 177.333328, 640.333313, 46.0, 27.0 ],
					"style" : "",
					"text" : "Loudness"
				}

			}
, 			{
				"box" : 				{
					"fontname" : "Geneva",
					"fontsize" : 9.0,
					"id" : "obj-132",
					"linecount" : 2,
					"maxclass" : "comment",
					"numinlets" : 1,
					"numoutlets" : 0,
					"patching_rect" : [ 332.333344, 640.333313, 26.0, 27.0 ],
					"style" : "",
					"text" : "Bark"
				}

			}
, 			{
				"box" : 				{
					"id" : "obj-5",
					"maxclass" : "live.gain~",
					"numinlets" : 2,
					"numoutlets" : 5,
					"outlettype" : [ "signal", "signal", "", "float", "list" ],
					"parameter_enable" : 1,
					"patching_rect" : [ 44.333336, 144.0, 79.0, 93.0 ],
					"saved_attribute_attributes" : 					{
						"valueof" : 						{
							"parameter_longname" : "live.gain~",
							"parameter_shortname" : "live.gain~",
							"parameter_type" : 0,
							"parameter_mmin" : -70.0,
							"parameter_mmax" : 6.0,
							"parameter_initial" : [ 0.0 ],
							"parameter_unitstyle" : 4
						}

					}
,
					"varname" : "live.gain~"
				}

			}
, 			{
				"box" : 				{
					"fontname" : "Arial",
					"fontsize" : 12.0,
					"id" : "obj-2",
					"maxclass" : "newobj",
					"numinlets" : 1,
					"numoutlets" : 16,
					"outlettype" : [ "signal", "signal", "signal", "signal", "signal", "signal", "signal", "signal", "signal", "signal", "signal", "signal", "signal", "signal", "signal", "signal" ],
					"patching_rect" : [ 49.333344, 48.0, 243.0, 22.0 ],
					"style" : "",
					"text" : "adc~ 1 2 3 4 5 6 7 8 9 10 11 12 13 14 15 16"
				}

			}
 ],
		"lines" : [ 			{
				"patchline" : 				{
					"destination" : [ "obj-10", 0 ],
					"disabled" : 0,
					"hidden" : 0,
					"source" : [ "obj-117", 3 ]
				}

			}
, 			{
				"patchline" : 				{
					"destination" : [ "obj-11", 0 ],
					"disabled" : 0,
					"hidden" : 0,
					"source" : [ "obj-117", 2 ]
				}

			}
, 			{
				"patchline" : 				{
					"destination" : [ "obj-12", 0 ],
					"disabled" : 0,
					"hidden" : 0,
					"source" : [ "obj-117", 1 ]
				}

			}
, 			{
				"patchline" : 				{
					"destination" : [ "obj-22", 0 ],
					"disabled" : 0,
					"hidden" : 0,
					"source" : [ "obj-117", 6 ]
				}

			}
, 			{
				"patchline" : 				{
					"destination" : [ "obj-26", 0 ],
					"disabled" : 0,
					"hidden" : 0,
					"source" : [ "obj-117", 7 ]
				}

			}
, 			{
				"patchline" : 				{
					"destination" : [ "obj-36", 0 ],
					"disabled" : 0,
					"hidden" : 0,
					"source" : [ "obj-117", 8 ]
				}

			}
, 			{
				"patchline" : 				{
					"destination" : [ "obj-7", 0 ],
					"disabled" : 0,
					"hidden" : 0,
					"source" : [ "obj-117", 5 ]
				}

			}
, 			{
				"patchline" : 				{
					"destination" : [ "obj-86", 0 ],
					"disabled" : 0,
					"hidden" : 0,
					"midpoints" : [ 58.833344, 663.333313, 76.833336, 663.333313 ],
					"source" : [ "obj-117", 0 ]
				}

			}
, 			{
				"patchline" : 				{
					"destination" : [ "obj-15", 0 ],
					"disabled" : 0,
					"hidden" : 0,
					"source" : [ "obj-14", 0 ]
				}

			}
, 			{
				"patchline" : 				{
					"destination" : [ "obj-36", 0 ],
					"disabled" : 0,
					"hidden" : 0,
					"source" : [ "obj-15", 0 ]
				}

			}
, 			{
				"patchline" : 				{
					"destination" : [ "obj-14", 0 ],
					"disabled" : 0,
					"hidden" : 0,
					"source" : [ "obj-16", 0 ]
				}

			}
, 			{
				"patchline" : 				{
					"destination" : [ "obj-15", 0 ],
					"disabled" : 0,
					"hidden" : 0,
					"source" : [ "obj-16", 1 ]
				}

			}
, 			{
				"patchline" : 				{
					"destination" : [ "obj-3", 2 ],
					"disabled" : 0,
					"hidden" : 0,
					"source" : [ "obj-18", 0 ]
				}

			}
, 			{
				"patchline" : 				{
					"destination" : [ "obj-5", 0 ],
					"disabled" : 0,
					"hidden" : 0,
					"source" : [ "obj-2", 0 ]
				}

			}
, 			{
				"patchline" : 				{
					"destination" : [ "obj-15", 0 ],
					"disabled" : 0,
					"hidden" : 0,
					"source" : [ "obj-22", 0 ]
				}

			}
, 			{
				"patchline" : 				{
					"destination" : [ "obj-15", 0 ],
					"disabled" : 0,
					"hidden" : 0,
					"source" : [ "obj-25", 0 ]
				}

			}
, 			{
				"patchline" : 				{
					"destination" : [ "obj-18", 0 ],
					"disabled" : 0,
					"hidden" : 0,
					"source" : [ "obj-26", 1 ]
				}

			}
, 			{
				"patchline" : 				{
					"destination" : [ "obj-3", 0 ],
					"disabled" : 0,
					"hidden" : 0,
					"source" : [ "obj-26", 0 ]
				}

			}
, 			{
				"patchline" : 				{
					"destination" : [ "obj-33", 0 ],
					"disabled" : 0,
					"hidden" : 0,
					"source" : [ "obj-26", 2 ]
				}

			}
, 			{
				"patchline" : 				{
					"destination" : [ "obj-28", 0 ],
					"disabled" : 0,
					"hidden" : 0,
					"source" : [ "obj-27", 0 ]
				}

			}
, 			{
				"patchline" : 				{
					"destination" : [ "obj-15", 0 ],
					"disabled" : 0,
					"hidden" : 0,
					"source" : [ "obj-28", 0 ]
				}

			}
, 			{
				"patchline" : 				{
					"destination" : [ "obj-37", 0 ],
					"disabled" : 0,
					"hidden" : 0,
					"source" : [ "obj-3", 0 ]
				}

			}
, 			{
				"patchline" : 				{
					"destination" : [ "obj-37", 1 ],
					"disabled" : 0,
					"hidden" : 0,
					"source" : [ "obj-33", 0 ]
				}

			}
, 			{
				"patchline" : 				{
					"destination" : [ "obj-16", 0 ],
					"disabled" : 0,
					"hidden" : 0,
					"source" : [ "obj-37", 0 ]
				}

			}
, 			{
				"patchline" : 				{
					"destination" : [ "obj-117", 0 ],
					"disabled" : 0,
					"hidden" : 0,
					"source" : [ "obj-5", 0 ]
				}

			}
, 			{
				"patchline" : 				{
					"destination" : [ "obj-25", 0 ],
					"disabled" : 0,
					"hidden" : 0,
					"source" : [ "obj-7", 0 ]
				}

			}
, 			{
				"patchline" : 				{
					"destination" : [ "obj-27", 0 ],
					"disabled" : 0,
					"hidden" : 0,
					"source" : [ "obj-7", 0 ]
				}

			}
, 			{
				"patchline" : 				{
					"destination" : [ "obj-84", 0 ],
					"disabled" : 0,
					"hidden" : 0,
					"source" : [ "obj-86", 1 ]
				}

			}
, 			{
				"patchline" : 				{
					"destination" : [ "obj-85", 0 ],
					"disabled" : 0,
					"hidden" : 0,
					"source" : [ "obj-86", 0 ]
				}

			}
 ],
		"parameters" : 		{
			"obj-5" : [ "live.gain~", "live.gain~", 0 ]
		}
,
		"dependency_cache" : [ 			{
				"name" : "analyzer~.mxe",
				"type" : "iLaF"
			}
, 			{
				"name" : "OpenSoundControl.mxe",
				"type" : "iLaF"
			}
 ],
		"embedsnapshot" : 0
	}

}
