{
	"patcher" : 	{
		"fileversion" : 1,
		"appversion" : 		{
			"major" : 8,
			"minor" : 1,
			"revision" : 8,
			"architecture" : "x64",
			"modernui" : 1
		}
,
		"classnamespace" : "box",
		"rect" : [ 34.0, 77.0, 2621.0, 1041.0 ],
		"bglocked" : 0,
		"openinpresentation" : 1,
		"default_fontsize" : 20.0,
		"default_fontface" : 0,
		"default_fontname" : "Fira Code",
		"gridonopen" : 1,
		"gridsize" : [ 15.0, 15.0 ],
		"gridsnaponopen" : 1,
		"objectsnaponopen" : 1,
		"statusbarvisible" : 2,
		"toolbarvisible" : 1,
		"lefttoolbarpinned" : 0,
		"toptoolbarpinned" : 0,
		"righttoolbarpinned" : 0,
		"bottomtoolbarpinned" : 0,
		"toolbars_unpinned_last_save" : 0,
		"tallnewobj" : 0,
		"boxanimatetime" : 200,
		"enablehscroll" : 1,
		"enablevscroll" : 1,
		"devicewidth" : 0.0,
		"description" : "",
		"digest" : "",
		"tags" : "",
		"style" : "PupleStyle",
		"subpatcher_template" : "PurpleTemplate2018",
		"assistshowspatchername" : 0,
		"boxes" : [ 			{
				"box" : 				{
					"id" : "obj-28",
					"maxclass" : "newobj",
					"numinlets" : 1,
					"numoutlets" : 1,
					"outlettype" : [ "" ],
					"patching_rect" : [ 489.0, 518.0, 151.0, 33.0 ],
					"text" : "prepend /beat"
				}

			}
, 			{
				"box" : 				{
					"id" : "obj-19",
					"maxclass" : "message",
					"numinlets" : 2,
					"numoutlets" : 1,
					"outlettype" : [ "" ],
					"patching_rect" : [ 1588.0, 494.0, 232.0, 33.0 ],
					"text" : "/midiSeq/clear"
				}

			}
, 			{
				"box" : 				{
					"id" : "obj-12",
					"maxclass" : "comment",
					"numinlets" : 1,
					"numoutlets" : 0,
					"patching_rect" : [ 1341.0, 1295.307714462280273, 220.192291259765625, 31.0 ],
					"text" : "DAVID_BOWMAN"
				}

			}
, 			{
				"box" : 				{
					"id" : "obj-9",
					"maxclass" : "comment",
					"numinlets" : 1,
					"numoutlets" : 0,
					"patching_rect" : [ 1441.0, 1208.0, 219.346141815185547, 31.0 ],
					"text" : "aframe-musicality"
				}

			}
, 			{
				"box" : 				{
					"id" : "obj-7",
					"maxclass" : "newobj",
					"numinlets" : 1,
					"numoutlets" : 1,
					"outlettype" : [ "" ],
					"patching_rect" : [ 1268.846141815185547, 1189.0, 50.0, 33.0 ],
					"text" : "thru"
				}

			}
, 			{
				"box" : 				{
					"id" : "obj-5",
					"maxclass" : "newobj",
					"numinlets" : 1,
					"numoutlets" : 0,
					"patching_rect" : [ 1417.192291259765625, 1239.0, 284.0, 33.0 ],
					"text" : "udpsend localhost 41234"
				}

			}
, 			{
				"box" : 				{
					"id" : "obj-2",
					"maxclass" : "newobj",
					"numinlets" : 1,
					"numoutlets" : 0,
					"patching_rect" : [ 1316.846141815185547, 1324.307714462280273, 295.0, 33.0 ],
					"text" : "udpsend 192.168.1.15 9004"
				}

			}
, 			{
				"box" : 				{
					"id" : "obj-4",
					"maxclass" : "message",
					"numinlets" : 2,
					"numoutlets" : 1,
					"outlettype" : [ "" ],
					"patching_rect" : [ 944.0, 886.0, 147.0, 33.0 ],
					"text" : "fn1"
				}

			}
, 			{
				"box" : 				{
					"id" : "obj-46",
					"maxclass" : "number",
					"numinlets" : 1,
					"numoutlets" : 2,
					"outlettype" : [ "", "bang" ],
					"parameter_enable" : 0,
					"patching_rect" : [ 1878.0, 1033.0, 50.0, 33.0 ]
				}

			}
, 			{
				"box" : 				{
					"id" : "obj-38",
					"maxclass" : "button",
					"numinlets" : 1,
					"numoutlets" : 1,
					"outlettype" : [ "bang" ],
					"parameter_enable" : 0,
					"patching_rect" : [ 1075.0, 387.0, 24.0, 24.0 ]
				}

			}
, 			{
				"box" : 				{
					"id" : "obj-36",
					"maxclass" : "newobj",
					"numinlets" : 1,
					"numoutlets" : 1,
					"outlettype" : [ "bang" ],
					"patching_rect" : [ 1033.0, 434.0, 107.0, 33.0 ],
					"text" : "loadbang"
				}

			}
, 			{
				"box" : 				{
					"id" : "obj-34",
					"maxclass" : "message",
					"numinlets" : 2,
					"numoutlets" : 1,
					"outlettype" : [ "" ],
					"patching_rect" : [ 1038.0, 1078.000036239624023, 142.0, 33.0 ],
					"text" : "61 65 68"
				}

			}
, 			{
				"box" : 				{
					"id" : "obj-32",
					"maxclass" : "newobj",
					"numinlets" : 2,
					"numoutlets" : 2,
					"outlettype" : [ "", "" ],
					"patching_rect" : [ 1038.0, 995.0, 119.0, 33.0 ],
					"text" : "zl.delace"
				}

			}
, 			{
				"box" : 				{
					"id" : "obj-20",
					"maxclass" : "message",
					"numinlets" : 2,
					"numoutlets" : 1,
					"outlettype" : [ "" ],
					"patching_rect" : [ 931.0, 995.0, 70.0, 33.0 ],
					"text" : "clear"
				}

			}
, 			{
				"box" : 				{
					"id" : "obj-210",
					"maxclass" : "newobj",
					"numinlets" : 1,
					"numoutlets" : 5,
					"outlettype" : [ "", "", "", "", "" ],
					"patching_rect" : [ 1004.192291259765625, 804.000036239624023, 353.0, 33.0 ],
					"text" : "regexp \"\\\\d+::\\\\d+::fn (.+)\""
				}

			}
, 			{
				"box" : 				{
					"id" : "obj-209",
					"maxclass" : "newobj",
					"numinlets" : 1,
					"numoutlets" : 1,
					"outlettype" : [ "" ],
					"patching_rect" : [ 1889.0, 936.000036239624023, 144.0, 33.0 ],
					"text" : "prepend /cc"
				}

			}
, 			{
				"box" : 				{
					"id" : "obj-201",
					"maxclass" : "newobj",
					"numinlets" : 1,
					"numoutlets" : 1,
					"outlettype" : [ "" ],
					"patching_rect" : [ 1854.192291259765625, 778.000036239624023, 132.0, 33.0 ],
					"text" : "fromsymbol"
				}

			}
, 			{
				"box" : 				{
					"id" : "obj-202",
					"maxclass" : "newobj",
					"numinlets" : 1,
					"numoutlets" : 5,
					"outlettype" : [ "", "", "", "", "" ],
					"patching_rect" : [ 1777.192291259765625, 731.000036239624023, 353.0, 33.0 ],
					"text" : "regexp \"\\\\d+::\\\\d+::cc (.+)\""
				}

			}
, 			{
				"box" : 				{
					"id" : "obj-203",
					"maxclass" : "newobj",
					"numinlets" : 2,
					"numoutlets" : 2,
					"outlettype" : [ "", "" ],
					"patching_rect" : [ 1854.192291259765625, 825.0, 132.0, 33.0 ],
					"text" : "zl.group 2"
				}

			}
, 			{
				"box" : 				{
					"id" : "obj-200",
					"maxclass" : "newobj",
					"numinlets" : 1,
					"numoutlets" : 1,
					"outlettype" : [ "" ],
					"patching_rect" : [ 1428.0, 947.000036239624023, 168.0, 33.0 ],
					"text" : "prepend /midi"
				}

			}
, 			{
				"box" : 				{
					"id" : "obj-192",
					"maxclass" : "newobj",
					"numinlets" : 1,
					"numoutlets" : 1,
					"outlettype" : [ "" ],
					"patching_rect" : [ 1428.192291259765625, 778.000036239624023, 132.0, 33.0 ],
					"text" : "fromsymbol"
				}

			}
, 			{
				"box" : 				{
					"id" : "obj-187",
					"maxclass" : "newobj",
					"numinlets" : 1,
					"numoutlets" : 5,
					"outlettype" : [ "", "", "", "", "" ],
					"patching_rect" : [ 1351.192291259765625, 731.000036239624023, 378.0, 33.0 ],
					"text" : "regexp \"\\\\d+::\\\\d+::note (.+)\""
				}

			}
, 			{
				"box" : 				{
					"id" : "obj-184",
					"maxclass" : "newobj",
					"numinlets" : 2,
					"numoutlets" : 2,
					"outlettype" : [ "", "" ],
					"patching_rect" : [ 1428.192291259765625, 825.0, 132.0, 33.0 ],
					"text" : "zl.group 2"
				}

			}
, 			{
				"box" : 				{
					"id" : "obj-169",
					"linecount" : 2,
					"maxclass" : "comment",
					"numinlets" : 1,
					"numoutlets" : 0,
					"patching_rect" : [ 1601.807676315307617, 866.500036239624023, 212.0, 55.0 ],
					"text" : "TODO: schedule note-off"
				}

			}
, 			{
				"box" : 				{
					"id" : "obj-173",
					"maxclass" : "newobj",
					"numinlets" : 1,
					"numoutlets" : 0,
					"patching_rect" : [ 1268.846141815185547, 1376.307714462280273, 247.0, 33.0 ],
					"text" : "udpsend localhost 9004"
				}

			}
, 			{
				"box" : 				{
					"id" : "obj-174",
					"maxclass" : "message",
					"numinlets" : 2,
					"numoutlets" : 1,
					"outlettype" : [ "" ],
					"patching_rect" : [ 1560.846141815185547, 1036.000036239624023, 58.0, 33.0 ],
					"text" : "$1 0"
				}

			}
, 			{
				"box" : 				{
					"id" : "obj-175",
					"maxclass" : "button",
					"numinlets" : 1,
					"numoutlets" : 1,
					"outlettype" : [ "bang" ],
					"parameter_enable" : 0,
					"patching_rect" : [ 1632.346141815185547, 1078.000036239624023, 24.0, 24.0 ]
				}

			}
, 			{
				"box" : 				{
					"id" : "obj-176",
					"maxclass" : "message",
					"numinlets" : 2,
					"numoutlets" : 1,
					"outlettype" : [ "" ],
					"patching_rect" : [ 1632.346141815185547, 1036.000036239624023, 132.0, 33.0 ],
					"text" : "/midi $1 0"
				}

			}
, 			{
				"box" : 				{
					"id" : "obj-177",
					"maxclass" : "newobj",
					"numinlets" : 2,
					"numoutlets" : 1,
					"outlettype" : [ "" ],
					"patching_rect" : [ 1632.346141815185547, 974.000036239624023, 119.0, 33.0 ],
					"text" : "pipe 1000"
				}

			}
, 			{
				"box" : 				{
					"id" : "obj-178",
					"maxclass" : "newobj",
					"numinlets" : 1,
					"numoutlets" : 2,
					"outlettype" : [ "int", "int" ],
					"patching_rect" : [ 1610.346145629882813, 923.500036239624023, 82.0, 33.0 ],
					"text" : "unpack"
				}

			}
, 			{
				"box" : 				{
					"fontface" : 0,
					"fontname" : "Arial",
					"fontsize" : 13.0,
					"id" : "obj-179",
					"items" : [ "1nd", ",", "1n", ",", "1nt", ",", "2nd", ",", "2n", ",", "2nt", ",", "4nd", ",", "4n", ",", "4nt", ",", "8nd", ",", "8n", ",", "8nt", ",", "16nd", ",", "16n", ",", "16nt", ",", "32nd", ",", "32n", ",", "32nt", ",", "64nd", ",", "64n", ",", "128nd", ",", "128n" ],
					"maxclass" : "umenu",
					"numinlets" : 1,
					"numoutlets" : 3,
					"outlettype" : [ "int", "", "" ],
					"parameter_enable" : 0,
					"patching_rect" : [ 1708.846141815185547, 936.000036239624023, 100.0, 23.0 ],
					"presentation" : 1,
					"presentation_rect" : [ 229.861593186855316, 240.44232177734375, 100.0, 23.0 ]
				}

			}
, 			{
				"box" : 				{
					"id" : "obj-180",
					"maxclass" : "newobj",
					"numinlets" : 7,
					"numoutlets" : 2,
					"outlettype" : [ "int", "" ],
					"patching_rect" : [ 1748.846141815185547, 1293.307714462280273, 132.0, 33.0 ],
					"text" : "midiformat"
				}

			}
, 			{
				"box" : 				{
					"id" : "obj-181",
					"maxclass" : "message",
					"numinlets" : 2,
					"numoutlets" : 1,
					"outlettype" : [ "" ],
					"patching_rect" : [ 1223.192291259765625, 923.500036239624023, 82.0, 33.0 ],
					"text" : "/fn $1"
				}

			}
, 			{
				"box" : 				{
					"id" : "obj-183",
					"maxclass" : "newobj",
					"numinlets" : 1,
					"numoutlets" : 0,
					"patching_rect" : [ 1748.846141815185547, 1338.307714462280273, 390.0, 33.0 ],
					"text" : "midi-out-loopmidi-max-sequencer"
				}

			}
, 			{
				"box" : 				{
					"id" : "obj-168",
					"maxclass" : "newobj",
					"numinlets" : 3,
					"numoutlets" : 1,
					"outlettype" : [ "" ],
					"patching_rect" : [ 701.846227645874023, 642.0, 329.0, 33.0 ],
					"text" : "reaper-osc-seq-dict-get fn"
				}

			}
, 			{
				"box" : 				{
					"id" : "obj-167",
					"maxclass" : "newobj",
					"numinlets" : 3,
					"numoutlets" : 1,
					"outlettype" : [ "" ],
					"patching_rect" : [ 725.846227645874023, 597.0, 329.0, 33.0 ],
					"text" : "reaper-osc-seq-dict-get cc"
				}

			}
, 			{
				"box" : 				{
					"id" : "obj-145",
					"maxclass" : "newobj",
					"numinlets" : 3,
					"numoutlets" : 1,
					"outlettype" : [ "" ],
					"patching_rect" : [ 790.846227645874023, 553.0, 353.0, 33.0 ],
					"text" : "reaper-osc-seq-dict-get note"
				}

			}
, 			{
				"box" : 				{
					"id" : "obj-139",
					"maxclass" : "newobj",
					"numinlets" : 1,
					"numoutlets" : 1,
					"outlettype" : [ "" ],
					"patching_rect" : [ 1237.346145629882813, 391.615407943725586, 329.0, 33.0 ],
					"text" : "reaper-osc-seq-dict-set fn"
				}

			}
, 			{
				"box" : 				{
					"id" : "obj-136",
					"maxclass" : "newobj",
					"numinlets" : 1,
					"numoutlets" : 1,
					"outlettype" : [ "" ],
					"patching_rect" : [ 1237.346145629882813, 337.807729721069336, 329.0, 33.0 ],
					"text" : "reaper-osc-seq-dict-set cc"
				}

			}
, 			{
				"box" : 				{
					"id" : "obj-133",
					"maxclass" : "newobj",
					"numinlets" : 1,
					"numoutlets" : 1,
					"outlettype" : [ "" ],
					"patching_rect" : [ 1237.346145629882813, 284.307693481445313, 353.0, 33.0 ],
					"text" : "reaper-osc-seq-dict-set note"
				}

			}
, 			{
				"box" : 				{
					"id" : "obj-104",
					"maxclass" : "newobj",
					"numinlets" : 1,
					"numoutlets" : 5,
					"outlettype" : [ "", "", "", "", "" ],
					"patching_rect" : [ 1259.346145629882813, 170.461572647094727, 378.0, 33.0 ],
					"text" : "OSC-route /note /cc /fn /clear"
				}

			}
, 			{
				"box" : 				{
					"id" : "obj-100",
					"maxclass" : "message",
					"numinlets" : 2,
					"numoutlets" : 1,
					"outlettype" : [ "" ],
					"patching_rect" : [ 1584.346145629882813, 350.710183598082722, 70.0, 33.0 ],
					"text" : "clear"
				}

			}
, 			{
				"box" : 				{
					"id" : "obj-35",
					"linecount" : 2,
					"maxclass" : "comment",
					"numinlets" : 1,
					"numoutlets" : 0,
					"patching_rect" : [ 641.076961517333984, 80.000019073486328, 584.461475372314453, 55.0 ],
					"text" : "In Reaper, BPM is all that matters. For jazz feel, set BPM to x3 and set TS here to 12/8."
				}

			}
, 			{
				"box" : 				{
					"fontsize" : 11.867890540877747,
					"id" : "obj-27",
					"linecount" : 2,
					"maxclass" : "comment",
					"numinlets" : 1,
					"numoutlets" : 0,
					"patching_rect" : [ 1303.807676315307617, 525.487231731414795, 162.076938629150391, 35.0 ],
					"text" : "https://x37v.com/x37v/max/dict-object/"
				}

			}
, 			{
				"box" : 				{
					"id" : "obj-14",
					"maxclass" : "newobj",
					"numinlets" : 2,
					"numoutlets" : 4,
					"outlettype" : [ "dictionary", "", "", "" ],
					"patching_rect" : [ 1141.192291259765625, 525.487231731414795, 156.0, 33.0 ],
					"saved_object_attributes" : 					{
						"embed" : 0,
						"parameter_enable" : 0,
						"parameter_mappable" : 0
					}
,
					"text" : "dict measure"
				}

			}
, 			{
				"box" : 				{
					"bgcolor" : [ 0.0, 0.0, 0.0, 0.423529411764706 ],
					"id" : "obj-15",
					"maxclass" : "dict.view",
					"numinlets" : 1,
					"numoutlets" : 0,
					"patching_rect" : [ 563.846227645874023, 829.807714462280273, 278.0, 496.5 ],
					"presentation" : 1,
					"presentation_rect" : [ 352.153858184814453, 3.69232177734375, 411.846166610717773, 496.5 ],
					"stripecolor" : [ 0.996078431372549, 0.996078431372549, 0.996078431372549, 0.02 ]
				}

			}
, 			{
				"box" : 				{
					"id" : "obj-13",
					"maxclass" : "comment",
					"numinlets" : 1,
					"numoutlets" : 0,
					"patching_rect" : [ 1259.346145629882813, 20.538475036621094, 391.538484573364258, 31.0 ],
					"text" : "Receive OSC sequencer commands"
				}

			}
, 			{
				"box" : 				{
					"args" : [ 12, 8 ],
					"bgmode" : 0,
					"border" : 0,
					"clickthrough" : 0,
					"enablehscroll" : 0,
					"enablevscroll" : 0,
					"id" : "obj-10",
					"lockeddragscroll" : 0,
					"maxclass" : "bpatcher",
					"name" : "MIDI-sync.maxpat",
					"numinlets" : 0,
					"numoutlets" : 2,
					"offset" : [ 0.0, 0.0 ],
					"outlettype" : [ "", "" ],
					"patching_rect" : [ 683.846141815185547, 145.871848583221436, 283.0, 221.0 ],
					"presentation" : 1,
					"presentation_rect" : [ 5.846139907836914, -10.55767822265625, 283.0, 221.0 ],
					"viewvisibility" : 1
				}

			}
, 			{
				"box" : 				{
					"bgcolor" : [ 1.0, 1.0, 1.0, 0.0 ],
					"bordercolor" : [ 0.996078431372549, 0.996078431372549, 0.996078431372549, 0.0 ],
					"circlebordercolor" : [ 0.996078431372549, 0.996078431372549, 0.996078431372549, 1.0 ],
					"circleinnercolor" : [ 0.941176470588235, 0.890196078431372, 0.890196078431372, 0.02 ],
					"fontface" : 0,
					"fontname" : "JetBrains Mono",
					"fontsize" : 20.0,
					"id" : "obj-3",
					"inset" : 0.0,
					"linecolor" : [ 0.568627450980392, 0.568627450980392, 0.568627450980392, 0.6 ],
					"maxclass" : "bach.circle",
					"modulotextcolor" : [ 0.847058823529412, 0.847058823529412, 0.847058823529412, 1.0 ],
					"names" : [ 0, 1, 2, 3, 4, 5, 6, 7, 8, 9, "૪", "Ɛ" ],
					"numinlets" : 3,
					"numoutlets" : 4,
					"out" : "nn",
					"outlettype" : [ "", "", "int", "bang" ],
					"patching_rect" : [ 921.153860092163086, 1133.000036239624023, 293.0, 264.0 ],
					"pointbordercolor" : [ 0.996078431372549, 0.996078431372549, 0.996078431372549, 1.0 ],
					"pointinnercolor" : [ 0.015686274509804, 0.015686274509804, 0.015686274509804, 0.98 ],
					"pointradius" : 10.0,
					"points" : [ 1, 5, 8 ],
					"presentation" : 1,
					"presentation_rect" : [ -4.153860092163086, 237.44232177734375, 293.0, 264.0 ],
					"selectedpointbordercolor" : [ 0.996078431372549, 0.996078431372549, 0.996078431372549, 1.0 ],
					"selectedpointinnercolor" : [ 0.996078431372549, 0.996078431372549, 0.996078431372549, 1.0 ],
					"showfocus" : 0,
					"showmodulo" : 0,
					"shownumbers" : 3,
					"showpolygon" : 0,
					"showvelocity" : 3,
					"textcolor" : [ 0.847058823529412, 0.847058823529412, 0.847058823529412, 1.0 ],
					"velocities" : [ 100, 100, 100 ],
					"versionnumber" : 80100
				}

			}
, 			{
				"box" : 				{
					"id" : "obj-24",
					"maxclass" : "newobj",
					"numinlets" : 0,
					"numoutlets" : 1,
					"outlettype" : [ "" ],
					"patching_rect" : [ 89.525627136230469, 202.615407943725586, 156.0, 33.0 ],
					"text" : "r fullscreen"
				}

			}
, 			{
				"box" : 				{
					"id" : "obj-6",
					"maxclass" : "newobj",
					"numinlets" : 1,
					"numoutlets" : 2,
					"outlettype" : [ "", "" ],
					"patching_rect" : [ 89.525627136230469, 252.000036239624023, 144.0, 33.0 ],
					"save" : [ "#N", "thispatcher", ";", "#Q", "end", ";" ],
					"text" : "thispatcher"
				}

			}
, 			{
				"box" : 				{
					"id" : "obj-25",
					"maxclass" : "newobj",
					"numinlets" : 1,
					"numoutlets" : 2,
					"outlettype" : [ "", "" ],
					"patching_rect" : [ 1259.346145629882813, 119.846179962158203, 230.0, 33.0 ],
					"text" : "OSC-route /midiSeq"
				}

			}
, 			{
				"box" : 				{
					"id" : "obj-1",
					"maxclass" : "newobj",
					"numinlets" : 1,
					"numoutlets" : 1,
					"outlettype" : [ "" ],
					"patching_rect" : [ 1259.346145629882813, 69.000019073486328, 193.0, 33.0 ],
					"text" : "udpreceive 8000"
				}

			}
 ],
		"lines" : [ 			{
				"patchline" : 				{
					"destination" : [ "obj-19", 1 ],
					"order" : 0,
					"source" : [ "obj-1", 0 ]
				}

			}
, 			{
				"patchline" : 				{
					"destination" : [ "obj-25", 0 ],
					"order" : 2,
					"source" : [ "obj-1", 0 ]
				}

			}
, 			{
				"patchline" : 				{
					"destination" : [ "obj-5", 0 ],
					"order" : 1,
					"source" : [ "obj-1", 0 ]
				}

			}
, 			{
				"patchline" : 				{
					"destination" : [ "obj-145", 1 ],
					"order" : 0,
					"source" : [ "obj-10", 1 ]
				}

			}
, 			{
				"patchline" : 				{
					"destination" : [ "obj-145", 0 ],
					"order" : 0,
					"source" : [ "obj-10", 0 ]
				}

			}
, 			{
				"patchline" : 				{
					"destination" : [ "obj-167", 1 ],
					"order" : 1,
					"source" : [ "obj-10", 1 ]
				}

			}
, 			{
				"patchline" : 				{
					"destination" : [ "obj-167", 0 ],
					"order" : 1,
					"source" : [ "obj-10", 0 ]
				}

			}
, 			{
				"patchline" : 				{
					"destination" : [ "obj-168", 1 ],
					"order" : 2,
					"source" : [ "obj-10", 1 ]
				}

			}
, 			{
				"patchline" : 				{
					"destination" : [ "obj-168", 0 ],
					"order" : 2,
					"source" : [ "obj-10", 0 ]
				}

			}
, 			{
				"patchline" : 				{
					"destination" : [ "obj-28", 0 ],
					"order" : 3,
					"source" : [ "obj-10", 0 ]
				}

			}
, 			{
				"patchline" : 				{
					"destination" : [ "obj-14", 0 ],
					"source" : [ "obj-100", 0 ]
				}

			}
, 			{
				"patchline" : 				{
					"destination" : [ "obj-100", 0 ],
					"source" : [ "obj-104", 3 ]
				}

			}
, 			{
				"patchline" : 				{
					"destination" : [ "obj-133", 0 ],
					"source" : [ "obj-104", 0 ]
				}

			}
, 			{
				"patchline" : 				{
					"destination" : [ "obj-136", 0 ],
					"source" : [ "obj-104", 1 ]
				}

			}
, 			{
				"patchline" : 				{
					"destination" : [ "obj-139", 0 ],
					"source" : [ "obj-104", 2 ]
				}

			}
, 			{
				"patchline" : 				{
					"destination" : [ "obj-14", 0 ],
					"source" : [ "obj-133", 0 ]
				}

			}
, 			{
				"patchline" : 				{
					"destination" : [ "obj-14", 0 ],
					"source" : [ "obj-136", 0 ]
				}

			}
, 			{
				"patchline" : 				{
					"destination" : [ "obj-14", 0 ],
					"source" : [ "obj-139", 0 ]
				}

			}
, 			{
				"patchline" : 				{
					"destination" : [ "obj-145", 2 ],
					"order" : 0,
					"source" : [ "obj-14", 2 ]
				}

			}
, 			{
				"patchline" : 				{
					"destination" : [ "obj-15", 0 ],
					"source" : [ "obj-14", 0 ]
				}

			}
, 			{
				"patchline" : 				{
					"destination" : [ "obj-167", 2 ],
					"order" : 1,
					"source" : [ "obj-14", 2 ]
				}

			}
, 			{
				"patchline" : 				{
					"destination" : [ "obj-168", 2 ],
					"order" : 2,
					"source" : [ "obj-14", 2 ]
				}

			}
, 			{
				"patchline" : 				{
					"destination" : [ "obj-187", 0 ],
					"order" : 1,
					"source" : [ "obj-14", 1 ]
				}

			}
, 			{
				"patchline" : 				{
					"destination" : [ "obj-202", 0 ],
					"order" : 0,
					"source" : [ "obj-14", 1 ]
				}

			}
, 			{
				"patchline" : 				{
					"destination" : [ "obj-210", 0 ],
					"order" : 2,
					"source" : [ "obj-14", 1 ]
				}

			}
, 			{
				"patchline" : 				{
					"destination" : [ "obj-14", 0 ],
					"source" : [ "obj-145", 0 ]
				}

			}
, 			{
				"patchline" : 				{
					"destination" : [ "obj-14", 0 ],
					"source" : [ "obj-167", 0 ]
				}

			}
, 			{
				"patchline" : 				{
					"destination" : [ "obj-14", 0 ],
					"source" : [ "obj-168", 0 ]
				}

			}
, 			{
				"patchline" : 				{
					"destination" : [ "obj-180", 0 ],
					"source" : [ "obj-174", 0 ]
				}

			}
, 			{
				"patchline" : 				{
					"destination" : [ "obj-175", 0 ],
					"order" : 0,
					"source" : [ "obj-176", 0 ]
				}

			}
, 			{
				"patchline" : 				{
					"destination" : [ "obj-7", 0 ],
					"order" : 1,
					"source" : [ "obj-176", 0 ]
				}

			}
, 			{
				"patchline" : 				{
					"destination" : [ "obj-174", 0 ],
					"order" : 1,
					"source" : [ "obj-177", 0 ]
				}

			}
, 			{
				"patchline" : 				{
					"destination" : [ "obj-176", 0 ],
					"order" : 0,
					"source" : [ "obj-177", 0 ]
				}

			}
, 			{
				"patchline" : 				{
					"destination" : [ "obj-177", 0 ],
					"source" : [ "obj-178", 0 ]
				}

			}
, 			{
				"patchline" : 				{
					"destination" : [ "obj-177", 1 ],
					"source" : [ "obj-179", 1 ]
				}

			}
, 			{
				"patchline" : 				{
					"destination" : [ "obj-183", 0 ],
					"source" : [ "obj-180", 0 ]
				}

			}
, 			{
				"patchline" : 				{
					"destination" : [ "obj-7", 0 ],
					"source" : [ "obj-181", 0 ]
				}

			}
, 			{
				"patchline" : 				{
					"destination" : [ "obj-178", 0 ],
					"order" : 1,
					"source" : [ "obj-184", 0 ]
				}

			}
, 			{
				"patchline" : 				{
					"destination" : [ "obj-180", 0 ],
					"order" : 0,
					"source" : [ "obj-184", 0 ]
				}

			}
, 			{
				"patchline" : 				{
					"destination" : [ "obj-200", 0 ],
					"order" : 2,
					"source" : [ "obj-184", 0 ]
				}

			}
, 			{
				"patchline" : 				{
					"destination" : [ "obj-192", 0 ],
					"source" : [ "obj-187", 1 ]
				}

			}
, 			{
				"patchline" : 				{
					"destination" : [ "obj-184", 0 ],
					"order" : 0,
					"source" : [ "obj-192", 0 ]
				}

			}
, 			{
				"patchline" : 				{
					"destination" : [ "obj-32", 0 ],
					"order" : 1,
					"source" : [ "obj-192", 0 ]
				}

			}
, 			{
				"patchline" : 				{
					"destination" : [ "obj-3", 0 ],
					"source" : [ "obj-20", 0 ]
				}

			}
, 			{
				"patchline" : 				{
					"destination" : [ "obj-7", 0 ],
					"source" : [ "obj-200", 0 ]
				}

			}
, 			{
				"patchline" : 				{
					"destination" : [ "obj-203", 0 ],
					"source" : [ "obj-201", 0 ]
				}

			}
, 			{
				"patchline" : 				{
					"destination" : [ "obj-201", 0 ],
					"source" : [ "obj-202", 1 ]
				}

			}
, 			{
				"patchline" : 				{
					"destination" : [ "obj-180", 2 ],
					"order" : 1,
					"source" : [ "obj-203", 0 ]
				}

			}
, 			{
				"patchline" : 				{
					"destination" : [ "obj-209", 0 ],
					"order" : 0,
					"source" : [ "obj-203", 0 ]
				}

			}
, 			{
				"patchline" : 				{
					"destination" : [ "obj-7", 0 ],
					"source" : [ "obj-209", 0 ]
				}

			}
, 			{
				"patchline" : 				{
					"destination" : [ "obj-181", 0 ],
					"order" : 0,
					"source" : [ "obj-210", 1 ]
				}

			}
, 			{
				"patchline" : 				{
					"destination" : [ "obj-4", 1 ],
					"order" : 1,
					"source" : [ "obj-210", 1 ]
				}

			}
, 			{
				"patchline" : 				{
					"destination" : [ "obj-6", 0 ],
					"source" : [ "obj-24", 0 ]
				}

			}
, 			{
				"patchline" : 				{
					"destination" : [ "obj-104", 0 ],
					"source" : [ "obj-25", 0 ]
				}

			}
, 			{
				"patchline" : 				{
					"destination" : [ "obj-5", 0 ],
					"source" : [ "obj-28", 0 ]
				}

			}
, 			{
				"patchline" : 				{
					"destination" : [ "obj-3", 0 ],
					"order" : 1,
					"source" : [ "obj-32", 0 ]
				}

			}
, 			{
				"patchline" : 				{
					"destination" : [ "obj-34", 1 ],
					"order" : 0,
					"source" : [ "obj-32", 0 ]
				}

			}
, 			{
				"patchline" : 				{
					"destination" : [ "obj-14", 0 ],
					"source" : [ "obj-36", 0 ]
				}

			}
, 			{
				"patchline" : 				{
					"destination" : [ "obj-36", 0 ],
					"source" : [ "obj-38", 0 ]
				}

			}
, 			{
				"patchline" : 				{
					"destination" : [ "obj-177", 1 ],
					"source" : [ "obj-46", 0 ]
				}

			}
, 			{
				"patchline" : 				{
					"destination" : [ "obj-173", 0 ],
					"order" : 2,
					"source" : [ "obj-7", 0 ]
				}

			}
, 			{
				"patchline" : 				{
					"destination" : [ "obj-2", 0 ],
					"order" : 1,
					"source" : [ "obj-7", 0 ]
				}

			}
, 			{
				"patchline" : 				{
					"destination" : [ "obj-5", 0 ],
					"order" : 0,
					"source" : [ "obj-7", 0 ]
				}

			}
 ],
		"dependency_cache" : [ 			{
				"name" : "MIDI-sync.maxpat",
				"bootpath" : "C:/Projects/MaxPatches",
				"patcherrelativepath" : ".",
				"type" : "JSON",
				"implicit" : 1
			}
, 			{
				"name" : "midi-in-loopmidi-beat-clock.maxpat",
				"bootpath" : "C:/Projects/MaxPatches",
				"patcherrelativepath" : ".",
				"type" : "JSON",
				"implicit" : 1
			}
, 			{
				"name" : "midi-in-selector.maxpat",
				"bootpath" : "C:/Projects/MaxPatches",
				"patcherrelativepath" : ".",
				"type" : "JSON",
				"implicit" : 1
			}
, 			{
				"name" : "select-midi.js",
				"bootpath" : "C:/Projects/MaxPatches",
				"patcherrelativepath" : ".",
				"type" : "TEXT",
				"implicit" : 1
			}
, 			{
				"name" : "reaper-osc-seq-dict-set.maxpat",
				"bootpath" : "C:/Projects/MaxPatches",
				"patcherrelativepath" : ".",
				"type" : "JSON",
				"implicit" : 1
			}
, 			{
				"name" : "reaper-osc-seq-dict-get.maxpat",
				"bootpath" : "C:/Projects/MaxPatches",
				"patcherrelativepath" : ".",
				"type" : "JSON",
				"implicit" : 1
			}
, 			{
				"name" : "midi-out-loopmidi-max-sequencer.maxpat",
				"bootpath" : "C:/Projects/MaxPatches",
				"patcherrelativepath" : ".",
				"type" : "JSON",
				"implicit" : 1
			}
, 			{
				"name" : "midi-out-selector.maxpat",
				"bootpath" : "C:/Projects/MaxPatches",
				"patcherrelativepath" : ".",
				"type" : "JSON",
				"implicit" : 1
			}
, 			{
				"name" : "thru.maxpat",
				"bootpath" : "C74:/patchers/m4l/Pluggo for Live resources/patches",
				"type" : "JSON",
				"implicit" : 1
			}
, 			{
				"name" : "OSC-route.mxe64",
				"type" : "mx64"
			}
, 			{
				"name" : "bach.circle.mxe64",
				"type" : "mx64"
			}
 ],
		"autosave" : 0,
		"styles" : [ 			{
				"name" : "PupleStyle",
				"slider" : 				{
					"elementcolor" : [ 0.062745, 0.015686, 0.180392, 0.423529 ],
					"color" : [ 0.827451, 0.364706, 0.541176, 1.0 ],
					"bgcolor" : [ 0.290196, 0.309804, 0.301961, 0.0 ]
				}
,
				"button" : 				{
					"elementcolor" : [ 0.827451, 0.364706, 0.541176, 1.0 ],
					"color" : [ 0.941176, 0.678431, 0.890196, 1.0 ],
					"bgcolor" : [ 0.290196, 0.309804, 0.301961, 0.0 ]
				}
,
				"default" : 				{
					"elementcolor" : [ 0.654902, 0.572549, 0.376471, 1.0 ],
					"color" : [ 0.515478, 0.649409, 0.63182, 1.0 ],
					"fontname" : [ "Fira Code" ],
					"bgcolor" : [ 0.392157, 0.376471, 0.470588, 1.0 ],
					"patchlinecolor" : [ 0.65098, 0.862745, 0.521569, 0.898039 ],
					"textcolor_inverse" : [ 0.0, 0.0, 0.0, 1.0 ],
					"textcolor" : [ 0.67451, 0.847059, 0.737255, 1.0 ],
					"fontsize" : [ 20.0 ],
					"accentcolor" : [ 1.0, 1.0, 1.0, 0.15 ]
				}
,
				"toggle" : 				{
					"color" : [ 0.941176, 0.678431, 0.890196, 1.0 ],
					"bgcolor" : [ 0.290196, 0.309804, 0.301961, 0.0 ]
				}
,
				"comment" : 				{
					"fontname" : [ "Fira Code" ],
					"textcolor" : [ 0.439216, 0.74902, 0.254902, 0.639216 ],
					"fontsize" : [ 20.0 ],
					"textjustification" : [ 1 ]
				}
,
				"number" : 				{
					"fontname" : [ "Fira Code" ],
					"bgcolor" : [ 0.047059, 0.913725, 0.913725, 1.0 ],
					"textcolor_inverse" : [ 0.0, 0.0, 0.0, 0.65098 ],
					"selectioncolor" : [ 1.0, 1.0, 1.0, 1.0 ],
					"fontsize" : [ 20.0 ],
					"accentcolor" : [ 0.0, 0.0, 0.0, 0.65098 ]
				}
,
				"newobj" : 				{
					"fontname" : [ "Fira Code" ],
					"bgcolor" : [ 0.062745, 0.015686, 0.180392, 0.423529 ],
					"fontsize" : [ 20.0 ],
					"textjustification" : [ 1 ],
					"accentcolor" : [ 0.584314, 0.403922, 0.533333, 1.0 ]
				}
,
				"message" : 				{
					"fontname" : [ "Fira Code" ],
					"textcolor_inverse" : [ 0.894118, 0.745098, 0.745098, 1.0 ],
					"bgfillcolor" : 					{
						"type" : "gradient",
						"color" : [ 0.290196, 0.309804, 0.301961, 1.0 ],
						"color1" : [ 0.223529, 0.266667, 0.454902, 0.458824 ],
						"color2" : [ 0.031373, 0.027451, 0.031373, 0.466667 ],
						"angle" : 270.0,
						"proportion" : 0.39,
						"autogradient" : 0
					}
,
					"fontsize" : [ 20.0 ],
					"textjustification" : [ 1 ]
				}
,
				"parentstyle" : "",
				"multi" : 0
			}
, 			{
				"name" : "PurpleStyle2",
				"slider" : 				{
					"elementcolor" : [ 0.062745, 0.015686, 0.180392, 0.423529 ],
					"color" : [ 0.827451, 0.364706, 0.541176, 1.0 ],
					"bgcolor" : [ 0.290196, 0.309804, 0.301961, 0.0 ]
				}
,
				"button" : 				{
					"elementcolor" : [ 0.827451, 0.364706, 0.541176, 1.0 ],
					"color" : [ 0.941176, 0.678431, 0.890196, 1.0 ],
					"bgcolor" : [ 0.290196, 0.309804, 0.301961, 0.0 ]
				}
,
				"default" : 				{
					"elementcolor" : [ 0.654902, 0.572549, 0.376471, 1.0 ],
					"color" : [ 0.515478, 0.649409, 0.63182, 1.0 ],
					"fontname" : [ "JetBrains Mono" ],
					"bgcolor" : [ 0.392157, 0.376471, 0.470588, 1.0 ],
					"patchlinecolor" : [ 0.65098, 0.862745, 0.521569, 0.898039 ],
					"textcolor_inverse" : [ 0.125490196078431, 0.247058823529412, 0.423529411764706, 0.811764705882353 ],
					"textcolor" : [ 0.67451, 0.847059, 0.737255, 1.0 ],
					"selectioncolor" : [ 0.0, 0.0, 0.0, 0.811764705882353 ],
					"fontsize" : [ 20.0 ],
					"accentcolor" : [ 0.125490196078431, 0.247058823529412, 0.423529411764706, 0.811764705882353 ]
				}
,
				"toggle" : 				{
					"color" : [ 0.941176, 0.678431, 0.890196, 1.0 ],
					"bgcolor" : [ 0.290196, 0.309804, 0.301961, 0.0 ]
				}
,
				"number" : 				{
					"bgcolor" : [ 0.047059, 0.913725, 0.913725, 1.0 ],
					"fontsize" : [ 20.0 ]
				}
,
				"newobj" : 				{
					"bgcolor" : [ 0.062745, 0.015686, 0.180392, 0.423529 ],
					"fontsize" : [ 20.0 ],
					"textjustification" : [ 1 ]
				}
,
				"message" : 				{
					"bgfillcolor" : 					{
						"type" : "gradient",
						"color" : [ 0.290196, 0.309804, 0.301961, 1.0 ],
						"color1" : [ 0.223529, 0.266667, 0.454902, 0.458824 ],
						"color2" : [ 0.031373, 0.027451, 0.031373, 0.466667 ],
						"angle" : 270.0,
						"proportion" : 0.39,
						"autogradient" : 0
					}
,
					"fontsize" : [ 20.0 ],
					"textjustification" : [ 1 ]
				}
,
				"comment" : 				{
					"textcolor" : [ 0.439216, 0.74902, 0.254902, 0.639216 ],
					"fontsize" : [ 20.0 ],
					"textjustification" : [ 1 ]
				}
,
				"parentstyle" : "",
				"multi" : 0
			}
 ],
		"textcolor_inverse" : [ 0.996078431372549, 0.996078431372549, 0.996078431372549, 0.88 ],
		"bgcolor" : [ 0.0, 0.0, 0.0, 1.0 ],
		"editing_bgcolor" : [ 0.176470588235294, 0.141176470588235, 0.180392156862745, 1.0 ],
		"stripecolor" : [ 0.513725490196078, 0.47843137254902, 0.47843137254902, 1.0 ]
	}

}
