{
	"patcher" : 	{
		"fileversion" : 1,
		"appversion" : 		{
			"major" : 7,
			"minor" : 3,
			"revision" : 1,
			"architecture" : "x86",
			"modernui" : 1
		}
,
		"rect" : [ 873.0, 1440.0, 1680.0, 1050.0 ],
		"bglocked" : 1,
		"openinpresentation" : 0,
		"default_fontsize" : 12.0,
		"default_fontface" : 0,
		"default_fontname" : "Arial",
		"gridonopen" : 1,
		"gridsize" : [ 15.0, 15.0 ],
		"gridsnaponopen" : 1,
		"objectsnaponopen" : 1,
		"statusbarvisible" : 2,
		"toolbarvisible" : 1,
		"lefttoolbarpinned" : 0,
		"toptoolbarpinned" : 0,
		"righttoolbarpinned" : 0,
		"bottomtoolbarpinned" : 0,
		"toolbars_unpinned_last_save" : 0,
		"tallnewobj" : 0,
		"boxanimatetime" : 200,
		"enablehscroll" : 1,
		"enablevscroll" : 1,
		"devicewidth" : 0.0,
		"description" : "",
		"digest" : "",
		"tags" : "",
		"style" : "PupleStyle",
		"subpatcher_template" : "PupleTemplate",
		"boxes" : [ 			{
				"box" : 				{
					"id" : "obj-45",
					"maxclass" : "comment",
					"numinlets" : 1,
					"numoutlets" : 0,
					"patching_rect" : [ 221.0, 374.0, 150.0, 30.0 ],
					"presentation" : 1,
					"presentation_rect" : [ 351.0, 154.0, 150.0, 30.0 ],
					"style" : "",
					"text" : "Freq Range",
					"textjustification" : 1
				}

			}
, 			{
				"box" : 				{
					"id" : "obj-43",
					"maxclass" : "comment",
					"numinlets" : 1,
					"numoutlets" : 0,
					"patching_rect" : [ 309.0, 337.0, 121.0, 30.0 ],
					"presentation" : 1,
					"presentation_rect" : [ 435.0, 224.0, 121.0, 30.0 ],
					"style" : "",
					"text" : "farthest",
					"textjustification" : 1
				}

			}
, 			{
				"box" : 				{
					"id" : "obj-41",
					"maxclass" : "comment",
					"numinlets" : 1,
					"numoutlets" : 0,
					"patching_rect" : [ 164.0, 337.0, 121.0, 30.0 ],
					"presentation" : 1,
					"presentation_rect" : [ 290.0, 224.0, 121.0, 30.0 ],
					"style" : "",
					"text" : "nearest",
					"textjustification" : 1
				}

			}
, 			{
				"box" : 				{
					"id" : "obj-39",
					"maxclass" : "newobj",
					"numinlets" : 1,
					"numoutlets" : 1,
					"outlettype" : [ "" ],
					"patching_rect" : [ 155.5, 246.0, 166.0, 32.0 ],
					"style" : "",
					"text" : "loadmess 350."
				}

			}
, 			{
				"box" : 				{
					"format" : 6,
					"id" : "obj-36",
					"maxclass" : "flonum",
					"maximum" : 20000.0,
					"minimum" : 0.0,
					"numinlets" : 1,
					"numoutlets" : 2,
					"outlettype" : [ "", "bang" ],
					"parameter_enable" : 0,
					"patching_rect" : [ 309.0, 303.0, 121.0, 32.0 ],
					"presentation" : 1,
					"presentation_rect" : [ 435.0, 190.0, 121.0, 32.0 ],
					"style" : ""
				}

			}
, 			{
				"box" : 				{
					"id" : "obj-35",
					"maxclass" : "newobj",
					"numinlets" : 6,
					"numoutlets" : 1,
					"outlettype" : [ "" ],
					"patching_rect" : [ 105.5, 433.0, 238.0, 32.0 ],
					"style" : "",
					"text" : "scale 0. 2. 350. 0."
				}

			}
, 			{
				"box" : 				{
					"id" : "obj-31",
					"maxclass" : "newobj",
					"numinlets" : 2,
					"numoutlets" : 1,
					"outlettype" : [ "float" ],
					"patching_rect" : [ 466.0, 235.0, 58.0, 32.0 ],
					"style" : "",
					"text" : "* 1."
				}

			}
, 			{
				"box" : 				{
					"format" : 6,
					"id" : "obj-29",
					"maxclass" : "flonum",
					"maximum" : 20000.0,
					"minimum" : 0.0,
					"numinlets" : 1,
					"numoutlets" : 2,
					"outlettype" : [ "", "bang" ],
					"parameter_enable" : 0,
					"patching_rect" : [ 164.0, 303.0, 121.0, 32.0 ],
					"presentation" : 1,
					"presentation_rect" : [ 290.0, 190.0, 121.0, 32.0 ],
					"style" : ""
				}

			}
, 			{
				"box" : 				{
					"id" : "obj-24",
					"maxclass" : "newobj",
					"numinlets" : 2,
					"numoutlets" : 0,
					"patching_rect" : [ 585.0, 779.0, 58.0, 32.0 ],
					"style" : "",
					"text" : "dac~"
				}

			}
, 			{
				"box" : 				{
					"bgmode" : 0,
					"border" : 0,
					"clickthrough" : 0,
					"enablehscroll" : 0,
					"enablevscroll" : 0,
					"id" : "obj-23",
					"lockeddragscroll" : 0,
					"maxclass" : "bpatcher",
					"name" : "theremin-voicebox.maxpat",
					"numinlets" : 11,
					"numoutlets" : 1,
					"offset" : [ 0.0, 0.0 ],
					"outlettype" : [ "signal" ],
					"patching_rect" : [ 54.0, 514.0, 491.0, 272.0 ],
					"presentation" : 1,
					"presentation_rect" : [ 363.5, 309.0, 491.0, 272.0 ],
					"viewvisibility" : 1
				}

			}
, 			{
				"box" : 				{
					"bgmode" : 0,
					"border" : 0,
					"clickthrough" : 0,
					"enablehscroll" : 0,
					"enablevscroll" : 0,
					"id" : "obj-20",
					"lockeddragscroll" : 0,
					"maxclass" : "bpatcher",
					"name" : "theremin-formant.maxpat",
					"numinlets" : 7,
					"numoutlets" : 1,
					"offset" : [ 0.0, 0.0 ],
					"outlettype" : [ "signal" ],
					"patching_rect" : [ 597.5, 543.0, 598.0, 187.0 ],
					"presentation" : 1,
					"presentation_rect" : [ 322.5, 603.0, 573.0, 186.0 ],
					"viewvisibility" : 1
				}

			}
, 			{
				"box" : 				{
					"fontsize" : 26.129148,
					"id" : "obj-18",
					"maxclass" : "comment",
					"numinlets" : 1,
					"numoutlets" : 0,
					"patching_rect" : [ 16.338165, 34.801941, 56.0, 38.0 ],
					"style" : "",
					"text" : "F11"
				}

			}
, 			{
				"box" : 				{
					"bgmode" : 0,
					"border" : 0,
					"clickthrough" : 0,
					"enablehscroll" : 0,
					"enablevscroll" : 0,
					"id" : "obj-1",
					"lockeddragscroll" : 0,
					"maxclass" : "bpatcher",
					"name" : "theremin-osc.maxpat",
					"numinlets" : 0,
					"numoutlets" : 6,
					"offset" : [ 0.0, 0.0 ],
					"outlettype" : [ "", "", "", "", "", "" ],
					"patching_rect" : [ 279.0, 21.415222, 550.0, 79.0 ],
					"presentation" : 1,
					"presentation_rect" : [ 351.0, 37.415222, 550.0, 79.0 ],
					"viewvisibility" : 1
				}

			}
, 			{
				"box" : 				{
					"fontname" : "Arial",
					"fontsize" : 5.134713,
					"id" : "obj-4",
					"maxclass" : "message",
					"numinlets" : 2,
					"numoutlets" : 1,
					"outlettype" : [ "" ],
					"patching_rect" : [ 121.305145, 53.915222, 64.281189, 14.0 ],
					"style" : "",
					"text" : "fullscreen $1"
				}

			}
, 			{
				"box" : 				{
					"fontname" : "Arial",
					"fontsize" : 5.134713,
					"id" : "obj-5",
					"maxclass" : "newobj",
					"numinlets" : 1,
					"numoutlets" : 2,
					"outlettype" : [ "", "" ],
					"patching_rect" : [ 121.305145, 73.856506, 55.715298, 14.0 ],
					"save" : [ "#N", "thispatcher", ";", "#Q", "window", "flags", "nogrow", "close", "zoom", "nofloat", "menu", "minimize", ";", "#Q", "window", "constrain", 50, 50, 32768, 32768, ";", "#Q", "window", "size", 873, 1440, 2553, 2490, ";", "#Q", "window", "title", ";", "#Q", "window", "exec", ";", "#Q", "savewindow", 1, ";", "#Q", "end", ";" ],
					"style" : "",
					"text" : "thispatcher"
				}

			}
, 			{
				"box" : 				{
					"id" : "obj-7",
					"maxclass" : "toggle",
					"numinlets" : 1,
					"numoutlets" : 1,
					"outlettype" : [ "int" ],
					"parameter_enable" : 0,
					"patching_rect" : [ 63.338165, 25.81842, 55.966991, 55.966991 ],
					"style" : ""
				}

			}
, 			{
				"box" : 				{
					"fontsize" : 5.134713,
					"id" : "obj-9",
					"maxclass" : "newobj",
					"numinlets" : 2,
					"numoutlets" : 2,
					"outlettype" : [ "bang", "" ],
					"patching_rect" : [ 121.305145, 28.072083, 58.694084, 15.0 ],
					"style" : "",
					"text" : "select 16"
				}

			}
, 			{
				"box" : 				{
					"fontsize" : 5.134713,
					"id" : "obj-11",
					"maxclass" : "newobj",
					"numinlets" : 0,
					"numoutlets" : 4,
					"outlettype" : [ "int", "int", "int", "int" ],
					"patching_rect" : [ 121.305145, 8.81842, 21.376768, 15.0 ],
					"style" : "",
					"text" : "key"
				}

			}
, 			{
				"box" : 				{
					"id" : "obj-46",
					"maxclass" : "panel",
					"numinlets" : 1,
					"numoutlets" : 0,
					"patching_rect" : [ 152.0, 297.0, 292.0, 114.0 ],
					"presentation" : 1,
					"presentation_rect" : [ 280.0, 149.0, 288.0, 114.0 ],
					"style" : ""
				}

			}
 ],
		"lines" : [ 			{
				"patchline" : 				{
					"destination" : [ "obj-20", 3 ],
					"disabled" : 0,
					"hidden" : 0,
					"source" : [ "obj-1", 5 ]
				}

			}
, 			{
				"patchline" : 				{
					"destination" : [ "obj-20", 4 ],
					"disabled" : 0,
					"hidden" : 0,
					"source" : [ "obj-1", 4 ]
				}

			}
, 			{
				"patchline" : 				{
					"destination" : [ "obj-20", 1 ],
					"disabled" : 0,
					"hidden" : 0,
					"source" : [ "obj-1", 3 ]
				}

			}
, 			{
				"patchline" : 				{
					"destination" : [ "obj-20", 2 ],
					"disabled" : 0,
					"hidden" : 0,
					"source" : [ "obj-1", 2 ]
				}

			}
, 			{
				"patchline" : 				{
					"destination" : [ "obj-31", 1 ],
					"disabled" : 0,
					"hidden" : 0,
					"source" : [ "obj-1", 1 ]
				}

			}
, 			{
				"patchline" : 				{
					"destination" : [ "obj-31", 0 ],
					"disabled" : 0,
					"hidden" : 0,
					"source" : [ "obj-1", 1 ]
				}

			}
, 			{
				"patchline" : 				{
					"destination" : [ "obj-35", 0 ],
					"disabled" : 0,
					"hidden" : 0,
					"source" : [ "obj-1", 0 ]
				}

			}
, 			{
				"patchline" : 				{
					"destination" : [ "obj-9", 0 ],
					"disabled" : 0,
					"hidden" : 0,
					"source" : [ "obj-11", 0 ]
				}

			}
, 			{
				"patchline" : 				{
					"destination" : [ "obj-24", 1 ],
					"disabled" : 0,
					"hidden" : 0,
					"source" : [ "obj-20", 0 ]
				}

			}
, 			{
				"patchline" : 				{
					"destination" : [ "obj-24", 0 ],
					"disabled" : 0,
					"hidden" : 0,
					"source" : [ "obj-20", 0 ]
				}

			}
, 			{
				"patchline" : 				{
					"destination" : [ "obj-20", 0 ],
					"disabled" : 0,
					"hidden" : 0,
					"source" : [ "obj-23", 0 ]
				}

			}
, 			{
				"patchline" : 				{
					"destination" : [ "obj-35", 3 ],
					"disabled" : 0,
					"hidden" : 0,
					"source" : [ "obj-29", 0 ]
				}

			}
, 			{
				"patchline" : 				{
					"destination" : [ "obj-23", 1 ],
					"disabled" : 0,
					"hidden" : 0,
					"source" : [ "obj-31", 0 ]
				}

			}
, 			{
				"patchline" : 				{
					"destination" : [ "obj-23", 0 ],
					"disabled" : 0,
					"hidden" : 0,
					"source" : [ "obj-35", 0 ]
				}

			}
, 			{
				"patchline" : 				{
					"destination" : [ "obj-35", 4 ],
					"disabled" : 0,
					"hidden" : 0,
					"source" : [ "obj-36", 0 ]
				}

			}
, 			{
				"patchline" : 				{
					"destination" : [ "obj-29", 0 ],
					"disabled" : 0,
					"hidden" : 0,
					"source" : [ "obj-39", 0 ]
				}

			}
, 			{
				"patchline" : 				{
					"destination" : [ "obj-5", 0 ],
					"disabled" : 0,
					"hidden" : 1,
					"source" : [ "obj-4", 0 ]
				}

			}
, 			{
				"patchline" : 				{
					"destination" : [ "obj-4", 0 ],
					"disabled" : 0,
					"hidden" : 0,
					"source" : [ "obj-7", 0 ]
				}

			}
, 			{
				"patchline" : 				{
					"destination" : [ "obj-7", 0 ],
					"disabled" : 0,
					"hidden" : 0,
					"source" : [ "obj-9", 0 ]
				}

			}
 ],
		"dependency_cache" : [ 			{
				"name" : "theremin-osc.maxpat",
				"bootpath" : "D:/Projects/MaxPatches",
				"type" : "JSON",
				"implicit" : 1
			}
, 			{
				"name" : "theremin-formant.maxpat",
				"bootpath" : "D:/Projects/MaxPatches",
				"type" : "JSON",
				"implicit" : 1
			}
, 			{
				"name" : "reson-presentation.maxpat",
				"bootpath" : "D:/Projects/MaxPatches",
				"type" : "JSON",
				"implicit" : 1
			}
, 			{
				"name" : "theremin-voicebox.maxpat",
				"bootpath" : "D:/Projects/MaxPatches",
				"type" : "JSON",
				"implicit" : 1
			}
, 			{
				"name" : "OSC-route.mxe",
				"type" : "iLaF"
			}
 ],
		"autosave" : 0,
		"styles" : [ 			{
				"name" : "PupleStyle",
				"number" : 				{
					"selectioncolor" : [ 1.0, 1.0, 1.0, 1.0 ],
					"fontname" : [ "Fira Code" ],
					"bgcolor" : [ 0.047059, 0.913725, 0.913725, 1.0 ],
					"textcolor_inverse" : [ 0.0, 0.0, 0.0, 0.65098 ],
					"fontsize" : [ 20.0 ],
					"accentcolor" : [ 0.0, 0.0, 0.0, 0.65098 ]
				}
,
				"newobj" : 				{
					"fontname" : [ "Fira Code" ],
					"bgcolor" : [ 0.062745, 0.015686, 0.180392, 0.423529 ],
					"textjustification" : [ 1 ],
					"fontsize" : [ 20.0 ],
					"accentcolor" : [ 0.584314, 0.403922, 0.533333, 1.0 ]
				}
,
				"comment" : 				{
					"fontname" : [ "Fira Code" ],
					"textjustification" : [ 1 ],
					"fontsize" : [ 20.0 ],
					"textcolor" : [ 0.439216, 0.74902, 0.254902, 0.639216 ]
				}
,
				"message" : 				{
					"fontname" : [ "Fira Code" ],
					"textcolor_inverse" : [ 0.894118, 0.745098, 0.745098, 1.0 ],
					"textjustification" : [ 1 ],
					"bgfillcolor" : 					{
						"type" : "gradient",
						"color" : [ 0.290196, 0.309804, 0.301961, 1.0 ],
						"color1" : [ 0.223529, 0.266667, 0.454902, 0.458824 ],
						"color2" : [ 0.031373, 0.027451, 0.031373, 0.466667 ],
						"angle" : 270.0,
						"proportion" : 0.39,
						"autogradient" : 0
					}
,
					"fontsize" : [ 20.0 ]
				}
,
				"button" : 				{
					"bgcolor" : [ 0.290196, 0.309804, 0.301961, 0.0 ],
					"color" : [ 0.941176, 0.678431, 0.890196, 1.0 ],
					"elementcolor" : [ 0.827451, 0.364706, 0.541176, 1.0 ]
				}
,
				"toggle" : 				{
					"bgcolor" : [ 0.290196, 0.309804, 0.301961, 0.0 ],
					"color" : [ 0.941176, 0.678431, 0.890196, 1.0 ]
				}
,
				"slider" : 				{
					"bgcolor" : [ 0.290196, 0.309804, 0.301961, 0.0 ],
					"color" : [ 0.827451, 0.364706, 0.541176, 1.0 ],
					"elementcolor" : [ 0.062745, 0.015686, 0.180392, 0.423529 ]
				}
,
				"parentstyle" : "",
				"multi" : 1
			}
 ],
		"patchlinecolor" : [ 0.1, 0.41, 0.41, 0.898039 ],
		"bgfillcolor_type" : "gradient",
		"bgfillcolor_color1" : [ 0.376471, 0.384314, 0.4, 1.0 ],
		"bgfillcolor_color2" : [ 0.290196, 0.309804, 0.301961, 1.0 ],
		"bgfillcolor_color" : [ 0.290196, 0.309804, 0.301961, 1.0 ],
		"bgfillcolor_angle" : 270.0,
		"bgfillcolor_proportion" : 0.39
	}

}
