{
	"patcher" : 	{
		"fileversion" : 1,
		"appversion" : 		{
			"major" : 8,
			"minor" : 5,
			"revision" : 2,
			"architecture" : "x64",
			"modernui" : 1
		}
,
		"classnamespace" : "box",
		"rect" : [ 859.0, 272.0, 1019.0, 1033.0 ],
		"bglocked" : 0,
		"openinpresentation" : 1,
		"default_fontsize" : 20.0,
		"default_fontface" : 0,
		"default_fontname" : "Fira Code",
		"gridonopen" : 1,
		"gridsize" : [ 15.0, 15.0 ],
		"gridsnaponopen" : 1,
		"objectsnaponopen" : 1,
		"statusbarvisible" : 2,
		"toolbarvisible" : 1,
		"lefttoolbarpinned" : 0,
		"toptoolbarpinned" : 0,
		"righttoolbarpinned" : 0,
		"bottomtoolbarpinned" : 0,
		"toolbars_unpinned_last_save" : 0,
		"tallnewobj" : 0,
		"boxanimatetime" : 200,
		"enablehscroll" : 1,
		"enablevscroll" : 1,
		"devicewidth" : 0.0,
		"description" : "",
		"digest" : "",
		"tags" : "",
		"style" : "PupleStyle",
		"subpatcher_template" : "PurpleTemplate2018",
		"assistshowspatchername" : 0,
		"boxes" : [ 			{
				"box" : 				{
					"id" : "obj-41",
					"maxclass" : "toggle",
					"numinlets" : 1,
					"numoutlets" : 1,
					"outlettype" : [ "int" ],
					"parameter_enable" : 0,
					"patching_rect" : [ 286.0, 902.0, 24.0, 24.0 ]
				}

			}
, 			{
				"box" : 				{
					"id" : "obj-35",
					"linecount" : 3,
					"maxclass" : "comment",
					"numinlets" : 1,
					"numoutlets" : 0,
					"patching_rect" : [ 250.0, 803.0, 150.0, 79.0 ],
					"text" : "TODO toggle bypass formants"
				}

			}
, 			{
				"box" : 				{
					"format" : 6,
					"id" : "obj-7",
					"maxclass" : "flonum",
					"minimum" : 0.0,
					"numinlets" : 1,
					"numoutlets" : 2,
					"outlettype" : [ "", "bang" ],
					"parameter_enable" : 0,
					"patching_rect" : [ 48.5, 782.0, 100.0, 35.0 ],
					"style" : "PurpleStyle2"
				}

			}
, 			{
				"box" : 				{
					"id" : "obj-18",
					"maxclass" : "message",
					"numinlets" : 2,
					"numoutlets" : 1,
					"outlettype" : [ "" ],
					"patching_rect" : [ 281.5, 462.0, 66.0, 33.0 ],
					"text" : "$1 50"
				}

			}
, 			{
				"box" : 				{
					"id" : "obj-20",
					"maxclass" : "newobj",
					"numinlets" : 2,
					"numoutlets" : 2,
					"outlettype" : [ "signal", "bang" ],
					"patching_rect" : [ 281.5, 515.0, 87.0, 33.0 ],
					"text" : "line~ 0."
				}

			}
, 			{
				"box" : 				{
					"id" : "obj-17",
					"maxclass" : "message",
					"numinlets" : 2,
					"numoutlets" : 1,
					"outlettype" : [ "" ],
					"patching_rect" : [ 14.0, 204.0, 66.0, 33.0 ],
					"text" : "$1 50"
				}

			}
, 			{
				"box" : 				{
					"id" : "obj-6",
					"maxclass" : "newobj",
					"numinlets" : 2,
					"numoutlets" : 2,
					"outlettype" : [ "signal", "bang" ],
					"patching_rect" : [ 14.0, 257.0, 87.0, 33.0 ],
					"text" : "line~ 0."
				}

			}
, 			{
				"box" : 				{
					"id" : "obj-46",
					"linecount" : 2,
					"maxclass" : "comment",
					"numinlets" : 1,
					"numoutlets" : 0,
					"patching_rect" : [ 640.0, 224.0, 150.0, 55.0 ],
					"text" : "L trigger noise"
				}

			}
, 			{
				"box" : 				{
					"id" : "obj-45",
					"linecount" : 2,
					"maxclass" : "comment",
					"numinlets" : 1,
					"numoutlets" : 0,
					"patching_rect" : [ 54.637380361557007, 353.0, 150.0, 55.0 ],
					"text" : "R trigger voice"
				}

			}
, 			{
				"box" : 				{
					"id" : "obj-43",
					"linecount" : 2,
					"maxclass" : "comment",
					"numinlets" : 1,
					"numoutlets" : 0,
					"patching_rect" : [ 295.5, 401.0, 150.0, 55.0 ],
					"text" : "left hand Amplitude"
				}

			}
, 			{
				"box" : 				{
					"id" : "obj-38",
					"maxclass" : "meter~",
					"numinlets" : 1,
					"numoutlets" : 1,
					"outlettype" : [ "float" ],
					"patching_rect" : [ 281.5, 573.0, 190.137380361557007, 14.890110373497009 ]
				}

			}
, 			{
				"box" : 				{
					"id" : "obj-33",
					"maxclass" : "newobj",
					"numinlets" : 2,
					"numoutlets" : 1,
					"outlettype" : [ "signal" ],
					"patching_rect" : [ 14.0, 619.0, 38.0, 33.0 ],
					"text" : "*~"
				}

			}
, 			{
				"box" : 				{
					"fontname" : "Arial",
					"fontsize" : 13.0,
					"id" : "obj-30",
					"maxclass" : "newobj",
					"numinlets" : 2,
					"numoutlets" : 2,
					"outlettype" : [ "signal", "bang" ],
					"patching_rect" : [ 91.637380361557007, 570.0, 38.0, 23.0 ],
					"text" : "line~"
				}

			}
, 			{
				"box" : 				{
					"fontname" : "Arial",
					"fontsize" : 13.0,
					"id" : "obj-31",
					"maxclass" : "newobj",
					"numinlets" : 2,
					"numoutlets" : 1,
					"outlettype" : [ "" ],
					"patching_rect" : [ 61.637380361557007, 533.0, 136.0, 23.0 ],
					"text" : "linedrive 127 1. 0.8 20"
				}

			}
, 			{
				"box" : 				{
					"id" : "obj-32",
					"maxclass" : "meter~",
					"numinlets" : 1,
					"numoutlets" : 1,
					"outlettype" : [ "float" ],
					"patching_rect" : [ 61.637380361557007, 602.0, 190.137380361557007, 14.890110373497009 ]
				}

			}
, 			{
				"box" : 				{
					"id" : "obj-25",
					"maxclass" : "newobj",
					"numinlets" : 2,
					"numoutlets" : 1,
					"outlettype" : [ "signal" ],
					"patching_rect" : [ 541.0, 412.0, 38.0, 33.0 ],
					"text" : "*~"
				}

			}
, 			{
				"box" : 				{
					"fontname" : "Arial",
					"fontsize" : 13.0,
					"id" : "obj-21",
					"maxclass" : "newobj",
					"numinlets" : 2,
					"numoutlets" : 2,
					"outlettype" : [ "signal", "bang" ],
					"patching_rect" : [ 640.0, 370.0, 38.0, 23.0 ],
					"text" : "line~"
				}

			}
, 			{
				"box" : 				{
					"fontname" : "Arial",
					"fontsize" : 13.0,
					"id" : "obj-22",
					"maxclass" : "newobj",
					"numinlets" : 2,
					"numoutlets" : 1,
					"outlettype" : [ "" ],
					"patching_rect" : [ 634.0, 335.0, 136.0, 23.0 ],
					"text" : "linedrive 127 1. 0.8 20"
				}

			}
, 			{
				"box" : 				{
					"id" : "obj-24",
					"maxclass" : "meter~",
					"numinlets" : 1,
					"numoutlets" : 1,
					"outlettype" : [ "float" ],
					"patching_rect" : [ 634.0, 404.0, 190.137380361557007, 14.890110373497009 ]
				}

			}
, 			{
				"box" : 				{
					"id" : "obj-40",
					"maxclass" : "newobj",
					"numinlets" : 6,
					"numoutlets" : 1,
					"outlettype" : [ "" ],
					"patching_rect" : [ 61.637380361557007, 494.0, 178.0, 33.0 ],
					"text" : "scale 0. 1. 0 127"
				}

			}
, 			{
				"box" : 				{
					"id" : "obj-14",
					"maxclass" : "newobj",
					"numinlets" : 2,
					"numoutlets" : 1,
					"outlettype" : [ "signal" ],
					"patching_rect" : [ 351.5, 720.0, 38.0, 33.0 ],
					"text" : "*~"
				}

			}
, 			{
				"box" : 				{
					"id" : "obj-12",
					"linecount" : 3,
					"maxclass" : "newobj",
					"numinlets" : 6,
					"numoutlets" : 1,
					"outlettype" : [ "" ],
					"patching_rect" : [ 688.5, 736.0, 83.0, 81.0 ],
					"text" : "scale 1. -1. 0.1 0.9"
				}

			}
, 			{
				"box" : 				{
					"id" : "obj-11",
					"linecount" : 3,
					"maxclass" : "newobj",
					"numinlets" : 6,
					"numoutlets" : 1,
					"outlettype" : [ "" ],
					"patching_rect" : [ 580.0, 736.0, 88.0, 81.0 ],
					"text" : "scale -1. 1. 0.1 0.9"
				}

			}
, 			{
				"box" : 				{
					"id" : "obj-10",
					"maxclass" : "newobj",
					"numinlets" : 6,
					"numoutlets" : 1,
					"outlettype" : [ "" ],
					"patching_rect" : [ 628.25, 292.0, 178.0, 33.0 ],
					"text" : "scale 0. 1. 0 127"
				}

			}
, 			{
				"box" : 				{
					"id" : "obj-8",
					"maxclass" : "newobj",
					"numinlets" : 6,
					"numoutlets" : 1,
					"outlettype" : [ "" ],
					"patching_rect" : [ 237.0, 215.0, 318.0, 33.0 ],
					"text" : "scale 0. 2. 0. 10. 2. @classic 0"
				}

			}
, 			{
				"box" : 				{
					"comment" : "",
					"id" : "obj-5",
					"index" : 1,
					"maxclass" : "outlet",
					"numinlets" : 1,
					"numoutlets" : 0,
					"patching_rect" : [ 156.0, 1123.0, 30.0, 30.0 ]
				}

			}
, 			{
				"box" : 				{
					"id" : "obj-19",
					"maxclass" : "newobj",
					"numinlets" : 2,
					"numoutlets" : 1,
					"outlettype" : [ "signal" ],
					"patching_rect" : [ 881.5, 499.0, 77.0, 33.0 ],
					"text" : "*~ 40."
				}

			}
, 			{
				"box" : 				{
					"id" : "obj-15",
					"maxclass" : "button",
					"numinlets" : 1,
					"numoutlets" : 1,
					"outlettype" : [ "bang" ],
					"parameter_enable" : 0,
					"patching_rect" : [ 881.5, 405.0, 37.0, 37.0 ]
				}

			}
, 			{
				"box" : 				{
					"id" : "obj-9",
					"maxclass" : "newobj",
					"numinlets" : 1,
					"numoutlets" : 1,
					"outlettype" : [ "signal" ],
					"patching_rect" : [ 881.5, 448.0, 69.0, 33.0 ],
					"text" : "click~"
				}

			}
, 			{
				"box" : 				{
					"id" : "obj-4",
					"maxclass" : "newobj",
					"numinlets" : 1,
					"numoutlets" : 1,
					"outlettype" : [ "signal" ],
					"patching_rect" : [ 536.5, 353.0, 77.0, 33.0 ],
					"text" : "noise~"
				}

			}
, 			{
				"box" : 				{
					"format" : 6,
					"id" : "obj-39",
					"maxclass" : "flonum",
					"maximum" : 1.0,
					"minimum" : 0.0,
					"numinlets" : 1,
					"numoutlets" : 2,
					"outlettype" : [ "", "bang" ],
					"parameter_enable" : 0,
					"patching_rect" : [ 102.0, 246.0, 100.0, 35.0 ],
					"style" : "PurpleStyle2"
				}

			}
, 			{
				"box" : 				{
					"id" : "obj-34",
					"maxclass" : "newobj",
					"numinlets" : 3,
					"numoutlets" : 1,
					"outlettype" : [ "signal" ],
					"patching_rect" : [ 32.0, 312.0, 149.0, 33.0 ],
					"text" : "rect~ 200 0.1"
				}

			}
, 			{
				"box" : 				{
					"bgmode" : 0,
					"border" : 0,
					"clickthrough" : 0,
					"enablehscroll" : 0,
					"enablevscroll" : 0,
					"id" : "obj-3",
					"lockeddragscroll" : 0,
					"lockedsize" : 0,
					"maxclass" : "bpatcher",
					"name" : "formant-interpolate.maxpat",
					"numinlets" : 3,
					"numoutlets" : 1,
					"offset" : [ 0.0, 0.0 ],
					"outlettype" : [ "signal" ],
					"patching_rect" : [ 426.5, 834.0, 315.0, 311.0 ],
					"presentation" : 1,
					"presentation_rect" : [ 190.0, 105.0, 315.0, 311.0 ],
					"varname" : "formant-interpolate",
					"viewvisibility" : 1
				}

			}
, 			{
				"box" : 				{
					"comment" : "",
					"id" : "obj-2",
					"index" : 1,
					"maxclass" : "inlet",
					"numinlets" : 0,
					"numoutlets" : 1,
					"outlettype" : [ "" ],
					"patching_rect" : [ 48.5, 13.801940999999999, 30.0, 30.0 ]
				}

			}
, 			{
				"box" : 				{
					"bgmode" : 0,
					"border" : 0,
					"clickthrough" : 0,
					"enablehscroll" : 0,
					"enablevscroll" : 0,
					"id" : "obj-1",
					"lockeddragscroll" : 0,
					"lockedsize" : 0,
					"maxclass" : "bpatcher",
					"name" : "theremin-osc.maxpat",
					"numinlets" : 1,
					"numoutlets" : 9,
					"offset" : [ 0.0, 0.0 ],
					"outlettype" : [ "", "", "", "", "", "", "", "", "bang" ],
					"patching_rect" : [ 35.5, 58.0, 765.0, 100.0 ],
					"presentation" : 1,
					"presentation_rect" : [ 2.0, 2.0, 764.0, 97.0 ],
					"viewvisibility" : 1
				}

			}
 ],
		"lines" : [ 			{
				"patchline" : 				{
					"destination" : [ "obj-10", 0 ],
					"source" : [ "obj-1", 7 ]
				}

			}
, 			{
				"patchline" : 				{
					"destination" : [ "obj-11", 0 ],
					"source" : [ "obj-1", 4 ]
				}

			}
, 			{
				"patchline" : 				{
					"destination" : [ "obj-12", 0 ],
					"source" : [ "obj-1", 5 ]
				}

			}
, 			{
				"patchline" : 				{
					"destination" : [ "obj-15", 0 ],
					"source" : [ "obj-1", 8 ]
				}

			}
, 			{
				"patchline" : 				{
					"destination" : [ "obj-17", 0 ],
					"source" : [ "obj-1", 0 ]
				}

			}
, 			{
				"patchline" : 				{
					"destination" : [ "obj-18", 0 ],
					"order" : 0,
					"source" : [ "obj-1", 1 ]
				}

			}
, 			{
				"patchline" : 				{
					"destination" : [ "obj-40", 0 ],
					"source" : [ "obj-1", 6 ]
				}

			}
, 			{
				"patchline" : 				{
					"destination" : [ "obj-8", 0 ],
					"order" : 1,
					"source" : [ "obj-1", 1 ]
				}

			}
, 			{
				"patchline" : 				{
					"destination" : [ "obj-22", 0 ],
					"source" : [ "obj-10", 0 ]
				}

			}
, 			{
				"patchline" : 				{
					"destination" : [ "obj-3", 1 ],
					"source" : [ "obj-11", 0 ]
				}

			}
, 			{
				"patchline" : 				{
					"destination" : [ "obj-3", 2 ],
					"source" : [ "obj-12", 0 ]
				}

			}
, 			{
				"patchline" : 				{
					"destination" : [ "obj-3", 0 ],
					"source" : [ "obj-14", 0 ]
				}

			}
, 			{
				"patchline" : 				{
					"destination" : [ "obj-9", 0 ],
					"source" : [ "obj-15", 0 ]
				}

			}
, 			{
				"patchline" : 				{
					"destination" : [ "obj-6", 0 ],
					"source" : [ "obj-17", 0 ]
				}

			}
, 			{
				"patchline" : 				{
					"destination" : [ "obj-20", 0 ],
					"source" : [ "obj-18", 0 ]
				}

			}
, 			{
				"patchline" : 				{
					"destination" : [ "obj-14", 0 ],
					"source" : [ "obj-19", 0 ]
				}

			}
, 			{
				"patchline" : 				{
					"destination" : [ "obj-1", 0 ],
					"source" : [ "obj-2", 0 ]
				}

			}
, 			{
				"patchline" : 				{
					"destination" : [ "obj-14", 1 ],
					"order" : 0,
					"source" : [ "obj-20", 0 ]
				}

			}
, 			{
				"patchline" : 				{
					"destination" : [ "obj-38", 0 ],
					"order" : 1,
					"source" : [ "obj-20", 0 ]
				}

			}
, 			{
				"patchline" : 				{
					"destination" : [ "obj-24", 0 ],
					"order" : 0,
					"source" : [ "obj-21", 0 ]
				}

			}
, 			{
				"patchline" : 				{
					"destination" : [ "obj-25", 1 ],
					"order" : 1,
					"source" : [ "obj-21", 0 ]
				}

			}
, 			{
				"patchline" : 				{
					"destination" : [ "obj-21", 0 ],
					"source" : [ "obj-22", 0 ]
				}

			}
, 			{
				"patchline" : 				{
					"destination" : [ "obj-5", 0 ],
					"source" : [ "obj-3", 0 ]
				}

			}
, 			{
				"patchline" : 				{
					"destination" : [ "obj-32", 0 ],
					"order" : 0,
					"source" : [ "obj-30", 0 ]
				}

			}
, 			{
				"patchline" : 				{
					"destination" : [ "obj-33", 1 ],
					"order" : 1,
					"source" : [ "obj-30", 0 ]
				}

			}
, 			{
				"patchline" : 				{
					"destination" : [ "obj-30", 0 ],
					"source" : [ "obj-31", 0 ]
				}

			}
, 			{
				"patchline" : 				{
					"destination" : [ "obj-14", 0 ],
					"source" : [ "obj-33", 0 ]
				}

			}
, 			{
				"patchline" : 				{
					"destination" : [ "obj-33", 0 ],
					"source" : [ "obj-34", 0 ]
				}

			}
, 			{
				"patchline" : 				{
					"destination" : [ "obj-34", 1 ],
					"source" : [ "obj-39", 0 ]
				}

			}
, 			{
				"patchline" : 				{
					"destination" : [ "obj-25", 0 ],
					"source" : [ "obj-4", 0 ]
				}

			}
, 			{
				"patchline" : 				{
					"destination" : [ "obj-31", 0 ],
					"source" : [ "obj-40", 0 ]
				}

			}
, 			{
				"patchline" : 				{
					"destination" : [ "obj-34", 0 ],
					"source" : [ "obj-6", 0 ]
				}

			}
, 			{
				"patchline" : 				{
					"destination" : [ "obj-19", 0 ],
					"source" : [ "obj-9", 0 ]
				}

			}
 ],
		"styles" : [ 			{
				"name" : "PMC",
				"default" : 				{
					"accentcolor" : [ 1.0, 1.0, 1.0, 0.15 ],
					"bgcolor" : [ 0.392157, 0.376471, 0.470588, 1.0 ],
					"color" : [ 0.515478, 0.649409, 0.63182, 1.0 ],
					"elementcolor" : [ 0.654902, 0.572549, 0.376471, 1.0 ],
					"fontname" : [ "Fira Code" ],
					"fontsize" : [ 20.0 ],
					"patchlinecolor" : [ 0.65098, 0.862745, 0.521569, 0.898039 ],
					"textcolor" : [ 0.67451, 0.847059, 0.737255, 1.0 ],
					"textcolor_inverse" : [ 0.0, 0.0, 0.0, 1.0 ]
				}
,
				"parentstyle" : "",
				"multi" : 0
			}
, 			{
				"name" : "PupleStyle",
				"default" : 				{
					"accentcolor" : [ 1.0, 1.0, 1.0, 0.15 ],
					"bgcolor" : [ 0.392157, 0.376471, 0.470588, 1.0 ],
					"color" : [ 0.515478, 0.649409, 0.63182, 1.0 ],
					"elementcolor" : [ 0.654902, 0.572549, 0.376471, 1.0 ],
					"fontname" : [ "Fira Code" ],
					"fontsize" : [ 20.0 ],
					"patchlinecolor" : [ 0.65098, 0.862745, 0.521569, 0.898039 ],
					"textcolor" : [ 0.67451, 0.847059, 0.737255, 1.0 ],
					"textcolor_inverse" : [ 0.0, 0.0, 0.0, 1.0 ]
				}
,
				"newobj" : 				{
					"accentcolor" : [ 0.584314, 0.403922, 0.533333, 1.0 ],
					"bgcolor" : [ 0.062745, 0.015686, 0.180392, 0.423529 ],
					"fontname" : [ "Fira Code" ],
					"fontsize" : [ 20.0 ],
					"textjustification" : [ 1 ]
				}
,
				"number" : 				{
					"accentcolor" : [ 0.0, 0.0, 0.0, 0.65098 ],
					"bgcolor" : [ 0.047059, 0.913725, 0.913725, 1.0 ],
					"fontname" : [ "Fira Code" ],
					"fontsize" : [ 20.0 ],
					"selectioncolor" : [ 1.0, 1.0, 1.0, 1.0 ],
					"textcolor_inverse" : [ 0.0, 0.0, 0.0, 0.65098 ]
				}
,
				"button" : 				{
					"bgcolor" : [ 0.290196, 0.309804, 0.301961, 0.0 ],
					"color" : [ 0.941176, 0.678431, 0.890196, 1.0 ],
					"elementcolor" : [ 0.827451, 0.364706, 0.541176, 1.0 ]
				}
,
				"slider" : 				{
					"bgcolor" : [ 0.290196, 0.309804, 0.301961, 0.0 ],
					"color" : [ 0.827451, 0.364706, 0.541176, 1.0 ],
					"elementcolor" : [ 0.062745, 0.015686, 0.180392, 0.423529 ]
				}
,
				"toggle" : 				{
					"bgcolor" : [ 0.290196, 0.309804, 0.301961, 0.0 ],
					"color" : [ 0.941176, 0.678431, 0.890196, 1.0 ]
				}
,
				"message" : 				{
					"bgfillcolor" : 					{
						"angle" : 270.0,
						"autogradient" : 0,
						"color" : [ 0.290196, 0.309804, 0.301961, 1.0 ],
						"color1" : [ 0.223529, 0.266667, 0.454902, 0.458824 ],
						"color2" : [ 0.031373, 0.027451, 0.031373, 0.466667 ],
						"proportion" : 0.39,
						"type" : "gradient"
					}
,
					"fontname" : [ "Fira Code" ],
					"fontsize" : [ 20.0 ],
					"textcolor_inverse" : [ 0.894118, 0.745098, 0.745098, 1.0 ],
					"textjustification" : [ 1 ]
				}
,
				"comment" : 				{
					"fontname" : [ "Fira Code" ],
					"fontsize" : [ 20.0 ],
					"textcolor" : [ 0.439216, 0.74902, 0.254902, 0.639216 ],
					"textjustification" : [ 1 ]
				}
,
				"parentstyle" : "",
				"multi" : 0
			}
, 			{
				"name" : "PupleStyle-1",
				"default" : 				{
					"accentcolor" : [ 1.0, 1.0, 1.0, 0.15 ],
					"bgcolor" : [ 0.392157, 0.376471, 0.470588, 1.0 ],
					"color" : [ 0.515478, 0.649409, 0.63182, 1.0 ],
					"elementcolor" : [ 0.654902, 0.572549, 0.376471, 1.0 ],
					"fontname" : [ "Fira Code" ],
					"fontsize" : [ 20.0 ],
					"patchlinecolor" : [ 0.65098, 0.862745, 0.521569, 0.898039 ],
					"textcolor" : [ 0.67451, 0.847059, 0.737255, 1.0 ],
					"textcolor_inverse" : [ 0.0, 0.0, 0.0, 1.0 ]
				}
,
				"newobj" : 				{
					"accentcolor" : [ 0.584314, 0.403922, 0.533333, 1.0 ],
					"bgcolor" : [ 0.062745, 0.015686, 0.180392, 0.423529 ],
					"fontname" : [ "Fira Code" ],
					"fontsize" : [ 20.0 ],
					"textjustification" : [ 1 ]
				}
,
				"number" : 				{
					"accentcolor" : [ 0.0, 0.0, 0.0, 0.65098 ],
					"bgcolor" : [ 0.047059, 0.913725, 0.913725, 1.0 ],
					"fontname" : [ "Fira Code" ],
					"fontsize" : [ 20.0 ],
					"selectioncolor" : [ 1.0, 1.0, 1.0, 1.0 ],
					"textcolor_inverse" : [ 0.0, 0.0, 0.0, 0.65098 ]
				}
,
				"button" : 				{
					"bgcolor" : [ 0.290196, 0.309804, 0.301961, 0.0 ],
					"color" : [ 0.941176, 0.678431, 0.890196, 1.0 ],
					"elementcolor" : [ 0.827451, 0.364706, 0.541176, 1.0 ]
				}
,
				"slider" : 				{
					"bgcolor" : [ 0.290196, 0.309804, 0.301961, 0.0 ],
					"color" : [ 0.827451, 0.364706, 0.541176, 1.0 ],
					"elementcolor" : [ 0.062745, 0.015686, 0.180392, 0.423529 ]
				}
,
				"toggle" : 				{
					"bgcolor" : [ 0.290196, 0.309804, 0.301961, 0.0 ],
					"color" : [ 0.941176, 0.678431, 0.890196, 1.0 ]
				}
,
				"message" : 				{
					"bgfillcolor" : 					{
						"angle" : 270.0,
						"autogradient" : 0,
						"color" : [ 0.290196, 0.309804, 0.301961, 1.0 ],
						"color1" : [ 0.223529, 0.266667, 0.454902, 0.458824 ],
						"color2" : [ 0.031373, 0.027451, 0.031373, 0.466667 ],
						"proportion" : 0.39,
						"type" : "gradient"
					}
,
					"fontname" : [ "Fira Code" ],
					"fontsize" : [ 20.0 ],
					"textcolor_inverse" : [ 0.894118, 0.745098, 0.745098, 1.0 ],
					"textjustification" : [ 1 ]
				}
,
				"comment" : 				{
					"fontname" : [ "Fira Code" ],
					"fontsize" : [ 20.0 ],
					"textcolor" : [ 0.439216, 0.74902, 0.254902, 0.639216 ],
					"textjustification" : [ 1 ]
				}
,
				"parentstyle" : "",
				"multi" : 0
			}
, 			{
				"name" : "PurpleStyle2",
				"default" : 				{
					"accentcolor" : [ 0.125490196078431, 0.247058823529412, 0.423529411764706, 0.811764705882353 ],
					"bgcolor" : [ 0.392157, 0.376471, 0.470588, 1.0 ],
					"color" : [ 0.515478, 0.649409, 0.63182, 1.0 ],
					"elementcolor" : [ 0.654902, 0.572549, 0.376471, 1.0 ],
					"fontname" : [ "JetBrains Mono" ],
					"fontsize" : [ 20.0 ],
					"patchlinecolor" : [ 0.65098, 0.862745, 0.521569, 0.898039 ],
					"selectioncolor" : [ 0.0, 0.0, 0.0, 0.811764705882353 ],
					"textcolor" : [ 0.67451, 0.847059, 0.737255, 1.0 ],
					"textcolor_inverse" : [ 0.125490196078431, 0.247058823529412, 0.423529411764706, 0.811764705882353 ]
				}
,
				"button" : 				{
					"bgcolor" : [ 0.290196, 0.309804, 0.301961, 0.0 ],
					"color" : [ 0.941176, 0.678431, 0.890196, 1.0 ],
					"elementcolor" : [ 0.827451, 0.364706, 0.541176, 1.0 ]
				}
,
				"newobj" : 				{
					"bgcolor" : [ 0.062745, 0.015686, 0.180392, 0.423529 ],
					"fontsize" : [ 20.0 ],
					"textjustification" : [ 1 ]
				}
,
				"number" : 				{
					"bgcolor" : [ 0.047059, 0.913725, 0.913725, 1.0 ],
					"fontsize" : [ 20.0 ]
				}
,
				"slider" : 				{
					"bgcolor" : [ 0.290196, 0.309804, 0.301961, 0.0 ],
					"color" : [ 0.827451, 0.364706, 0.541176, 1.0 ],
					"elementcolor" : [ 0.062745, 0.015686, 0.180392, 0.423529 ]
				}
,
				"toggle" : 				{
					"bgcolor" : [ 0.290196, 0.309804, 0.301961, 0.0 ],
					"color" : [ 0.941176, 0.678431, 0.890196, 1.0 ]
				}
,
				"message" : 				{
					"bgfillcolor" : 					{
						"angle" : 270.0,
						"autogradient" : 0,
						"color" : [ 0.290196, 0.309804, 0.301961, 1.0 ],
						"color1" : [ 0.223529, 0.266667, 0.454902, 0.458824 ],
						"color2" : [ 0.031373, 0.027451, 0.031373, 0.466667 ],
						"proportion" : 0.39,
						"type" : "gradient"
					}
,
					"fontsize" : [ 20.0 ],
					"textjustification" : [ 1 ]
				}
,
				"comment" : 				{
					"fontsize" : [ 20.0 ],
					"textcolor" : [ 0.439216, 0.74902, 0.254902, 0.639216 ],
					"textjustification" : [ 1 ]
				}
,
				"parentstyle" : "",
				"multi" : 0
			}
, 			{
				"name" : "ksliderWhite",
				"default" : 				{
					"color" : [ 1, 1, 1, 1 ]
				}
,
				"parentstyle" : "",
				"multi" : 0
			}
, 			{
				"name" : "newobjBlue-1",
				"default" : 				{
					"accentcolor" : [ 0.317647, 0.654902, 0.976471, 1 ]
				}
,
				"parentstyle" : "",
				"multi" : 0
			}
, 			{
				"name" : "newobjGreen-1",
				"default" : 				{
					"accentcolor" : [ 0, 0.533333, 0.168627, 1 ]
				}
,
				"parentstyle" : "",
				"multi" : 0
			}
, 			{
				"name" : "numberGold-1",
				"default" : 				{
					"accentcolor" : [ 0.764706, 0.592157, 0.101961, 1 ]
				}
,
				"parentstyle" : "",
				"multi" : 0
			}
 ],
		"textcolor_inverse" : [ 0.996078431372549, 0.996078431372549, 0.996078431372549, 0.88 ],
		"bgcolor" : [ 0.0, 0.0, 0.0, 1.0 ],
		"stripecolor" : [ 0.513725490196078, 0.47843137254902, 0.47843137254902, 1.0 ],
		"editing_bgcolor" : [ 0.176470588235294, 0.141176470588235, 0.180392156862745, 1.0 ]
	}

}
