{
	"patcher" : 	{
		"fileversion" : 1,
		"appversion" : 		{
			"major" : 8,
			"minor" : 1,
			"revision" : 0,
			"architecture" : "x64",
			"modernui" : 1
		}
,
		"classnamespace" : "box",
		"rect" : [ 1078.0, 630.0, 781.0, 562.0 ],
		"bglocked" : 0,
		"openinpresentation" : 1,
		"default_fontsize" : 20.0,
		"default_fontface" : 0,
		"default_fontname" : "Fira Code",
		"gridonopen" : 1,
		"gridsize" : [ 15.0, 15.0 ],
		"gridsnaponopen" : 1,
		"objectsnaponopen" : 1,
		"statusbarvisible" : 2,
		"toolbarvisible" : 1,
		"lefttoolbarpinned" : 0,
		"toptoolbarpinned" : 0,
		"righttoolbarpinned" : 0,
		"bottomtoolbarpinned" : 0,
		"toolbars_unpinned_last_save" : 0,
		"tallnewobj" : 0,
		"boxanimatetime" : 200,
		"enablehscroll" : 1,
		"enablevscroll" : 1,
		"devicewidth" : 0.0,
		"description" : "",
		"digest" : "",
		"tags" : "",
		"style" : "PupleStyle",
		"subpatcher_template" : "PurpleTemplate2018",
		"boxes" : [ 			{
				"box" : 				{
					"id" : "obj-38",
					"maxclass" : "meter~",
					"numinlets" : 1,
					"numoutlets" : 1,
					"offcolor" : [ 0.662745098039216, 0.086274509803922, 0.996078431372549, 0.42 ],
					"oncolor" : [ 0.43921568627451, 0.996078431372549, 0.968627450980392, 1.0 ],
					"outlettype" : [ "float" ],
					"patching_rect" : [ 321.090909090909008, 334.0, 12.0, 61.0 ],
					"presentation" : 1,
					"presentation_rect" : [ 304.927047729492301, 27.561355590820313, 17.5, 61.0 ]
				}

			}
, 			{
				"box" : 				{
					"id" : "obj-39",
					"maxclass" : "meter~",
					"numinlets" : 1,
					"numoutlets" : 1,
					"offcolor" : [ 0.662745098039216, 0.086274509803922, 0.996078431372549, 0.42 ],
					"oncolor" : [ 0.43921568627451, 0.996078431372549, 0.968627450980392, 1.0 ],
					"outlettype" : [ "float" ],
					"patching_rect" : [ 303.018181818181745, 334.0, 12.0, 61.0 ],
					"presentation" : 1,
					"presentation_rect" : [ 285.193714217345018, 27.561355590820313, 17.5, 61.0 ]
				}

			}
, 			{
				"box" : 				{
					"id" : "obj-40",
					"maxclass" : "meter~",
					"numinlets" : 1,
					"numoutlets" : 1,
					"offcolor" : [ 0.662745098039216, 0.086274509803922, 0.996078431372549, 0.42 ],
					"oncolor" : [ 0.43921568627451, 0.996078431372549, 0.968627450980392, 1.0 ],
					"outlettype" : [ "float" ],
					"patching_rect" : [ 284.945454545454481, 334.0, 12.0, 61.0 ],
					"presentation" : 1,
					"presentation_rect" : [ 265.460380705197736, 27.561355590820313, 17.5, 61.0 ]
				}

			}
, 			{
				"box" : 				{
					"id" : "obj-41",
					"maxclass" : "meter~",
					"numinlets" : 1,
					"numoutlets" : 1,
					"offcolor" : [ 0.662745098039216, 0.086274509803922, 0.996078431372549, 0.42 ],
					"oncolor" : [ 0.43921568627451, 0.996078431372549, 0.968627450980392, 1.0 ],
					"outlettype" : [ "float" ],
					"patching_rect" : [ 266.872727272727218, 334.0, 12.0, 61.0 ],
					"presentation" : 1,
					"presentation_rect" : [ 245.727047193050453, 27.561355590820313, 17.5, 61.0 ]
				}

			}
, 			{
				"box" : 				{
					"comment" : "16",
					"id" : "obj-34",
					"index" : 16,
					"maxclass" : "outlet",
					"numinlets" : 1,
					"numoutlets" : 0,
					"patching_rect" : [ 716.0, 425.0, 30.0, 30.0 ],
					"style" : "PupleStyle",
					"tricolor" : [ 0.996078431372549, 0.329411764705882, 0.866666666666667, 1.0 ]
				}

			}
, 			{
				"box" : 				{
					"comment" : "15",
					"id" : "obj-35",
					"index" : 15,
					"maxclass" : "outlet",
					"numinlets" : 1,
					"numoutlets" : 0,
					"patching_rect" : [ 669.81818181818187, 425.0, 30.0, 30.0 ],
					"style" : "PupleStyle",
					"tricolor" : [ 0.996078431372549, 0.329411764705882, 0.866666666666667, 1.0 ]
				}

			}
, 			{
				"box" : 				{
					"comment" : "14",
					"id" : "obj-36",
					"index" : 14,
					"maxclass" : "outlet",
					"numinlets" : 1,
					"numoutlets" : 0,
					"patching_rect" : [ 623.63636363636374, 425.0, 30.0, 30.0 ],
					"style" : "PupleStyle",
					"tricolor" : [ 0.996078431372549, 0.329411764705882, 0.866666666666667, 1.0 ]
				}

			}
, 			{
				"box" : 				{
					"comment" : "13",
					"id" : "obj-37",
					"index" : 13,
					"maxclass" : "outlet",
					"numinlets" : 1,
					"numoutlets" : 0,
					"patching_rect" : [ 577.454545454545496, 425.0, 30.0, 30.0 ],
					"style" : "PupleStyle",
					"tricolor" : [ 0.996078431372549, 0.329411764705882, 0.866666666666667, 1.0 ]
				}

			}
, 			{
				"box" : 				{
					"comment" : "12",
					"id" : "obj-31",
					"index" : 12,
					"maxclass" : "outlet",
					"numinlets" : 1,
					"numoutlets" : 0,
					"patching_rect" : [ 534.0, 425.0, 30.0, 30.0 ],
					"style" : "PupleStyle",
					"tricolor" : [ 0.996078431372549, 0.329411764705882, 0.866666666666667, 1.0 ]
				}

			}
, 			{
				"box" : 				{
					"comment" : "11",
					"id" : "obj-33",
					"index" : 11,
					"maxclass" : "outlet",
					"numinlets" : 1,
					"numoutlets" : 0,
					"patching_rect" : [ 487.81818181818187, 425.0, 30.0, 30.0 ],
					"style" : "PupleStyle",
					"tricolor" : [ 0.996078431372549, 0.329411764705882, 0.866666666666667, 1.0 ]
				}

			}
, 			{
				"box" : 				{
					"id" : "obj-21",
					"maxclass" : "meter~",
					"numinlets" : 1,
					"numoutlets" : 1,
					"offcolor" : [ 0.662745098039216, 0.086274509803922, 0.996078431372549, 0.42 ],
					"oncolor" : [ 0.43921568627451, 0.996078431372549, 0.968627450980392, 1.0 ],
					"outlettype" : [ "float" ],
					"patching_rect" : [ 248.799999999999955, 334.0, 12.0, 61.0 ],
					"presentation" : 1,
					"presentation_rect" : [ 225.99371368090317, 27.561355590820313, 17.5, 61.0 ]
				}

			}
, 			{
				"box" : 				{
					"id" : "obj-26",
					"maxclass" : "meter~",
					"numinlets" : 1,
					"numoutlets" : 1,
					"offcolor" : [ 0.662745098039216, 0.086274509803922, 0.996078431372549, 0.42 ],
					"oncolor" : [ 0.43921568627451, 0.996078431372549, 0.968627450980392, 1.0 ],
					"outlettype" : [ "float" ],
					"patching_rect" : [ 230.727272727272691, 334.0, 12.0, 61.0 ],
					"presentation" : 1,
					"presentation_rect" : [ 206.260380168755887, 27.561355590820313, 17.5, 61.0 ]
				}

			}
, 			{
				"box" : 				{
					"id" : "obj-20",
					"maxclass" : "newobj",
					"numinlets" : 1,
					"numoutlets" : 1,
					"outlettype" : [ "" ],
					"patching_rect" : [ -76.0, 107.0, 123.0, 33.0 ],
					"text" : "loadmess 1"
				}

			}
, 			{
				"box" : 				{
					"comment" : "2",
					"id" : "obj-27",
					"index" : 2,
					"maxclass" : "outlet",
					"numinlets" : 1,
					"numoutlets" : 0,
					"patching_rect" : [ 72.181818181818187, 425.0, 30.0, 30.0 ],
					"style" : "PupleStyle",
					"tricolor" : [ 0.996078431372549, 0.329411764705882, 0.866666666666667, 1.0 ]
				}

			}
, 			{
				"box" : 				{
					"comment" : "1",
					"id" : "obj-29",
					"index" : 1,
					"maxclass" : "outlet",
					"numinlets" : 1,
					"numoutlets" : 0,
					"patching_rect" : [ 26.0, 425.0, 30.0, 30.0 ],
					"style" : "PupleStyle",
					"tricolor" : [ 0.996078431372549, 0.329411764705882, 0.866666666666667, 1.0 ]
				}

			}
, 			{
				"box" : 				{
					"id" : "obj-23",
					"maxclass" : "meter~",
					"numinlets" : 1,
					"numoutlets" : 1,
					"offcolor" : [ 0.662745098039216, 0.086274509803922, 0.996078431372549, 0.42 ],
					"oncolor" : [ 0.43921568627451, 0.996078431372549, 0.968627450980392, 1.0 ],
					"outlettype" : [ "float" ],
					"patching_rect" : [ 68.072727272727278, 334.0, 12.0, 61.0 ],
					"presentation" : 1,
					"presentation_rect" : [ 28.660378559430441, 27.561355590820313, 17.5, 61.0 ]
				}

			}
, 			{
				"box" : 				{
					"id" : "obj-25",
					"maxclass" : "meter~",
					"numinlets" : 1,
					"numoutlets" : 1,
					"offcolor" : [ 0.662745098039216, 0.086274509803922, 0.996078431372549, 0.42 ],
					"oncolor" : [ 0.43921568627451, 0.996078431372549, 0.968627450980392, 1.0 ],
					"outlettype" : [ "float" ],
					"patching_rect" : [ 50.0, 334.0, 12.0, 61.0 ],
					"presentation" : 1,
					"presentation_rect" : [ 8.927045047283173, 27.561355590820313, 17.5, 61.0 ]
				}

			}
, 			{
				"box" : 				{
					"id" : "obj-18",
					"maxclass" : "newobj",
					"numinlets" : 1,
					"numoutlets" : 4,
					"outlettype" : [ "int", "float", "int", "int" ],
					"patching_rect" : [ 70.0, 82.0, 111.0, 33.0 ],
					"text" : "dspstate~",
					"textcolor" : [ 0.996078431606293, 0.996078431606293, 0.996078431606293, 0.650979995727539 ]
				}

			}
, 			{
				"box" : 				{
					"id" : "obj-19",
					"maxclass" : "comment",
					"numinlets" : 1,
					"numoutlets" : 0,
					"patching_rect" : [ 414.0, 141.0, 150.0, 31.0 ],
					"presentation" : 1,
					"presentation_rect" : [ 52.427047729492188, -1.438644409179688, 116.0, 31.0 ],
					"text" : "REAPER in"
				}

			}
, 			{
				"box" : 				{
					"fontsize" : 14.0,
					"id" : "obj-32",
					"linecount" : 2,
					"maxclass" : "comment",
					"numinlets" : 1,
					"numoutlets" : 0,
					"patching_rect" : [ 97.0, 117.0, 52.0, 41.0 ],
					"presentation" : 1,
					"presentation_linecount" : 2,
					"presentation_rect" : [ 360.0, 10.0, 52.0, 41.0 ],
					"text" : "DSP on/off",
					"textjustification" : 0
				}

			}
, 			{
				"box" : 				{
					"fontsize" : 14.0,
					"id" : "obj-30",
					"maxclass" : "comment",
					"numinlets" : 1,
					"numoutlets" : 0,
					"patching_rect" : [ 306.0, 82.0, 95.0, 24.0 ],
					"presentation" : 1,
					"presentation_linecount" : 2,
					"presentation_rect" : [ 361.0, 51.561355590820313, 62.0, 41.0 ],
					"text" : "audio status",
					"textjustification" : 0
				}

			}
, 			{
				"box" : 				{
					"id" : "obj-28",
					"maxclass" : "button",
					"numinlets" : 1,
					"numoutlets" : 1,
					"outlettype" : [ "bang" ],
					"parameter_enable" : 0,
					"patching_rect" : [ 268.5, 82.0, 32.5, 32.5 ],
					"presentation" : 1,
					"presentation_rect" : [ 324.427047729492188, 48.561355590820313, 44.0, 44.0 ]
				}

			}
, 			{
				"box" : 				{
					"id" : "obj-24",
					"maxclass" : "toggle",
					"numinlets" : 1,
					"numoutlets" : 1,
					"outlettype" : [ "int" ],
					"parameter_enable" : 0,
					"patching_rect" : [ 70.0, 127.0, 24.0, 24.0 ],
					"presentation" : 1,
					"presentation_rect" : [ 324.427047729492188, 10.0, 44.0, 44.0 ]
				}

			}
, 			{
				"box" : 				{
					"id" : "obj-22",
					"maxclass" : "message",
					"numinlets" : 2,
					"numoutlets" : 1,
					"outlettype" : [ "" ],
					"patching_rect" : [ 264.0, 127.0, 59.0, 33.0 ],
					"text" : "open"
				}

			}
, 			{
				"box" : 				{
					"id" : "obj-17",
					"maxclass" : "meter~",
					"numinlets" : 1,
					"numoutlets" : 1,
					"offcolor" : [ 0.662745098039216, 0.086274509803922, 0.996078431372549, 0.42 ],
					"oncolor" : [ 0.43921568627451, 0.996078431372549, 0.968627450980392, 1.0 ],
					"outlettype" : [ "float" ],
					"patching_rect" : [ 212.654545454545428, 334.0, 12.0, 61.0 ],
					"presentation" : 1,
					"presentation_rect" : [ 186.527046656608604, 27.561355590820313, 17.5, 61.0 ]
				}

			}
, 			{
				"box" : 				{
					"id" : "obj-16",
					"maxclass" : "meter~",
					"numinlets" : 1,
					"numoutlets" : 1,
					"offcolor" : [ 0.662745098039216, 0.086274509803922, 0.996078431372549, 0.42 ],
					"oncolor" : [ 0.43921568627451, 0.996078431372549, 0.968627450980392, 1.0 ],
					"outlettype" : [ "float" ],
					"patching_rect" : [ 194.581818181818164, 334.0, 12.0, 61.0 ],
					"presentation" : 1,
					"presentation_rect" : [ 166.793713144461321, 27.561355590820313, 17.5, 61.0 ]
				}

			}
, 			{
				"box" : 				{
					"id" : "obj-15",
					"maxclass" : "meter~",
					"numinlets" : 1,
					"numoutlets" : 1,
					"offcolor" : [ 0.662745098039216, 0.086274509803922, 0.996078431372549, 0.42 ],
					"oncolor" : [ 0.43921568627451, 0.996078431372549, 0.968627450980392, 1.0 ],
					"outlettype" : [ "float" ],
					"patching_rect" : [ 176.509090909090901, 334.0, 12.0, 61.0 ],
					"presentation" : 1,
					"presentation_rect" : [ 147.060379632314039, 27.561355590820313, 17.5, 61.0 ]
				}

			}
, 			{
				"box" : 				{
					"id" : "obj-14",
					"maxclass" : "meter~",
					"numinlets" : 1,
					"numoutlets" : 1,
					"offcolor" : [ 0.662745098039216, 0.086274509803922, 0.996078431372549, 0.42 ],
					"oncolor" : [ 0.43921568627451, 0.996078431372549, 0.968627450980392, 1.0 ],
					"outlettype" : [ "float" ],
					"patching_rect" : [ 158.436363636363637, 334.0, 12.0, 61.0 ],
					"presentation" : 1,
					"presentation_rect" : [ 127.327046120166784, 27.561355590820313, 17.5, 61.0 ]
				}

			}
, 			{
				"box" : 				{
					"id" : "obj-13",
					"maxclass" : "meter~",
					"numinlets" : 1,
					"numoutlets" : 1,
					"offcolor" : [ 0.662745098039216, 0.086274509803922, 0.996078431372549, 0.42 ],
					"oncolor" : [ 0.43921568627451, 0.996078431372549, 0.968627450980392, 1.0 ],
					"outlettype" : [ "float" ],
					"patching_rect" : [ 140.363636363636374, 334.0, 12.0, 61.0 ],
					"presentation" : 1,
					"presentation_rect" : [ 107.593712608019516, 27.561355590820313, 17.5, 61.0 ]
				}

			}
, 			{
				"box" : 				{
					"id" : "obj-12",
					"maxclass" : "meter~",
					"numinlets" : 1,
					"numoutlets" : 1,
					"offcolor" : [ 0.662745098039216, 0.086274509803922, 0.996078431372549, 0.42 ],
					"oncolor" : [ 0.43921568627451, 0.996078431372549, 0.968627450980392, 1.0 ],
					"outlettype" : [ "float" ],
					"patching_rect" : [ 122.290909090909111, 334.0, 12.0, 61.0 ],
					"presentation" : 1,
					"presentation_rect" : [ 87.860379095872247, 27.561355590820313, 17.5, 61.0 ]
				}

			}
, 			{
				"box" : 				{
					"id" : "obj-11",
					"maxclass" : "meter~",
					"numinlets" : 1,
					"numoutlets" : 1,
					"offcolor" : [ 0.662745098039216, 0.086274509803922, 0.996078431372549, 0.42 ],
					"oncolor" : [ 0.43921568627451, 0.996078431372549, 0.968627450980392, 1.0 ],
					"outlettype" : [ "float" ],
					"patching_rect" : [ 104.218181818181833, 334.0, 12.0, 61.0 ],
					"presentation" : 1,
					"presentation_rect" : [ 68.127045583724978, 27.561355590820313, 17.5, 61.0 ]
				}

			}
, 			{
				"box" : 				{
					"id" : "obj-10",
					"maxclass" : "meter~",
					"numinlets" : 1,
					"numoutlets" : 1,
					"offcolor" : [ 0.662745098039216, 0.086274509803922, 0.996078431372549, 0.42 ],
					"oncolor" : [ 0.43921568627451, 0.996078431372549, 0.968627450980392, 1.0 ],
					"outlettype" : [ "float" ],
					"patching_rect" : [ 86.145454545454555, 334.0, 12.0, 61.0 ],
					"presentation" : 1,
					"presentation_rect" : [ 48.39371207157771, 27.561355590820313, 17.5, 61.0 ]
				}

			}
, 			{
				"box" : 				{
					"id" : "obj-9",
					"maxclass" : "newobj",
					"numinlets" : 1,
					"numoutlets" : 16,
					"outlettype" : [ "signal", "signal", "signal", "signal", "signal", "signal", "signal", "signal", "signal", "signal", "signal", "signal", "signal", "signal", "signal", "signal" ],
					"patching_rect" : [ 72.928573608398438, 184.0, 465.0, 33.0 ],
					"text" : "adc~ 1 2 3 4 5 6 7 8 9 10 11 12 13 14 15 16",
					"textcolor" : [ 0.996078431606293, 0.996078431606293, 0.996078431606293, 0.650979995727539 ]
				}

			}
, 			{
				"box" : 				{
					"comment" : "10",
					"id" : "obj-8",
					"index" : 10,
					"maxclass" : "outlet",
					"numinlets" : 1,
					"numoutlets" : 0,
					"patching_rect" : [ 441.636363636363683, 425.0, 30.0, 30.0 ],
					"style" : "PupleStyle",
					"tricolor" : [ 0.996078431372549, 0.329411764705882, 0.866666666666667, 1.0 ]
				}

			}
, 			{
				"box" : 				{
					"comment" : "9",
					"id" : "obj-7",
					"index" : 9,
					"maxclass" : "outlet",
					"numinlets" : 1,
					"numoutlets" : 0,
					"patching_rect" : [ 395.454545454545496, 425.0, 30.0, 30.0 ],
					"style" : "PupleStyle",
					"tricolor" : [ 0.996078431372549, 0.329411764705882, 0.866666666666667, 1.0 ]
				}

			}
, 			{
				"box" : 				{
					"comment" : "8",
					"id" : "obj-6",
					"index" : 8,
					"maxclass" : "outlet",
					"numinlets" : 1,
					"numoutlets" : 0,
					"patching_rect" : [ 349.272727272727309, 425.0, 30.0, 30.0 ],
					"style" : "PupleStyle",
					"tricolor" : [ 0.996078431372549, 0.329411764705882, 0.866666666666667, 1.0 ]
				}

			}
, 			{
				"box" : 				{
					"comment" : "7",
					"id" : "obj-5",
					"index" : 7,
					"maxclass" : "outlet",
					"numinlets" : 1,
					"numoutlets" : 0,
					"patching_rect" : [ 303.090909090909122, 425.0, 30.0, 30.0 ],
					"style" : "PupleStyle",
					"tricolor" : [ 0.996078431372549, 0.329411764705882, 0.866666666666667, 1.0 ]
				}

			}
, 			{
				"box" : 				{
					"comment" : "6",
					"id" : "obj-4",
					"index" : 6,
					"maxclass" : "outlet",
					"numinlets" : 1,
					"numoutlets" : 0,
					"patching_rect" : [ 256.909090909090935, 425.0, 30.0, 30.0 ],
					"style" : "PupleStyle",
					"tricolor" : [ 0.996078431372549, 0.329411764705882, 0.866666666666667, 1.0 ]
				}

			}
, 			{
				"box" : 				{
					"comment" : "5",
					"id" : "obj-3",
					"index" : 5,
					"maxclass" : "outlet",
					"numinlets" : 1,
					"numoutlets" : 0,
					"patching_rect" : [ 210.727272727272748, 425.0, 30.0, 30.0 ],
					"style" : "PupleStyle",
					"tricolor" : [ 0.996078431372549, 0.329411764705882, 0.866666666666667, 1.0 ]
				}

			}
, 			{
				"box" : 				{
					"comment" : "4",
					"id" : "obj-2",
					"index" : 4,
					"maxclass" : "outlet",
					"numinlets" : 1,
					"numoutlets" : 0,
					"patching_rect" : [ 164.545454545454561, 425.0, 30.0, 30.0 ],
					"style" : "PupleStyle",
					"tricolor" : [ 0.996078431372549, 0.329411764705882, 0.866666666666667, 1.0 ]
				}

			}
, 			{
				"box" : 				{
					"comment" : "3",
					"id" : "obj-1",
					"index" : 3,
					"maxclass" : "outlet",
					"numinlets" : 1,
					"numoutlets" : 0,
					"patching_rect" : [ 118.363636363636374, 425.0, 30.0, 30.0 ],
					"style" : "PupleStyle",
					"tricolor" : [ 0.996078431372549, 0.329411764705882, 0.866666666666667, 1.0 ]
				}

			}
 ],
		"lines" : [ 			{
				"patchline" : 				{
					"destination" : [ "obj-24", 0 ],
					"source" : [ "obj-18", 0 ]
				}

			}
, 			{
				"patchline" : 				{
					"destination" : [ "obj-24", 0 ],
					"source" : [ "obj-20", 0 ]
				}

			}
, 			{
				"patchline" : 				{
					"destination" : [ "obj-9", 0 ],
					"source" : [ "obj-22", 0 ]
				}

			}
, 			{
				"patchline" : 				{
					"destination" : [ "obj-9", 0 ],
					"source" : [ "obj-24", 0 ]
				}

			}
, 			{
				"patchline" : 				{
					"destination" : [ "obj-22", 0 ],
					"source" : [ "obj-28", 0 ]
				}

			}
, 			{
				"patchline" : 				{
					"destination" : [ "obj-1", 0 ],
					"order" : 0,
					"source" : [ "obj-9", 2 ]
				}

			}
, 			{
				"patchline" : 				{
					"destination" : [ "obj-10", 0 ],
					"order" : 1,
					"source" : [ "obj-9", 2 ]
				}

			}
, 			{
				"patchline" : 				{
					"destination" : [ "obj-11", 0 ],
					"order" : 1,
					"source" : [ "obj-9", 3 ]
				}

			}
, 			{
				"patchline" : 				{
					"destination" : [ "obj-12", 0 ],
					"order" : 1,
					"source" : [ "obj-9", 4 ]
				}

			}
, 			{
				"patchline" : 				{
					"destination" : [ "obj-13", 0 ],
					"order" : 1,
					"source" : [ "obj-9", 5 ]
				}

			}
, 			{
				"patchline" : 				{
					"destination" : [ "obj-14", 0 ],
					"order" : 1,
					"source" : [ "obj-9", 6 ]
				}

			}
, 			{
				"patchline" : 				{
					"destination" : [ "obj-15", 0 ],
					"order" : 1,
					"source" : [ "obj-9", 7 ]
				}

			}
, 			{
				"patchline" : 				{
					"destination" : [ "obj-16", 0 ],
					"order" : 1,
					"source" : [ "obj-9", 8 ]
				}

			}
, 			{
				"patchline" : 				{
					"destination" : [ "obj-17", 0 ],
					"order" : 1,
					"source" : [ "obj-9", 9 ]
				}

			}
, 			{
				"patchline" : 				{
					"destination" : [ "obj-2", 0 ],
					"order" : 0,
					"source" : [ "obj-9", 3 ]
				}

			}
, 			{
				"patchline" : 				{
					"destination" : [ "obj-21", 0 ],
					"order" : 1,
					"source" : [ "obj-9", 11 ]
				}

			}
, 			{
				"patchline" : 				{
					"destination" : [ "obj-23", 0 ],
					"order" : 1,
					"source" : [ "obj-9", 1 ]
				}

			}
, 			{
				"patchline" : 				{
					"destination" : [ "obj-25", 0 ],
					"order" : 0,
					"source" : [ "obj-9", 0 ]
				}

			}
, 			{
				"patchline" : 				{
					"destination" : [ "obj-26", 0 ],
					"order" : 1,
					"source" : [ "obj-9", 10 ]
				}

			}
, 			{
				"patchline" : 				{
					"destination" : [ "obj-27", 0 ],
					"order" : 0,
					"source" : [ "obj-9", 1 ]
				}

			}
, 			{
				"patchline" : 				{
					"destination" : [ "obj-29", 0 ],
					"order" : 1,
					"source" : [ "obj-9", 0 ]
				}

			}
, 			{
				"patchline" : 				{
					"destination" : [ "obj-3", 0 ],
					"order" : 0,
					"source" : [ "obj-9", 4 ]
				}

			}
, 			{
				"patchline" : 				{
					"destination" : [ "obj-31", 0 ],
					"order" : 0,
					"source" : [ "obj-9", 11 ]
				}

			}
, 			{
				"patchline" : 				{
					"destination" : [ "obj-33", 0 ],
					"order" : 0,
					"source" : [ "obj-9", 10 ]
				}

			}
, 			{
				"patchline" : 				{
					"destination" : [ "obj-34", 0 ],
					"order" : 0,
					"source" : [ "obj-9", 15 ]
				}

			}
, 			{
				"patchline" : 				{
					"destination" : [ "obj-35", 0 ],
					"order" : 0,
					"source" : [ "obj-9", 14 ]
				}

			}
, 			{
				"patchline" : 				{
					"destination" : [ "obj-36", 0 ],
					"order" : 0,
					"source" : [ "obj-9", 13 ]
				}

			}
, 			{
				"patchline" : 				{
					"destination" : [ "obj-37", 0 ],
					"order" : 0,
					"source" : [ "obj-9", 12 ]
				}

			}
, 			{
				"patchline" : 				{
					"destination" : [ "obj-38", 0 ],
					"order" : 1,
					"source" : [ "obj-9", 15 ]
				}

			}
, 			{
				"patchline" : 				{
					"destination" : [ "obj-39", 0 ],
					"order" : 1,
					"source" : [ "obj-9", 14 ]
				}

			}
, 			{
				"patchline" : 				{
					"destination" : [ "obj-4", 0 ],
					"order" : 0,
					"source" : [ "obj-9", 5 ]
				}

			}
, 			{
				"patchline" : 				{
					"destination" : [ "obj-40", 0 ],
					"order" : 1,
					"source" : [ "obj-9", 13 ]
				}

			}
, 			{
				"patchline" : 				{
					"destination" : [ "obj-41", 0 ],
					"order" : 1,
					"source" : [ "obj-9", 12 ]
				}

			}
, 			{
				"patchline" : 				{
					"destination" : [ "obj-5", 0 ],
					"order" : 0,
					"source" : [ "obj-9", 6 ]
				}

			}
, 			{
				"patchline" : 				{
					"destination" : [ "obj-6", 0 ],
					"order" : 0,
					"source" : [ "obj-9", 7 ]
				}

			}
, 			{
				"patchline" : 				{
					"destination" : [ "obj-7", 0 ],
					"order" : 0,
					"source" : [ "obj-9", 8 ]
				}

			}
, 			{
				"patchline" : 				{
					"destination" : [ "obj-8", 0 ],
					"order" : 0,
					"source" : [ "obj-9", 9 ]
				}

			}
 ],
		"styles" : [ 			{
				"name" : "PupleStyle",
				"toggle" : 				{
					"color" : [ 0.941176, 0.678431, 0.890196, 1.0 ],
					"bgcolor" : [ 0.290196, 0.309804, 0.301961, 0.0 ]
				}
,
				"default" : 				{
					"color" : [ 0.515478, 0.649409, 0.63182, 1.0 ],
					"bgcolor" : [ 0.392157, 0.376471, 0.470588, 1.0 ],
					"textcolor_inverse" : [ 0.0, 0.0, 0.0, 1.0 ],
					"fontname" : [ "Fira Code" ],
					"patchlinecolor" : [ 0.65098, 0.862745, 0.521569, 0.898039 ],
					"textcolor" : [ 0.67451, 0.847059, 0.737255, 1.0 ],
					"accentcolor" : [ 1.0, 1.0, 1.0, 0.15 ],
					"fontsize" : [ 20.0 ],
					"elementcolor" : [ 0.654902, 0.572549, 0.376471, 1.0 ]
				}
,
				"slider" : 				{
					"color" : [ 0.827451, 0.364706, 0.541176, 1.0 ],
					"bgcolor" : [ 0.290196, 0.309804, 0.301961, 0.0 ],
					"elementcolor" : [ 0.062745, 0.015686, 0.180392, 0.423529 ]
				}
,
				"button" : 				{
					"color" : [ 0.941176, 0.678431, 0.890196, 1.0 ],
					"bgcolor" : [ 0.290196, 0.309804, 0.301961, 0.0 ],
					"elementcolor" : [ 0.827451, 0.364706, 0.541176, 1.0 ]
				}
,
				"number" : 				{
					"selectioncolor" : [ 1.0, 1.0, 1.0, 1.0 ],
					"bgcolor" : [ 0.047059, 0.913725, 0.913725, 1.0 ],
					"textcolor_inverse" : [ 0.0, 0.0, 0.0, 0.65098 ],
					"fontname" : [ "Fira Code" ],
					"accentcolor" : [ 0.0, 0.0, 0.0, 0.65098 ],
					"fontsize" : [ 20.0 ]
				}
,
				"newobj" : 				{
					"bgcolor" : [ 0.062745, 0.015686, 0.180392, 0.423529 ],
					"textjustification" : [ 1 ],
					"fontname" : [ "Fira Code" ],
					"accentcolor" : [ 0.584314, 0.403922, 0.533333, 1.0 ],
					"fontsize" : [ 20.0 ]
				}
,
				"message" : 				{
					"textcolor_inverse" : [ 0.894118, 0.745098, 0.745098, 1.0 ],
					"textjustification" : [ 1 ],
					"fontname" : [ "Fira Code" ],
					"bgfillcolor" : 					{
						"type" : "gradient",
						"color" : [ 0.290196, 0.309804, 0.301961, 1.0 ],
						"color1" : [ 0.223529, 0.266667, 0.454902, 0.458824 ],
						"color2" : [ 0.031373, 0.027451, 0.031373, 0.466667 ],
						"angle" : 270.0,
						"proportion" : 0.39,
						"autogradient" : 0
					}
,
					"fontsize" : [ 20.0 ]
				}
,
				"comment" : 				{
					"textjustification" : [ 1 ],
					"fontname" : [ "Fira Code" ],
					"textcolor" : [ 0.439216, 0.74902, 0.254902, 0.639216 ],
					"fontsize" : [ 20.0 ]
				}
,
				"parentstyle" : "",
				"multi" : 0
			}
 ],
		"bgcolor" : [ 0.0, 0.0, 0.0, 1.0 ],
		"editing_bgcolor" : [ 0.176470588235294, 0.141176470588235, 0.180392156862745, 1.0 ],
		"stripecolor" : [ 0.513725490196078, 0.47843137254902, 0.47843137254902, 1.0 ]
	}

}
