{
	"patcher" : 	{
		"fileversion" : 1,
		"appversion" : 		{
			"major" : 8,
			"minor" : 1,
			"revision" : 0,
			"architecture" : "x64",
			"modernui" : 1
		}
,
		"classnamespace" : "box",
		"rect" : [ 1810.0, 274.0, 781.0, 562.0 ],
		"bglocked" : 0,
		"openinpresentation" : 1,
		"default_fontsize" : 20.0,
		"default_fontface" : 0,
		"default_fontname" : "Fira Code",
		"gridonopen" : 1,
		"gridsize" : [ 15.0, 15.0 ],
		"gridsnaponopen" : 1,
		"objectsnaponopen" : 1,
		"statusbarvisible" : 2,
		"toolbarvisible" : 1,
		"lefttoolbarpinned" : 0,
		"toptoolbarpinned" : 0,
		"righttoolbarpinned" : 0,
		"bottomtoolbarpinned" : 0,
		"toolbars_unpinned_last_save" : 0,
		"tallnewobj" : 0,
		"boxanimatetime" : 200,
		"enablehscroll" : 1,
		"enablevscroll" : 1,
		"devicewidth" : 0.0,
		"description" : "",
		"digest" : "",
		"tags" : "",
		"style" : "PupleStyle",
		"subpatcher_template" : "PurpleTemplate2018",
		"boxes" : [ 			{
				"box" : 				{
					"comment" : "16",
					"id" : "obj-38",
					"index" : 16,
					"maxclass" : "inlet",
					"numinlets" : 0,
					"numoutlets" : 1,
					"outlettype" : [ "" ],
					"patching_rect" : [ 653.499999999999773, 14.0, 30.0, 30.0 ]
				}

			}
, 			{
				"box" : 				{
					"comment" : "15",
					"id" : "obj-39",
					"index" : 15,
					"maxclass" : "inlet",
					"numinlets" : 0,
					"numoutlets" : 1,
					"outlettype" : [ "" ],
					"patching_rect" : [ 611.46666666666647, 14.0, 30.0, 30.0 ]
				}

			}
, 			{
				"box" : 				{
					"comment" : "15",
					"id" : "obj-34",
					"index" : 14,
					"maxclass" : "inlet",
					"numinlets" : 0,
					"numoutlets" : 1,
					"outlettype" : [ "" ],
					"patching_rect" : [ 569.433333333333167, 14.0, 30.0, 30.0 ]
				}

			}
, 			{
				"box" : 				{
					"comment" : "13",
					"id" : "obj-35",
					"index" : 13,
					"maxclass" : "inlet",
					"numinlets" : 0,
					"numoutlets" : 1,
					"outlettype" : [ "" ],
					"patching_rect" : [ 527.399999999999864, 14.0, 30.0, 30.0 ]
				}

			}
, 			{
				"box" : 				{
					"comment" : "12",
					"id" : "obj-36",
					"index" : 12,
					"maxclass" : "inlet",
					"numinlets" : 0,
					"numoutlets" : 1,
					"outlettype" : [ "" ],
					"patching_rect" : [ 485.366666666666561, 14.0, 30.0, 30.0 ]
				}

			}
, 			{
				"box" : 				{
					"comment" : "11",
					"id" : "obj-37",
					"index" : 11,
					"maxclass" : "inlet",
					"numinlets" : 0,
					"numoutlets" : 1,
					"outlettype" : [ "" ],
					"patching_rect" : [ 443.333333333333258, 14.0, 30.0, 30.0 ]
				}

			}
, 			{
				"box" : 				{
					"id" : "obj-27",
					"maxclass" : "meter~",
					"numinlets" : 1,
					"numoutlets" : 1,
					"offcolor" : [ 0.662745098039216, 0.086274509803922, 0.996078431372549, 0.42 ],
					"oncolor" : [ 0.43921568627451, 0.996078431372549, 0.968627450980392, 1.0 ],
					"outlettype" : [ "float" ],
					"patching_rect" : [ 264.0, 317.0, 12.0, 61.0 ],
					"presentation" : 1,
					"presentation_rect" : [ 234.927047729492273, 20.561355590820313, 17.5, 61.0 ]
				}

			}
, 			{
				"box" : 				{
					"id" : "obj-29",
					"maxclass" : "meter~",
					"numinlets" : 1,
					"numoutlets" : 1,
					"offcolor" : [ 0.662745098039216, 0.086274509803922, 0.996078431372549, 0.42 ],
					"oncolor" : [ 0.43921568627451, 0.996078431372549, 0.968627450980392, 1.0 ],
					"outlettype" : [ "float" ],
					"patching_rect" : [ 246.615384615384642, 317.0, 12.0, 61.0 ],
					"presentation" : 1,
					"presentation_rect" : [ 216.850124446245417, 20.561355590820313, 17.5, 61.0 ]
				}

			}
, 			{
				"box" : 				{
					"id" : "obj-31",
					"maxclass" : "meter~",
					"numinlets" : 1,
					"numoutlets" : 1,
					"offcolor" : [ 0.662745098039216, 0.086274509803922, 0.996078431372549, 0.42 ],
					"oncolor" : [ 0.43921568627451, 0.996078431372549, 0.968627450980392, 1.0 ],
					"outlettype" : [ "float" ],
					"patching_rect" : [ 229.230769230769255, 317.0, 12.0, 61.0 ],
					"presentation" : 1,
					"presentation_rect" : [ 198.773201162998561, 20.561355590820313, 17.5, 61.0 ]
				}

			}
, 			{
				"box" : 				{
					"id" : "obj-33",
					"maxclass" : "meter~",
					"numinlets" : 1,
					"numoutlets" : 1,
					"offcolor" : [ 0.662745098039216, 0.086274509803922, 0.996078431372549, 0.42 ],
					"oncolor" : [ 0.43921568627451, 0.996078431372549, 0.968627450980392, 1.0 ],
					"outlettype" : [ "float" ],
					"patching_rect" : [ 211.846153846153868, 317.0, 12.0, 61.0 ],
					"presentation" : 1,
					"presentation_rect" : [ 180.696277879751705, 20.561355590820313, 17.5, 61.0 ]
				}

			}
, 			{
				"box" : 				{
					"id" : "obj-26",
					"maxclass" : "newobj",
					"numinlets" : 1,
					"numoutlets" : 1,
					"outlettype" : [ "" ],
					"patching_rect" : [ 520.0, 122.0, 123.0, 33.0 ],
					"text" : "loadmess 1"
				}

			}
, 			{
				"box" : 				{
					"comment" : "10",
					"id" : "obj-23",
					"index" : 10,
					"maxclass" : "inlet",
					"numinlets" : 0,
					"numoutlets" : 1,
					"outlettype" : [ "" ],
					"patching_rect" : [ 401.299999999999955, 14.0, 30.0, 30.0 ]
				}

			}
, 			{
				"box" : 				{
					"comment" : "9",
					"id" : "obj-25",
					"index" : 9,
					"maxclass" : "inlet",
					"numinlets" : 0,
					"numoutlets" : 1,
					"outlettype" : [ "signal" ],
					"patching_rect" : [ 359.266666666666652, 14.0, 30.0, 30.0 ]
				}

			}
, 			{
				"box" : 				{
					"id" : "obj-20",
					"maxclass" : "meter~",
					"numinlets" : 1,
					"numoutlets" : 1,
					"offcolor" : [ 0.662745098039216, 0.086274509803922, 0.996078431372549, 0.42 ],
					"oncolor" : [ 0.43921568627451, 0.996078431372549, 0.968627450980392, 1.0 ],
					"outlettype" : [ "float" ],
					"patching_rect" : [ 194.461538461538481, 317.0, 12.0, 61.0 ],
					"presentation" : 1,
					"presentation_rect" : [ 162.619354596504849, 20.561355590820313, 17.5, 61.0 ]
				}

			}
, 			{
				"box" : 				{
					"id" : "obj-21",
					"maxclass" : "meter~",
					"numinlets" : 1,
					"numoutlets" : 1,
					"offcolor" : [ 0.662745098039216, 0.086274509803922, 0.996078431372549, 0.42 ],
					"oncolor" : [ 0.43921568627451, 0.996078431372549, 0.968627450980392, 1.0 ],
					"outlettype" : [ "float" ],
					"patching_rect" : [ 177.076923076923094, 317.0, 12.0, 61.0 ],
					"presentation" : 1,
					"presentation_rect" : [ 144.542431313257993, 20.561355590820313, 17.5, 61.0 ]
				}

			}
, 			{
				"box" : 				{
					"comment" : "8",
					"id" : "obj-8",
					"index" : 8,
					"maxclass" : "inlet",
					"numinlets" : 0,
					"numoutlets" : 1,
					"outlettype" : [ "signal" ],
					"patching_rect" : [ 317.233333333333348, 14.0, 30.0, 30.0 ]
				}

			}
, 			{
				"box" : 				{
					"comment" : "7",
					"id" : "obj-7",
					"index" : 7,
					"maxclass" : "inlet",
					"numinlets" : 0,
					"numoutlets" : 1,
					"outlettype" : [ "signal" ],
					"patching_rect" : [ 275.199999999999989, 14.0, 30.0, 30.0 ]
				}

			}
, 			{
				"box" : 				{
					"comment" : "6",
					"id" : "obj-6",
					"index" : 6,
					"maxclass" : "inlet",
					"numinlets" : 0,
					"numoutlets" : 1,
					"outlettype" : [ "signal" ],
					"patching_rect" : [ 233.166666666666657, 14.0, 30.0, 30.0 ]
				}

			}
, 			{
				"box" : 				{
					"comment" : "5",
					"id" : "obj-5",
					"index" : 5,
					"maxclass" : "inlet",
					"numinlets" : 0,
					"numoutlets" : 1,
					"outlettype" : [ "signal" ],
					"patching_rect" : [ 191.133333333333326, 14.0, 30.0, 30.0 ]
				}

			}
, 			{
				"box" : 				{
					"comment" : "4",
					"id" : "obj-4",
					"index" : 4,
					"maxclass" : "inlet",
					"numinlets" : 0,
					"numoutlets" : 1,
					"outlettype" : [ "signal" ],
					"patching_rect" : [ 149.099999999999994, 14.0, 30.0, 30.0 ]
				}

			}
, 			{
				"box" : 				{
					"comment" : "3",
					"id" : "obj-3",
					"index" : 3,
					"maxclass" : "inlet",
					"numinlets" : 0,
					"numoutlets" : 1,
					"outlettype" : [ "signal" ],
					"patching_rect" : [ 107.066666666666663, 14.0, 30.0, 30.0 ]
				}

			}
, 			{
				"box" : 				{
					"comment" : "2",
					"id" : "obj-2",
					"index" : 2,
					"maxclass" : "inlet",
					"numinlets" : 0,
					"numoutlets" : 1,
					"outlettype" : [ "signal" ],
					"patching_rect" : [ 65.033333333333331, 14.0, 30.0, 30.0 ]
				}

			}
, 			{
				"box" : 				{
					"comment" : "1",
					"id" : "obj-1",
					"index" : 1,
					"maxclass" : "inlet",
					"numinlets" : 0,
					"numoutlets" : 1,
					"outlettype" : [ "signal" ],
					"patching_rect" : [ 23.0, 14.0, 30.0, 30.0 ]
				}

			}
, 			{
				"box" : 				{
					"id" : "obj-18",
					"maxclass" : "newobj",
					"numinlets" : 1,
					"numoutlets" : 4,
					"outlettype" : [ "int", "float", "int", "int" ],
					"patching_rect" : [ 70.0, 82.0, 110.0, 33.0 ],
					"text" : "dspstate~",
					"textcolor" : [ 0.996078431606293, 0.996078431606293, 0.996078431606293, 0.650979995727539 ]
				}

			}
, 			{
				"box" : 				{
					"id" : "obj-19",
					"maxclass" : "comment",
					"numinlets" : 1,
					"numoutlets" : 0,
					"patching_rect" : [ 512.0, 244.0, 150.0, 31.0 ],
					"presentation" : 1,
					"presentation_rect" : [ 48.63858474676428, -3.438644409179688, 137.0, 31.0 ],
					"text" : "REAPER out"
				}

			}
, 			{
				"box" : 				{
					"fontsize" : 14.0,
					"id" : "obj-32",
					"linecount" : 2,
					"maxclass" : "comment",
					"numinlets" : 1,
					"numoutlets" : 0,
					"patching_rect" : [ 97.0, 117.0, 52.0, 41.0 ],
					"presentation" : 1,
					"presentation_linecount" : 2,
					"presentation_rect" : [ 285.0, 9.061355590820313, 52.0, 41.0 ],
					"text" : "DSP on/off",
					"textjustification" : 0
				}

			}
, 			{
				"box" : 				{
					"fontsize" : 14.0,
					"id" : "obj-30",
					"maxclass" : "comment",
					"numinlets" : 1,
					"numoutlets" : 0,
					"patching_rect" : [ 306.0, 82.0, 95.0, 24.0 ],
					"presentation" : 1,
					"presentation_linecount" : 2,
					"presentation_rect" : [ 286.0, 50.622711181640625, 62.0, 41.0 ],
					"text" : "audio status",
					"textjustification" : 0
				}

			}
, 			{
				"box" : 				{
					"id" : "obj-28",
					"maxclass" : "button",
					"numinlets" : 1,
					"numoutlets" : 1,
					"outlettype" : [ "bang" ],
					"parameter_enable" : 0,
					"patching_rect" : [ 268.5, 82.0, 32.5, 32.5 ],
					"presentation" : 1,
					"presentation_rect" : [ 249.427047729492188, 47.622711181640625, 44.0, 44.0 ]
				}

			}
, 			{
				"box" : 				{
					"id" : "obj-24",
					"maxclass" : "toggle",
					"numinlets" : 1,
					"numoutlets" : 1,
					"outlettype" : [ "int" ],
					"parameter_enable" : 0,
					"patching_rect" : [ 70.0, 127.0, 24.0, 24.0 ],
					"presentation" : 1,
					"presentation_rect" : [ 249.427047729492188, 9.061355590820313, 44.0, 44.0 ]
				}

			}
, 			{
				"box" : 				{
					"id" : "obj-22",
					"maxclass" : "message",
					"numinlets" : 2,
					"numoutlets" : 1,
					"outlettype" : [ "" ],
					"patching_rect" : [ 264.0, 127.0, 58.0, 33.0 ],
					"text" : "open"
				}

			}
, 			{
				"box" : 				{
					"id" : "obj-17",
					"maxclass" : "meter~",
					"numinlets" : 1,
					"numoutlets" : 1,
					"offcolor" : [ 0.662745098039216, 0.086274509803922, 0.996078431372549, 0.42 ],
					"oncolor" : [ 0.43921568627451, 0.996078431372549, 0.968627450980392, 1.0 ],
					"outlettype" : [ "float" ],
					"patching_rect" : [ 159.692307692307708, 317.0, 12.0, 61.0 ],
					"presentation" : 1,
					"presentation_rect" : [ 126.465508030011136, 20.561355590820313, 17.5, 61.0 ]
				}

			}
, 			{
				"box" : 				{
					"id" : "obj-16",
					"maxclass" : "meter~",
					"numinlets" : 1,
					"numoutlets" : 1,
					"offcolor" : [ 0.662745098039216, 0.086274509803922, 0.996078431372549, 0.42 ],
					"oncolor" : [ 0.43921568627451, 0.996078431372549, 0.968627450980392, 1.0 ],
					"outlettype" : [ "float" ],
					"patching_rect" : [ 142.307692307692321, 317.0, 12.0, 61.0 ],
					"presentation" : 1,
					"presentation_rect" : [ 108.38858474676428, 20.561355590820313, 17.5, 61.0 ]
				}

			}
, 			{
				"box" : 				{
					"id" : "obj-15",
					"maxclass" : "meter~",
					"numinlets" : 1,
					"numoutlets" : 1,
					"offcolor" : [ 0.662745098039216, 0.086274509803922, 0.996078431372549, 0.42 ],
					"oncolor" : [ 0.43921568627451, 0.996078431372549, 0.968627450980392, 1.0 ],
					"outlettype" : [ "float" ],
					"patching_rect" : [ 124.923076923076934, 317.0, 12.0, 61.0 ],
					"presentation" : 1,
					"presentation_rect" : [ 90.311661463517424, 20.561355590820313, 17.5, 61.0 ]
				}

			}
, 			{
				"box" : 				{
					"id" : "obj-14",
					"maxclass" : "meter~",
					"numinlets" : 1,
					"numoutlets" : 1,
					"offcolor" : [ 0.662745098039216, 0.086274509803922, 0.996078431372549, 0.42 ],
					"oncolor" : [ 0.43921568627451, 0.996078431372549, 0.968627450980392, 1.0 ],
					"outlettype" : [ "float" ],
					"patching_rect" : [ 107.538461538461547, 317.0, 12.0, 61.0 ],
					"presentation" : 1,
					"presentation_rect" : [ 72.234738180270568, 20.561355590820313, 17.5, 61.0 ]
				}

			}
, 			{
				"box" : 				{
					"id" : "obj-13",
					"maxclass" : "meter~",
					"numinlets" : 1,
					"numoutlets" : 1,
					"offcolor" : [ 0.662745098039216, 0.086274509803922, 0.996078431372549, 0.42 ],
					"oncolor" : [ 0.43921568627451, 0.996078431372549, 0.968627450980392, 1.0 ],
					"outlettype" : [ "float" ],
					"patching_rect" : [ 90.15384615384616, 317.0, 12.0, 61.0 ],
					"presentation" : 1,
					"presentation_rect" : [ 54.157814897023719, 20.561355590820313, 17.5, 61.0 ]
				}

			}
, 			{
				"box" : 				{
					"id" : "obj-12",
					"maxclass" : "meter~",
					"numinlets" : 1,
					"numoutlets" : 1,
					"offcolor" : [ 0.662745098039216, 0.086274509803922, 0.996078431372549, 0.42 ],
					"oncolor" : [ 0.43921568627451, 0.996078431372549, 0.968627450980392, 1.0 ],
					"outlettype" : [ "float" ],
					"patching_rect" : [ 72.769230769230774, 317.0, 12.0, 61.0 ],
					"presentation" : 1,
					"presentation_rect" : [ 36.08089161377687, 20.561355590820313, 17.5, 61.0 ]
				}

			}
, 			{
				"box" : 				{
					"id" : "obj-11",
					"maxclass" : "meter~",
					"numinlets" : 1,
					"numoutlets" : 1,
					"offcolor" : [ 0.662745098039216, 0.086274509803922, 0.996078431372549, 0.42 ],
					"oncolor" : [ 0.43921568627451, 0.996078431372549, 0.968627450980392, 1.0 ],
					"outlettype" : [ "float" ],
					"patching_rect" : [ 55.384615384615387, 317.0, 12.0, 61.0 ],
					"presentation" : 1,
					"presentation_rect" : [ 18.003968330530022, 20.561355590820313, 17.5, 61.0 ]
				}

			}
, 			{
				"box" : 				{
					"id" : "obj-10",
					"maxclass" : "meter~",
					"numinlets" : 1,
					"numoutlets" : 1,
					"offcolor" : [ 0.662745098039216, 0.086274509803922, 0.996078431372549, 0.42 ],
					"oncolor" : [ 0.43921568627451, 0.996078431372549, 0.968627450980392, 1.0 ],
					"outlettype" : [ "float" ],
					"patching_rect" : [ 38.0, 317.0, 12.0, 61.0 ],
					"presentation" : 1,
					"presentation_rect" : [ -0.072954952716827, 20.561355590820313, 17.5, 61.0 ]
				}

			}
, 			{
				"box" : 				{
					"id" : "obj-9",
					"maxclass" : "newobj",
					"numinlets" : 16,
					"numoutlets" : 0,
					"patching_rect" : [ 37.266666666666666, 244.0, 465.0, 33.0 ],
					"text" : "dac~ 1 2 3 4 5 6 7 8 9 10 11 12 13 14 15 16",
					"textcolor" : [ 0.996078431606293, 0.996078431606293, 0.996078431606293, 0.650979995727539 ]
				}

			}
 ],
		"lines" : [ 			{
				"patchline" : 				{
					"destination" : [ "obj-10", 0 ],
					"order" : 1,
					"source" : [ "obj-1", 0 ]
				}

			}
, 			{
				"patchline" : 				{
					"destination" : [ "obj-9", 0 ],
					"order" : 0,
					"source" : [ "obj-1", 0 ]
				}

			}
, 			{
				"patchline" : 				{
					"destination" : [ "obj-24", 0 ],
					"source" : [ "obj-18", 0 ]
				}

			}
, 			{
				"patchline" : 				{
					"destination" : [ "obj-11", 0 ],
					"order" : 1,
					"source" : [ "obj-2", 0 ]
				}

			}
, 			{
				"patchline" : 				{
					"destination" : [ "obj-9", 1 ],
					"order" : 0,
					"source" : [ "obj-2", 0 ]
				}

			}
, 			{
				"patchline" : 				{
					"destination" : [ "obj-9", 0 ],
					"source" : [ "obj-22", 0 ]
				}

			}
, 			{
				"patchline" : 				{
					"destination" : [ "obj-20", 0 ],
					"order" : 1,
					"source" : [ "obj-23", 0 ]
				}

			}
, 			{
				"patchline" : 				{
					"destination" : [ "obj-9", 9 ],
					"order" : 0,
					"source" : [ "obj-23", 0 ]
				}

			}
, 			{
				"patchline" : 				{
					"destination" : [ "obj-9", 0 ],
					"source" : [ "obj-24", 0 ]
				}

			}
, 			{
				"patchline" : 				{
					"destination" : [ "obj-21", 0 ],
					"order" : 1,
					"source" : [ "obj-25", 0 ]
				}

			}
, 			{
				"patchline" : 				{
					"destination" : [ "obj-9", 8 ],
					"order" : 0,
					"source" : [ "obj-25", 0 ]
				}

			}
, 			{
				"patchline" : 				{
					"destination" : [ "obj-24", 0 ],
					"source" : [ "obj-26", 0 ]
				}

			}
, 			{
				"patchline" : 				{
					"destination" : [ "obj-22", 0 ],
					"source" : [ "obj-28", 0 ]
				}

			}
, 			{
				"patchline" : 				{
					"destination" : [ "obj-12", 0 ],
					"order" : 1,
					"source" : [ "obj-3", 0 ]
				}

			}
, 			{
				"patchline" : 				{
					"destination" : [ "obj-9", 2 ],
					"order" : 0,
					"source" : [ "obj-3", 0 ]
				}

			}
, 			{
				"patchline" : 				{
					"destination" : [ "obj-9", 13 ],
					"source" : [ "obj-34", 0 ]
				}

			}
, 			{
				"patchline" : 				{
					"destination" : [ "obj-9", 12 ],
					"source" : [ "obj-35", 0 ]
				}

			}
, 			{
				"patchline" : 				{
					"destination" : [ "obj-9", 11 ],
					"source" : [ "obj-36", 0 ]
				}

			}
, 			{
				"patchline" : 				{
					"destination" : [ "obj-9", 10 ],
					"source" : [ "obj-37", 0 ]
				}

			}
, 			{
				"patchline" : 				{
					"destination" : [ "obj-9", 15 ],
					"source" : [ "obj-38", 0 ]
				}

			}
, 			{
				"patchline" : 				{
					"destination" : [ "obj-9", 14 ],
					"source" : [ "obj-39", 0 ]
				}

			}
, 			{
				"patchline" : 				{
					"destination" : [ "obj-13", 0 ],
					"order" : 1,
					"source" : [ "obj-4", 0 ]
				}

			}
, 			{
				"patchline" : 				{
					"destination" : [ "obj-9", 3 ],
					"order" : 0,
					"source" : [ "obj-4", 0 ]
				}

			}
, 			{
				"patchline" : 				{
					"destination" : [ "obj-14", 0 ],
					"order" : 1,
					"source" : [ "obj-5", 0 ]
				}

			}
, 			{
				"patchline" : 				{
					"destination" : [ "obj-9", 4 ],
					"order" : 0,
					"source" : [ "obj-5", 0 ]
				}

			}
, 			{
				"patchline" : 				{
					"destination" : [ "obj-15", 0 ],
					"order" : 1,
					"source" : [ "obj-6", 0 ]
				}

			}
, 			{
				"patchline" : 				{
					"destination" : [ "obj-9", 5 ],
					"order" : 0,
					"source" : [ "obj-6", 0 ]
				}

			}
, 			{
				"patchline" : 				{
					"destination" : [ "obj-16", 0 ],
					"order" : 1,
					"source" : [ "obj-7", 0 ]
				}

			}
, 			{
				"patchline" : 				{
					"destination" : [ "obj-9", 6 ],
					"order" : 0,
					"source" : [ "obj-7", 0 ]
				}

			}
, 			{
				"patchline" : 				{
					"destination" : [ "obj-17", 0 ],
					"order" : 1,
					"source" : [ "obj-8", 0 ]
				}

			}
, 			{
				"patchline" : 				{
					"destination" : [ "obj-9", 7 ],
					"order" : 0,
					"source" : [ "obj-8", 0 ]
				}

			}
 ],
		"styles" : [ 			{
				"name" : "PupleStyle",
				"toggle" : 				{
					"color" : [ 0.941176, 0.678431, 0.890196, 1.0 ],
					"bgcolor" : [ 0.290196, 0.309804, 0.301961, 0.0 ]
				}
,
				"default" : 				{
					"color" : [ 0.515478, 0.649409, 0.63182, 1.0 ],
					"bgcolor" : [ 0.392157, 0.376471, 0.470588, 1.0 ],
					"textcolor_inverse" : [ 0.0, 0.0, 0.0, 1.0 ],
					"fontname" : [ "Fira Code" ],
					"patchlinecolor" : [ 0.65098, 0.862745, 0.521569, 0.898039 ],
					"textcolor" : [ 0.67451, 0.847059, 0.737255, 1.0 ],
					"accentcolor" : [ 1.0, 1.0, 1.0, 0.15 ],
					"fontsize" : [ 20.0 ],
					"elementcolor" : [ 0.654902, 0.572549, 0.376471, 1.0 ]
				}
,
				"slider" : 				{
					"color" : [ 0.827451, 0.364706, 0.541176, 1.0 ],
					"bgcolor" : [ 0.290196, 0.309804, 0.301961, 0.0 ],
					"elementcolor" : [ 0.062745, 0.015686, 0.180392, 0.423529 ]
				}
,
				"button" : 				{
					"color" : [ 0.941176, 0.678431, 0.890196, 1.0 ],
					"bgcolor" : [ 0.290196, 0.309804, 0.301961, 0.0 ],
					"elementcolor" : [ 0.827451, 0.364706, 0.541176, 1.0 ]
				}
,
				"number" : 				{
					"selectioncolor" : [ 1.0, 1.0, 1.0, 1.0 ],
					"bgcolor" : [ 0.047059, 0.913725, 0.913725, 1.0 ],
					"textcolor_inverse" : [ 0.0, 0.0, 0.0, 0.65098 ],
					"fontname" : [ "Fira Code" ],
					"accentcolor" : [ 0.0, 0.0, 0.0, 0.65098 ],
					"fontsize" : [ 20.0 ]
				}
,
				"newobj" : 				{
					"bgcolor" : [ 0.062745, 0.015686, 0.180392, 0.423529 ],
					"textjustification" : [ 1 ],
					"fontname" : [ "Fira Code" ],
					"accentcolor" : [ 0.584314, 0.403922, 0.533333, 1.0 ],
					"fontsize" : [ 20.0 ]
				}
,
				"message" : 				{
					"textcolor_inverse" : [ 0.894118, 0.745098, 0.745098, 1.0 ],
					"textjustification" : [ 1 ],
					"fontname" : [ "Fira Code" ],
					"bgfillcolor" : 					{
						"type" : "gradient",
						"color" : [ 0.290196, 0.309804, 0.301961, 1.0 ],
						"color1" : [ 0.223529, 0.266667, 0.454902, 0.458824 ],
						"color2" : [ 0.031373, 0.027451, 0.031373, 0.466667 ],
						"angle" : 270.0,
						"proportion" : 0.39,
						"autogradient" : 0
					}
,
					"fontsize" : [ 20.0 ]
				}
,
				"comment" : 				{
					"textjustification" : [ 1 ],
					"fontname" : [ "Fira Code" ],
					"textcolor" : [ 0.439216, 0.74902, 0.254902, 0.639216 ],
					"fontsize" : [ 20.0 ]
				}
,
				"parentstyle" : "",
				"multi" : 0
			}
 ],
		"bgcolor" : [ 0.0, 0.0, 0.0, 1.0 ],
		"editing_bgcolor" : [ 0.176470588235294, 0.141176470588235, 0.180392156862745, 1.0 ],
		"stripecolor" : [ 0.513725490196078, 0.47843137254902, 0.47843137254902, 1.0 ]
	}

}
