{
	"patcher" : 	{
		"fileversion" : 1,
		"appversion" : 		{
			"major" : 6,
			"minor" : 1,
			"revision" : 1,
			"architecture" : "x86"
		}
,
		"rect" : [ 533.0, 50.0, 340.0, 413.0 ],
		"bgcolor" : [ 0.086275, 0.086275, 0.086275, 1.0 ],
		"bglocked" : 0,
		"openinpresentation" : 1,
		"default_fontsize" : 12.0,
		"default_fontface" : 0,
		"default_fontname" : "Arial",
		"gridonopen" : 0,
		"gridsize" : [ 15.0, 15.0 ],
		"gridsnaponopen" : 0,
		"statusbarvisible" : 0,
		"toolbarvisible" : 0,
		"boxanimatetime" : 200,
		"imprint" : 0,
		"enablehscroll" : 0,
		"enablevscroll" : 0,
		"devicewidth" : 0.0,
		"description" : "",
		"digest" : "",
		"tags" : "",
		"title" : "granular settings",
		"boxes" : [ 			{
				"box" : 				{
					"fontname" : "Arial",
					"fontsize" : 12.0,
					"id" : "obj-74",
					"maxclass" : "message",
					"numinlets" : 2,
					"numoutlets" : 1,
					"outlettype" : [ "" ],
					"patching_rect" : [ 482.0, 692.0, 152.0, 18.0 ],
					"text" : "read granular_sample.wav"
				}

			}
, 			{
				"box" : 				{
					"fontname" : "Arial",
					"fontsize" : 13.0,
					"id" : "obj-70",
					"maxclass" : "newobj",
					"numinlets" : 1,
					"numoutlets" : 1,
					"outlettype" : [ "" ],
					"patching_rect" : [ 675.0, 632.5, 59.0, 21.0 ],
					"text" : "deferlow"
				}

			}
, 			{
				"box" : 				{
					"fontname" : "Arial",
					"fontsize" : 13.0,
					"id" : "obj-8",
					"maxclass" : "newobj",
					"numinlets" : 1,
					"numoutlets" : 1,
					"outlettype" : [ "" ],
					"patching_rect" : [ 330.0, 662.5, 59.0, 21.0 ],
					"text" : "deferlow"
				}

			}
, 			{
				"box" : 				{
					"fontname" : "Arial",
					"fontsize" : 12.0,
					"id" : "obj-63",
					"maxclass" : "message",
					"numinlets" : 2,
					"numoutlets" : 1,
					"outlettype" : [ "" ],
					"patching_rect" : [ 330.0, 692.0, 137.0, 18.0 ],
					"text" : "read granular_gauss.aif"
				}

			}
, 			{
				"box" : 				{
					"fontname" : "Arial",
					"fontsize" : 12.0,
					"id" : "obj-66",
					"maxclass" : "newobj",
					"numinlets" : 1,
					"numoutlets" : 3,
					"outlettype" : [ "", "", "" ],
					"patching_rect" : [ 647.0, 540.5, 108.0, 20.0 ],
					"restore" : [ 0.0 ],
					"saved_object_attributes" : 					{
						"parameter_enable" : 0
					}
,
					"text" : "pattr gran.pitchVar",
					"varname" : "gran.pitchVar"
				}

			}
, 			{
				"box" : 				{
					"fontname" : "Arial",
					"fontsize" : 12.0,
					"id" : "obj-62",
					"maxclass" : "newobj",
					"numinlets" : 1,
					"numoutlets" : 3,
					"outlettype" : [ "", "", "" ],
					"patching_rect" : [ 644.5, 466.5, 113.0, 20.0 ],
					"restore" : [ 1.0 ],
					"saved_object_attributes" : 					{
						"parameter_enable" : 0
					}
,
					"text" : "pattr gran.pitchMult",
					"varname" : "gran.pitchMult"
				}

			}
, 			{
				"box" : 				{
					"fontname" : "Arial",
					"fontsize" : 12.0,
					"id" : "obj-48",
					"maxclass" : "newobj",
					"numinlets" : 1,
					"numoutlets" : 3,
					"outlettype" : [ "", "", "" ],
					"patching_rect" : [ 651.5, 370.5, 99.0, 20.0 ],
					"restore" : [ 0.0 ],
					"saved_object_attributes" : 					{
						"parameter_enable" : 0
					}
,
					"text" : "pattr gran.lenVar",
					"varname" : "gran.lenVar"
				}

			}
, 			{
				"box" : 				{
					"fontname" : "Arial",
					"fontsize" : 12.0,
					"id" : "obj-42",
					"maxclass" : "newobj",
					"numinlets" : 1,
					"numoutlets" : 3,
					"outlettype" : [ "", "", "" ],
					"patching_rect" : [ 652.0, 280.5, 98.0, 20.0 ],
					"restore" : [ 50.0 ],
					"saved_object_attributes" : 					{
						"parameter_enable" : 0
					}
,
					"text" : "pattr gran.length",
					"varname" : "gran.length"
				}

			}
, 			{
				"box" : 				{
					"fontname" : "Arial",
					"fontsize" : 12.0,
					"id" : "obj-9",
					"maxclass" : "newobj",
					"numinlets" : 1,
					"numoutlets" : 3,
					"outlettype" : [ "", "", "" ],
					"patching_rect" : [ 662.0, 205.5, 78.0, 20.0 ],
					"restore" : [ 50.0 ],
					"saved_object_attributes" : 					{
						"parameter_enable" : 0
					}
,
					"text" : "pattr gran.int",
					"varname" : "gran.int"
				}

			}
, 			{
				"box" : 				{
					"fontname" : "Arial",
					"fontsize" : 12.0,
					"id" : "obj-5",
					"maxclass" : "newobj",
					"numinlets" : 1,
					"numoutlets" : 3,
					"outlettype" : [ "", "", "" ],
					"patching_rect" : [ 159.5, 271.5, 84.0, 20.0 ],
					"restore" : [ 1, 2, 3, 4, 5, 6, 7, 8, 9, 10, 11, 12, 13, 14, 15, 16 ],
					"saved_object_attributes" : 					{
						"parameter_enable" : 0
					}
,
					"text" : "pattr gran.dist",
					"varname" : "gran.dist"
				}

			}
, 			{
				"box" : 				{
					"fontname" : "Arial",
					"fontsize" : 12.0,
					"id" : "obj-49",
					"maxclass" : "message",
					"numinlets" : 2,
					"numoutlets" : 1,
					"outlettype" : [ "" ],
					"patching_rect" : [ 553.0, 752.5, 54.0, 18.0 ],
					"text" : "800 920"
				}

			}
, 			{
				"box" : 				{
					"fontname" : "Arial",
					"fontsize" : 12.0,
					"id" : "obj-75",
					"maxclass" : "newobj",
					"numinlets" : 2,
					"numoutlets" : 1,
					"outlettype" : [ "" ],
					"patcher" : 					{
						"fileversion" : 1,
						"appversion" : 						{
							"major" : 6,
							"minor" : 1,
							"revision" : 1,
							"architecture" : "x86"
						}
,
						"rect" : [ 0.0, 0.0, 640.0, 480.0 ],
						"bglocked" : 0,
						"openinpresentation" : 0,
						"default_fontsize" : 12.0,
						"default_fontface" : 0,
						"default_fontname" : "Arial",
						"gridonopen" : 0,
						"gridsize" : [ 15.0, 15.0 ],
						"gridsnaponopen" : 0,
						"statusbarvisible" : 2,
						"toolbarvisible" : 1,
						"boxanimatetime" : 200,
						"imprint" : 0,
						"enablehscroll" : 1,
						"enablevscroll" : 1,
						"devicewidth" : 0.0,
						"description" : "",
						"digest" : "",
						"tags" : "",
						"boxes" : [ 							{
								"box" : 								{
									"fontname" : "Arial",
									"fontsize" : 12.0,
									"id" : "obj-66",
									"maxclass" : "newobj",
									"numinlets" : 1,
									"numoutlets" : 3,
									"outlettype" : [ "", "int", "int" ],
									"patching_rect" : [ 50.0, 130.0, 50.0, 20.0 ],
									"text" : "change"
								}

							}
, 							{
								"box" : 								{
									"fontname" : "Arial",
									"fontsize" : 12.0,
									"id" : "obj-65",
									"maxclass" : "newobj",
									"numinlets" : 2,
									"numoutlets" : 2,
									"outlettype" : [ "float", "int" ],
									"patching_rect" : [ 50.0, 100.0, 83.0, 20.0 ],
									"text" : "maximum 10."
								}

							}
, 							{
								"box" : 								{
									"fontname" : "Arial",
									"fontsize" : 12.0,
									"id" : "obj-63",
									"maxclass" : "newobj",
									"numinlets" : 2,
									"numoutlets" : 2,
									"outlettype" : [ "float", "int" ],
									"patching_rect" : [ 139.5, 100.0, 83.0, 20.0 ],
									"text" : "maximum 10."
								}

							}
, 							{
								"box" : 								{
									"fontname" : "Arial",
									"fontsize" : 12.0,
									"id" : "obj-62",
									"maxclass" : "message",
									"numinlets" : 2,
									"numoutlets" : 1,
									"outlettype" : [ "" ],
									"patching_rect" : [ 139.5, 130.0, 112.0, 18.0 ],
									"text" : "setminmax $1 200."
								}

							}
, 							{
								"box" : 								{
									"comment" : "",
									"id" : "obj-64",
									"maxclass" : "inlet",
									"numinlets" : 0,
									"numoutlets" : 1,
									"outlettype" : [ "" ],
									"patching_rect" : [ 89.75, 40.0, 25.0, 25.0 ]
								}

							}
, 							{
								"box" : 								{
									"comment" : "",
									"id" : "obj-70",
									"maxclass" : "inlet",
									"numinlets" : 0,
									"numoutlets" : 1,
									"outlettype" : [ "" ],
									"patching_rect" : [ 114.0, 40.0, 25.0, 25.0 ]
								}

							}
, 							{
								"box" : 								{
									"comment" : "",
									"id" : "obj-74",
									"maxclass" : "outlet",
									"numinlets" : 1,
									"numoutlets" : 0,
									"patching_rect" : [ 89.75, 210.0, 25.0, 25.0 ]
								}

							}
 ],
						"lines" : [ 							{
								"patchline" : 								{
									"destination" : [ "obj-74", 0 ],
									"disabled" : 0,
									"hidden" : 0,
									"source" : [ "obj-62", 0 ]
								}

							}
, 							{
								"patchline" : 								{
									"destination" : [ "obj-62", 0 ],
									"disabled" : 0,
									"hidden" : 0,
									"source" : [ "obj-63", 0 ]
								}

							}
, 							{
								"patchline" : 								{
									"destination" : [ "obj-63", 0 ],
									"disabled" : 0,
									"hidden" : 0,
									"source" : [ "obj-64", 0 ]
								}

							}
, 							{
								"patchline" : 								{
									"destination" : [ "obj-65", 0 ],
									"disabled" : 0,
									"hidden" : 0,
									"source" : [ "obj-64", 0 ]
								}

							}
, 							{
								"patchline" : 								{
									"destination" : [ "obj-66", 0 ],
									"disabled" : 0,
									"hidden" : 0,
									"source" : [ "obj-65", 0 ]
								}

							}
, 							{
								"patchline" : 								{
									"destination" : [ "obj-74", 0 ],
									"disabled" : 0,
									"hidden" : 0,
									"source" : [ "obj-66", 0 ]
								}

							}
, 							{
								"patchline" : 								{
									"destination" : [ "obj-65", 1 ],
									"disabled" : 0,
									"hidden" : 0,
									"source" : [ "obj-70", 0 ]
								}

							}
 ]
					}
,
					"patching_rect" : [ 531.5, 423.5, 101.0, 20.0 ],
					"saved_object_attributes" : 					{
						"default_fontface" : 0,
						"default_fontname" : "Arial",
						"default_fontsize" : 12.0,
						"description" : "",
						"digest" : "",
						"fontface" : 0,
						"fontname" : "Arial",
						"fontsize" : 12.0,
						"globalpatchername" : "",
						"tags" : ""
					}
,
					"text" : "p adjustMinimum"
				}

			}
, 			{
				"box" : 				{
					"fontname" : "Arial",
					"fontsize" : 12.0,
					"id" : "obj-77",
					"maxclass" : "message",
					"numinlets" : 2,
					"numoutlets" : 1,
					"outlettype" : [ "" ],
					"patching_rect" : [ 411.5, 332.5, 67.0, 18.0 ],
					"text" : "reverse $1"
				}

			}
, 			{
				"box" : 				{
					"fontname" : "Arial",
					"fontsize" : 12.0,
					"id" : "obj-83",
					"maxclass" : "newobj",
					"numinlets" : 2,
					"numoutlets" : 1,
					"outlettype" : [ "float" ],
					"patching_rect" : [ 744.5, 206.5, 32.5, 20.0 ],
					"text" : "* 4."
				}

			}
, 			{
				"box" : 				{
					"fontname" : "Arial",
					"fontsize" : 12.0,
					"id" : "obj-82",
					"maxclass" : "message",
					"numinlets" : 2,
					"numoutlets" : 1,
					"outlettype" : [ "" ],
					"patching_rect" : [ 744.5, 488.5, 53.0, 18.0 ],
					"text" : "pitch $1"
				}

			}
, 			{
				"box" : 				{
					"fontname" : "Arial",
					"fontsize" : 12.0,
					"id" : "obj-81",
					"maxclass" : "message",
					"numinlets" : 2,
					"numoutlets" : 1,
					"outlettype" : [ "" ],
					"patching_rect" : [ 744.5, 562.5, 69.0, 18.0 ],
					"text" : "pitchvar $1"
				}

			}
, 			{
				"box" : 				{
					"fontname" : "Arial",
					"fontsize" : 12.0,
					"id" : "obj-80",
					"maxclass" : "message",
					"numinlets" : 2,
					"numoutlets" : 1,
					"outlettype" : [ "" ],
					"patching_rect" : [ 744.5, 392.5, 77.0, 18.0 ],
					"text" : "lengthvar $1"
				}

			}
, 			{
				"box" : 				{
					"fontname" : "Arial",
					"fontsize" : 12.0,
					"id" : "obj-79",
					"maxclass" : "message",
					"numinlets" : 2,
					"numoutlets" : 1,
					"outlettype" : [ "" ],
					"patching_rect" : [ 744.5, 302.5, 60.0, 18.0 ],
					"text" : "length $1"
				}

			}
, 			{
				"box" : 				{
					"fontname" : "Arial",
					"fontsize" : 12.0,
					"id" : "obj-78",
					"maxclass" : "message",
					"numinlets" : 2,
					"numoutlets" : 1,
					"outlettype" : [ "" ],
					"patching_rect" : [ 744.5, 232.5, 48.0, 18.0 ],
					"text" : "freq $1"
				}

			}
, 			{
				"box" : 				{
					"fontname" : "Arial",
					"fontsize" : 12.0,
					"id" : "obj-76",
					"maxclass" : "message",
					"numinlets" : 2,
					"numoutlets" : 1,
					"outlettype" : [ "" ],
					"patching_rect" : [ 210.5, 752.5, 47.0, 18.0 ],
					"text" : "pos $1"
				}

			}
, 			{
				"box" : 				{
					"fontname" : "Arial",
					"fontsize" : 12.0,
					"id" : "obj-73",
					"maxclass" : "newobj",
					"numinlets" : 2,
					"numoutlets" : 1,
					"outlettype" : [ "float" ],
					"patching_rect" : [ 210.5, 722.5, 32.5, 20.0 ],
					"text" : "+ 0."
				}

			}
, 			{
				"box" : 				{
					"fontname" : "Arial",
					"fontsize" : 12.0,
					"id" : "obj-72",
					"maxclass" : "newobj",
					"numinlets" : 1,
					"numoutlets" : 2,
					"outlettype" : [ "float", "float" ],
					"patching_rect" : [ 195.399994, 690.5, 34.100006, 20.0 ],
					"text" : "t f f"
				}

			}
, 			{
				"box" : 				{
					"fontname" : "Arial",
					"fontsize" : 12.0,
					"id" : "obj-71",
					"maxclass" : "message",
					"numinlets" : 2,
					"numoutlets" : 1,
					"outlettype" : [ "" ],
					"patching_rect" : [ 253.5, 722.5, 63.0, 18.0 ],
					"text" : "posvar $1"
				}

			}
, 			{
				"box" : 				{
					"fontname" : "Arial",
					"fontsize" : 12.0,
					"id" : "obj-69",
					"maxclass" : "newobj",
					"numinlets" : 2,
					"numoutlets" : 1,
					"outlettype" : [ "float" ],
					"patching_rect" : [ 195.399994, 662.5, 35.0, 20.0 ],
					"text" : "* 0.5"
				}

			}
, 			{
				"box" : 				{
					"fontname" : "Arial",
					"fontsize" : 12.0,
					"id" : "obj-68",
					"maxclass" : "newobj",
					"numinlets" : 1,
					"numoutlets" : 2,
					"outlettype" : [ "float", "float" ],
					"patching_rect" : [ 195.399994, 602.5, 47.600006, 20.0 ],
					"text" : "t f f"
				}

			}
, 			{
				"box" : 				{
					"fontname" : "Arial",
					"fontsize" : 12.0,
					"id" : "obj-67",
					"maxclass" : "newobj",
					"numinlets" : 2,
					"numoutlets" : 1,
					"outlettype" : [ "float" ],
					"patching_rect" : [ 195.399994, 632.5, 79.200005, 20.0 ],
					"text" : "!- 0."
				}

			}
, 			{
				"box" : 				{
					"fontname" : "Arial",
					"fontsize" : 12.0,
					"id" : "obj-55",
					"maxclass" : "message",
					"numinlets" : 2,
					"numoutlets" : 1,
					"outlettype" : [ "" ],
					"patching_rect" : [ 531.5, 541.5, 53.0, 18.0 ],
					"text" : "set 1 $1"
				}

			}
, 			{
				"box" : 				{
					"activebgcolor" : [ 0.188235, 0.188235, 0.188235, 1.0 ],
					"activebgoncolor" : [ 0.188235, 0.188235, 0.188235, 1.0 ],
					"activetextcolor" : [ 0.086275, 0.086275, 0.086275, 1.0 ],
					"activetextoncolor" : [ 0.745098, 0.913725, 1.0, 1.0 ],
					"bgcolor" : [ 0.188235, 0.188235, 0.188235, 1.0 ],
					"bgoncolor" : [ 0.188235, 0.188235, 0.188235, 1.0 ],
					"bordercolor" : [ 0.188235, 0.188235, 0.188235, 1.0 ],
					"focusbordercolor" : [ 0.188235, 0.188235, 0.188235, 1.0 ],
					"id" : "obj-57",
					"ignoreclick" : 1,
					"maxclass" : "live.text",
					"numinlets" : 1,
					"numoutlets" : 2,
					"outlettype" : [ "", "" ],
					"parameter_enable" : 1,
					"patching_rect" : [ 411.5, 562.5, 120.0, 20.0 ],
					"presentation" : 1,
					"presentation_rect" : [ 10.0, 200.0, 120.0, 20.0 ],
					"saved_attribute_attributes" : 					{
						"valueof" : 						{
							"parameter_enum" : [ "val1", "val2" ],
							"parameter_mmax" : 1.0,
							"parameter_initial" : [ 1 ],
							"parameter_type" : 2,
							"parameter_initial_enable" : 1,
							"parameter_shortname" : "live.text",
							"parameter_longname" : "live.text[7]"
						}

					}
,
					"text" : "distanceWeight",
					"textcolor" : [ 0.745098, 0.913725, 1.0, 1.0 ],
					"texton" : "grain pitch variation",
					"varname" : "live.text[4]"
				}

			}
, 			{
				"box" : 				{
					"activebgcolor" : [ 0.188235, 0.188235, 0.188235, 1.0 ],
					"bordercolor" : [ 0.188235, 0.188235, 0.188235, 1.0 ],
					"focusbordercolor" : [ 0.188235, 0.188235, 0.188235, 1.0 ],
					"id" : "obj-58",
					"maxclass" : "live.numbox",
					"numinlets" : 1,
					"numoutlets" : 2,
					"outlettype" : [ "", "float" ],
					"parameter_enable" : 1,
					"patching_rect" : [ 691.5, 565.0, 40.0, 15.0 ],
					"presentation" : 1,
					"presentation_rect" : [ 290.0, 202.5, 40.0, 15.0 ],
					"saved_attribute_attributes" : 					{
						"valueof" : 						{
							"parameter_units" : "째",
							"parameter_unitstyle" : 1,
							"parameter_mmax" : 2.0,
							"parameter_type" : 0,
							"parameter_shortname" : "live.numbox",
							"parameter_longname" : "live.numbox[4]"
						}

					}
,
					"textcolor" : [ 0.745098, 0.913725, 1.0, 1.0 ],
					"varname" : "live.numbox[4]"
				}

			}
, 			{
				"box" : 				{
					"bgcolor" : [ 0.086275, 0.086275, 0.086275, 1.0 ],
					"bordercolor" : [ 0.188235, 0.188235, 0.188235, 1.0 ],
					"contdata" : 1,
					"id" : "obj-59",
					"maxclass" : "multislider",
					"numinlets" : 1,
					"numoutlets" : 2,
					"orientation" : 0,
					"outlettype" : [ "", "" ],
					"parameter_enable" : 0,
					"patching_rect" : [ 531.5, 567.5, 160.0, 10.0 ],
					"presentation" : 1,
					"presentation_rect" : [ 130.0, 205.0, 160.0, 10.0 ],
					"setminmax" : [ 0.0, 2.0 ],
					"setstyle" : 1,
					"slidercolor" : [ 0.745098, 0.913725, 1.0, 1.0 ]
				}

			}
, 			{
				"box" : 				{
					"bgcolor" : [ 0.188235, 0.188235, 0.188235, 1.0 ],
					"bordercolor" : [ 0.188235, 0.188235, 0.188235, 1.0 ],
					"id" : "obj-60",
					"maxclass" : "panel",
					"numinlets" : 1,
					"numoutlets" : 0,
					"patching_rect" : [ 411.5, 562.5, 320.0, 20.0 ],
					"presentation" : 1,
					"presentation_rect" : [ 10.0, 200.0, 320.0, 20.0 ],
					"rounded" : 0
				}

			}
, 			{
				"box" : 				{
					"fontname" : "Arial",
					"fontsize" : 12.0,
					"id" : "obj-50",
					"maxclass" : "message",
					"numinlets" : 2,
					"numoutlets" : 1,
					"outlettype" : [ "" ],
					"patching_rect" : [ 531.5, 467.5, 53.0, 18.0 ],
					"text" : "set 1 $1"
				}

			}
, 			{
				"box" : 				{
					"activebgcolor" : [ 0.188235, 0.188235, 0.188235, 1.0 ],
					"activebgoncolor" : [ 0.188235, 0.188235, 0.188235, 1.0 ],
					"activetextcolor" : [ 0.086275, 0.086275, 0.086275, 1.0 ],
					"activetextoncolor" : [ 0.745098, 0.913725, 1.0, 1.0 ],
					"bgcolor" : [ 0.188235, 0.188235, 0.188235, 1.0 ],
					"bgoncolor" : [ 0.188235, 0.188235, 0.188235, 1.0 ],
					"bordercolor" : [ 0.188235, 0.188235, 0.188235, 1.0 ],
					"focusbordercolor" : [ 0.188235, 0.188235, 0.188235, 1.0 ],
					"id" : "obj-51",
					"ignoreclick" : 1,
					"maxclass" : "live.text",
					"numinlets" : 1,
					"numoutlets" : 2,
					"outlettype" : [ "", "" ],
					"parameter_enable" : 1,
					"patching_rect" : [ 411.5, 488.5, 120.0, 20.0 ],
					"presentation" : 1,
					"presentation_rect" : [ 10.0, 180.0, 120.0, 20.0 ],
					"saved_attribute_attributes" : 					{
						"valueof" : 						{
							"parameter_enum" : [ "val1", "val2" ],
							"parameter_mmax" : 1.0,
							"parameter_initial" : [ 1 ],
							"parameter_type" : 2,
							"parameter_initial_enable" : 1,
							"parameter_shortname" : "live.text",
							"parameter_longname" : "live.text[6]"
						}

					}
,
					"text" : "distanceWeight",
					"textcolor" : [ 0.745098, 0.913725, 1.0, 1.0 ],
					"texton" : "grain pitch multiplier",
					"varname" : "live.text[3]"
				}

			}
, 			{
				"box" : 				{
					"activebgcolor" : [ 0.188235, 0.188235, 0.188235, 1.0 ],
					"bordercolor" : [ 0.188235, 0.188235, 0.188235, 1.0 ],
					"focusbordercolor" : [ 0.188235, 0.188235, 0.188235, 1.0 ],
					"id" : "obj-52",
					"maxclass" : "live.numbox",
					"numinlets" : 1,
					"numoutlets" : 2,
					"outlettype" : [ "", "float" ],
					"parameter_enable" : 1,
					"patching_rect" : [ 691.5, 491.0, 40.0, 15.0 ],
					"presentation" : 1,
					"presentation_rect" : [ 290.0, 182.5, 40.0, 15.0 ],
					"saved_attribute_attributes" : 					{
						"valueof" : 						{
							"parameter_units" : "째",
							"parameter_unitstyle" : 1,
							"parameter_mmax" : 4.0,
							"parameter_mmin" : 0.25,
							"parameter_type" : 0,
							"parameter_shortname" : "live.numbox",
							"parameter_longname" : "live.numbox[3]"
						}

					}
,
					"textcolor" : [ 0.745098, 0.913725, 1.0, 1.0 ],
					"varname" : "live.numbox[3]"
				}

			}
, 			{
				"box" : 				{
					"bgcolor" : [ 0.086275, 0.086275, 0.086275, 1.0 ],
					"bordercolor" : [ 0.188235, 0.188235, 0.188235, 1.0 ],
					"contdata" : 1,
					"id" : "obj-53",
					"maxclass" : "multislider",
					"numinlets" : 1,
					"numoutlets" : 2,
					"orientation" : 0,
					"outlettype" : [ "", "" ],
					"parameter_enable" : 0,
					"patching_rect" : [ 531.5, 493.5, 160.0, 10.0 ],
					"presentation" : 1,
					"presentation_rect" : [ 130.0, 185.0, 160.0, 10.0 ],
					"setminmax" : [ 0.25, 4.0 ],
					"setstyle" : 1,
					"slidercolor" : [ 0.745098, 0.913725, 1.0, 1.0 ]
				}

			}
, 			{
				"box" : 				{
					"bgcolor" : [ 0.188235, 0.188235, 0.188235, 1.0 ],
					"bordercolor" : [ 0.188235, 0.188235, 0.188235, 1.0 ],
					"id" : "obj-54",
					"maxclass" : "panel",
					"numinlets" : 1,
					"numoutlets" : 0,
					"patching_rect" : [ 411.5, 488.5, 320.0, 20.0 ],
					"presentation" : 1,
					"presentation_rect" : [ 10.0, 180.0, 320.0, 20.0 ],
					"rounded" : 0
				}

			}
, 			{
				"box" : 				{
					"fontname" : "Arial",
					"fontsize" : 12.0,
					"id" : "obj-32",
					"maxclass" : "message",
					"numinlets" : 2,
					"numoutlets" : 1,
					"outlettype" : [ "" ],
					"patching_rect" : [ 531.5, 371.5, 53.0, 18.0 ],
					"text" : "set 1 $1"
				}

			}
, 			{
				"box" : 				{
					"activebgcolor" : [ 0.188235, 0.188235, 0.188235, 1.0 ],
					"activebgoncolor" : [ 0.188235, 0.188235, 0.188235, 1.0 ],
					"activetextcolor" : [ 0.086275, 0.086275, 0.086275, 1.0 ],
					"activetextoncolor" : [ 0.745098, 0.913725, 1.0, 1.0 ],
					"bgcolor" : [ 0.188235, 0.188235, 0.188235, 1.0 ],
					"bgoncolor" : [ 0.188235, 0.188235, 0.188235, 1.0 ],
					"bordercolor" : [ 0.188235, 0.188235, 0.188235, 1.0 ],
					"focusbordercolor" : [ 0.188235, 0.188235, 0.188235, 1.0 ],
					"id" : "obj-33",
					"ignoreclick" : 1,
					"maxclass" : "live.text",
					"numinlets" : 1,
					"numoutlets" : 2,
					"outlettype" : [ "", "" ],
					"parameter_enable" : 1,
					"patching_rect" : [ 411.5, 392.5, 120.0, 20.0 ],
					"presentation" : 1,
					"presentation_rect" : [ 10.0, 160.0, 120.0, 20.0 ],
					"saved_attribute_attributes" : 					{
						"valueof" : 						{
							"parameter_enum" : [ "val1", "val2" ],
							"parameter_mmax" : 1.0,
							"parameter_initial" : [ 1 ],
							"parameter_type" : 2,
							"parameter_initial_enable" : 1,
							"parameter_shortname" : "live.text",
							"parameter_longname" : "live.text[2]"
						}

					}
,
					"text" : "distanceWeight",
					"textcolor" : [ 0.745098, 0.913725, 1.0, 1.0 ],
					"texton" : "grain length variation",
					"varname" : "live.text[2]"
				}

			}
, 			{
				"box" : 				{
					"activebgcolor" : [ 0.188235, 0.188235, 0.188235, 1.0 ],
					"bordercolor" : [ 0.188235, 0.188235, 0.188235, 1.0 ],
					"focusbordercolor" : [ 0.188235, 0.188235, 0.188235, 1.0 ],
					"id" : "obj-34",
					"maxclass" : "live.numbox",
					"numinlets" : 1,
					"numoutlets" : 2,
					"outlettype" : [ "", "float" ],
					"parameter_enable" : 1,
					"patching_rect" : [ 691.5, 395.0, 40.0, 15.0 ],
					"presentation" : 1,
					"presentation_rect" : [ 290.0, 162.5, 40.0, 15.0 ],
					"saved_attribute_attributes" : 					{
						"valueof" : 						{
							"parameter_units" : "째",
							"parameter_unitstyle" : 0,
							"parameter_mmax" : 50.0,
							"parameter_type" : 0,
							"parameter_shortname" : "live.numbox",
							"parameter_longname" : "live.numbox[2]"
						}

					}
,
					"textcolor" : [ 0.745098, 0.913725, 1.0, 1.0 ],
					"varname" : "live.numbox[2]"
				}

			}
, 			{
				"box" : 				{
					"bgcolor" : [ 0.086275, 0.086275, 0.086275, 1.0 ],
					"bordercolor" : [ 0.188235, 0.188235, 0.188235, 1.0 ],
					"contdata" : 1,
					"id" : "obj-35",
					"maxclass" : "multislider",
					"numinlets" : 1,
					"numoutlets" : 2,
					"orientation" : 0,
					"outlettype" : [ "", "" ],
					"parameter_enable" : 0,
					"patching_rect" : [ 531.5, 397.5, 160.0, 10.0 ],
					"presentation" : 1,
					"presentation_rect" : [ 130.0, 165.0, 160.0, 10.0 ],
					"setminmax" : [ 0.0, 50.0 ],
					"setstyle" : 1,
					"settype" : 0,
					"slidercolor" : [ 0.745098, 0.913725, 1.0, 1.0 ]
				}

			}
, 			{
				"box" : 				{
					"bgcolor" : [ 0.188235, 0.188235, 0.188235, 1.0 ],
					"bordercolor" : [ 0.188235, 0.188235, 0.188235, 1.0 ],
					"id" : "obj-39",
					"maxclass" : "panel",
					"numinlets" : 1,
					"numoutlets" : 0,
					"patching_rect" : [ 411.5, 392.5, 320.0, 20.0 ],
					"presentation" : 1,
					"presentation_rect" : [ 10.0, 160.0, 320.0, 20.0 ],
					"rounded" : 0
				}

			}
, 			{
				"box" : 				{
					"fontname" : "Arial",
					"fontsize" : 12.0,
					"id" : "obj-1",
					"maxclass" : "message",
					"numinlets" : 2,
					"numoutlets" : 1,
					"outlettype" : [ "" ],
					"patching_rect" : [ 531.5, 281.5, 53.0, 18.0 ],
					"text" : "set 1 $1"
				}

			}
, 			{
				"box" : 				{
					"activebgcolor" : [ 0.188235, 0.188235, 0.188235, 1.0 ],
					"activebgoncolor" : [ 0.745098, 0.913725, 1.0, 1.0 ],
					"activetextcolor" : [ 0.745098, 0.913725, 1.0, 1.0 ],
					"activetextoncolor" : [ 0.086275, 0.086275, 0.086275, 1.0 ],
					"bgcolor" : [ 0.188235, 0.188235, 0.188235, 1.0 ],
					"bgoncolor" : [ 0.188235, 0.188235, 0.188235, 1.0 ],
					"bordercolor" : [ 0.188235, 0.188235, 0.188235, 1.0 ],
					"focusbordercolor" : [ 0.188235, 0.188235, 0.188235, 1.0 ],
					"id" : "obj-4",
					"maxclass" : "live.text",
					"numinlets" : 1,
					"numoutlets" : 2,
					"outlettype" : [ "", "" ],
					"parameter_enable" : 1,
					"patching_rect" : [ 411.5, 302.5, 120.0, 20.0 ],
					"presentation" : 1,
					"presentation_rect" : [ 10.0, 140.0, 120.0, 20.0 ],
					"saved_attribute_attributes" : 					{
						"valueof" : 						{
							"parameter_enum" : [ "val1", "val2" ],
							"parameter_mmax" : 1.0,
							"parameter_initial" : [ 0 ],
							"parameter_type" : 2,
							"parameter_shortname" : "live.text",
							"parameter_longname" : "live.text[1]"
						}

					}
,
					"text" : "grain length (normal)",
					"textcolor" : [ 0.745098, 0.913725, 1.0, 1.0 ],
					"texton" : "grain length (reverse)",
					"varname" : "live.text[1]"
				}

			}
, 			{
				"box" : 				{
					"activebgcolor" : [ 0.188235, 0.188235, 0.188235, 1.0 ],
					"bordercolor" : [ 0.188235, 0.188235, 0.188235, 1.0 ],
					"focusbordercolor" : [ 0.188235, 0.188235, 0.188235, 1.0 ],
					"id" : "obj-19",
					"maxclass" : "live.numbox",
					"numinlets" : 1,
					"numoutlets" : 2,
					"outlettype" : [ "", "float" ],
					"parameter_enable" : 1,
					"patching_rect" : [ 691.5, 305.0, 40.0, 15.0 ],
					"presentation" : 1,
					"presentation_rect" : [ 290.0, 142.5, 40.0, 15.0 ],
					"saved_attribute_attributes" : 					{
						"valueof" : 						{
							"parameter_units" : "째",
							"parameter_unitstyle" : 0,
							"parameter_mmax" : 200.0,
							"parameter_mmin" : 10.0,
							"parameter_type" : 0,
							"parameter_shortname" : "live.numbox",
							"parameter_longname" : "live.numbox[1]"
						}

					}
,
					"textcolor" : [ 0.745098, 0.913725, 1.0, 1.0 ],
					"varname" : "live.numbox[1]"
				}

			}
, 			{
				"box" : 				{
					"bgcolor" : [ 0.086275, 0.086275, 0.086275, 1.0 ],
					"bordercolor" : [ 0.188235, 0.188235, 0.188235, 1.0 ],
					"contdata" : 1,
					"id" : "obj-20",
					"maxclass" : "multislider",
					"numinlets" : 1,
					"numoutlets" : 2,
					"orientation" : 0,
					"outlettype" : [ "", "" ],
					"parameter_enable" : 0,
					"patching_rect" : [ 531.5, 307.5, 160.0, 10.0 ],
					"presentation" : 1,
					"presentation_rect" : [ 130.0, 145.0, 160.0, 10.0 ],
					"setminmax" : [ 10.0, 200.0 ],
					"setstyle" : 1,
					"settype" : 0,
					"slidercolor" : [ 0.745098, 0.913725, 1.0, 1.0 ]
				}

			}
, 			{
				"box" : 				{
					"bgcolor" : [ 0.188235, 0.188235, 0.188235, 1.0 ],
					"bordercolor" : [ 0.188235, 0.188235, 0.188235, 1.0 ],
					"id" : "obj-25",
					"maxclass" : "panel",
					"numinlets" : 1,
					"numoutlets" : 0,
					"patching_rect" : [ 411.5, 302.5, 320.0, 20.0 ],
					"presentation" : 1,
					"presentation_rect" : [ 10.0, 140.0, 320.0, 20.0 ],
					"rounded" : 0
				}

			}
, 			{
				"box" : 				{
					"hidden" : 1,
					"hint" : "",
					"id" : "obj-84",
					"maxclass" : "toggle",
					"numinlets" : 1,
					"numoutlets" : 1,
					"outlettype" : [ "int" ],
					"parameter_enable" : 0,
					"patching_rect" : [ 279.5, 209.0, 18.0, 18.0 ],
					"presentation" : 1,
					"presentation_rect" : [ 10.0, 0.0, 18.0, 18.0 ],
					"prototypename" : "Arial9"
				}

			}
, 			{
				"box" : 				{
					"fontname" : "Arial",
					"fontsize" : 12.0,
					"id" : "obj-31",
					"maxclass" : "newobj",
					"numinlets" : 1,
					"numoutlets" : 1,
					"outlettype" : [ "" ],
					"patching_rect" : [ 675.0, 692.5, 85.0, 20.0 ],
					"text" : "append 0 -1 1"
				}

			}
, 			{
				"box" : 				{
					"fontname" : "Arial",
					"fontsize" : 12.0,
					"id" : "obj-47",
					"maxclass" : "newobj",
					"numinlets" : 1,
					"numoutlets" : 1,
					"outlettype" : [ "" ],
					"patching_rect" : [ 675.0, 662.5, 82.0, 20.0 ],
					"text" : "prepend read"
				}

			}
, 			{
				"box" : 				{
					"border" : 0.0,
					"bordercolor" : [ 0.188235, 0.188235, 0.188235, 1.0 ],
					"id" : "obj-30",
					"ignoreclick" : 1,
					"maxclass" : "dropfile",
					"numinlets" : 1,
					"numoutlets" : 2,
					"outlettype" : [ "", "" ],
					"patching_rect" : [ 675.0, 599.0, 72.0, 27.0 ],
					"presentation" : 1,
					"presentation_rect" : [ 10.0, 10.0, 320.0, 100.0 ],
					"rounded" : 0.0,
					"types" : [ "AIFF", "WAVE" ]
				}

			}
, 			{
				"box" : 				{
					"bgcolor" : [ 0.188235, 0.188235, 0.188235, 1.0 ],
					"bordercolor" : [ 0.086275, 0.086275, 0.086275, 1.0 ],
					"buffername" : "sample",
					"fontface" : 1,
					"fontsize" : 9.0,
					"gridcolor" : [ 0.392157, 0.392157, 0.392157, 0.0 ],
					"id" : "obj-29",
					"labelbgcolor" : [ 0.745098, 0.537255, 1.0, 0.0 ],
					"labels" : 0,
					"labeltextcolor" : [ 0.745098, 0.913725, 1.0, 1.0 ],
					"linecolor" : [ 0.392157, 0.392157, 0.392157, 0.0 ],
					"maxclass" : "waveform~",
					"norulerclick" : 1,
					"numinlets" : 5,
					"numoutlets" : 6,
					"outlettype" : [ "float", "float", "float", "float", "list", "" ],
					"patching_rect" : [ 75.0, 493.5, 320.0, 100.0 ],
					"presentation" : 1,
					"presentation_rect" : [ 10.0, 10.0, 320.0, 100.0 ],
					"ruler" : 0,
					"selectioncolor" : [ 0.745098, 0.913725, 1.0, 0.5 ],
					"setmode" : 1,
					"vticks" : 0,
					"waveformcolor" : [ 0.745098, 0.913725, 1.0, 1.0 ]
				}

			}
, 			{
				"box" : 				{
					"bgcolor" : [ 0.188235, 0.188235, 0.188235, 0.0 ],
					"bordercolor" : [ 0.188235, 0.188235, 0.188235, 0.0 ],
					"contdata" : 1,
					"id" : "obj-2",
					"maxclass" : "multislider",
					"numinlets" : 1,
					"numoutlets" : 2,
					"outlettype" : [ "", "" ],
					"parameter_enable" : 0,
					"patching_rect" : [ 96.0, 311.5, 288.0, 150.0 ],
					"presentation" : 1,
					"presentation_rect" : [ 31.0, 238.0, 288.0, 150.0 ],
					"setminmax" : [ 0.0, 16.0 ],
					"settype" : 0,
					"size" : 16,
					"slidercolor" : [ 0.745098, 0.913725, 1.0, 1.0 ],
					"spacing" : 3,
					"thickness" : 3,
					"varname" : "multislider"
				}

			}
, 			{
				"box" : 				{
					"fontname" : "Arial",
					"fontsize" : 12.0,
					"id" : "obj-117",
					"maxclass" : "newobj",
					"numinlets" : 2,
					"numoutlets" : 2,
					"outlettype" : [ "", "" ],
					"patching_rect" : [ 75.0, 271.5, 79.0, 20.0 ],
					"text" : "route symbol"
				}

			}
, 			{
				"box" : 				{
					"fontname" : "Arial",
					"fontsize" : 12.0,
					"id" : "obj-114",
					"maxclass" : "message",
					"numinlets" : 2,
					"numoutlets" : 1,
					"outlettype" : [ "" ],
					"patching_rect" : [ 75.0, 210.5, 41.0, 18.0 ],
					"text" : "dump"
				}

			}
, 			{
				"box" : 				{
					"coll_data" : 					{
						"count" : 89,
						"data" : [ 							{
								"key" : 1,
								"value" : [ "brgb", 48, 48, 48 ]
							}
, 							{
								"key" : 2,
								"value" : [ "clear" ]
							}
, 							{
								"key" : 3,
								"value" : [ "frgb", 185, 185, 185, 150 ]
							}
, 							{
								"key" : 4,
								"value" : [ "linesegment", 24, 10, 304, 10 ]
							}
, 							{
								"key" : 5,
								"value" : [ "linesegment", 24, 19, 304, 19 ]
							}
, 							{
								"key" : 6,
								"value" : [ "linesegment", 24, 28, 304, 28 ]
							}
, 							{
								"key" : 7,
								"value" : [ "linesegment", 24, 37, 304, 37 ]
							}
, 							{
								"key" : 8,
								"value" : [ "linesegment", 24, 47, 304, 47 ]
							}
, 							{
								"key" : 9,
								"value" : [ "linesegment", 24, 56, 304, 56 ]
							}
, 							{
								"key" : 10,
								"value" : [ "linesegment", 24, 65, 304, 65 ]
							}
, 							{
								"key" : 11,
								"value" : [ "linesegment", 24, 74, 304, 74 ]
							}
, 							{
								"key" : 12,
								"value" : [ "linesegment", 24, 84, 304, 84 ]
							}
, 							{
								"key" : 13,
								"value" : [ "linesegment", 24, 93, 304, 93 ]
							}
, 							{
								"key" : 14,
								"value" : [ "linesegment", 24, 102, 304, 102 ]
							}
, 							{
								"key" : 15,
								"value" : [ "linesegment", 24, 111, 304, 111 ]
							}
, 							{
								"key" : 16,
								"value" : [ "linesegment", 24, 121, 304, 121 ]
							}
, 							{
								"key" : 17,
								"value" : [ "linesegment", 24, 130, 304, 130 ]
							}
, 							{
								"key" : 18,
								"value" : [ "linesegment", 24, 139, 304, 139 ]
							}
, 							{
								"key" : 19,
								"value" : [ "linesegment", 24, 148, 304, 148 ]
							}
, 							{
								"key" : 20,
								"value" : [ "linesegment", 24, 155, 304, 155 ]
							}
, 							{
								"key" : 21,
								"value" : [ "frgb", 190, 233, 255, 255 ]
							}
, 							{
								"key" : 22,
								"value" : [ "font", "Arial", 8 ]
							}
, 							{
								"key" : 23,
								"value" : [ "textface", "bold" ]
							}
, 							{
								"key" : 24,
								"value" : [ "moveto", 11, 13 ]
							}
, 							{
								"key" : 25,
								"value" : [ "write", 16 ]
							}
, 							{
								"key" : 26,
								"value" : [ "moveto", 11, 22 ]
							}
, 							{
								"key" : 27,
								"value" : [ "write", 15 ]
							}
, 							{
								"key" : 28,
								"value" : [ "moveto", 11, 31 ]
							}
, 							{
								"key" : 29,
								"value" : [ "write", 14 ]
							}
, 							{
								"key" : 30,
								"value" : [ "moveto", 11, 40 ]
							}
, 							{
								"key" : 31,
								"value" : [ "write", 13 ]
							}
, 							{
								"key" : 32,
								"value" : [ "moveto", 11, 50 ]
							}
, 							{
								"key" : 33,
								"value" : [ "write", 12 ]
							}
, 							{
								"key" : 34,
								"value" : [ "moveto", 11, 59 ]
							}
, 							{
								"key" : 35,
								"value" : [ "write", 11 ]
							}
, 							{
								"key" : 36,
								"value" : [ "moveto", 11, 68 ]
							}
, 							{
								"key" : 37,
								"value" : [ "write", 10 ]
							}
, 							{
								"key" : 38,
								"value" : [ "moveto", 16, 77 ]
							}
, 							{
								"key" : 39,
								"value" : [ "write", 9 ]
							}
, 							{
								"key" : 40,
								"value" : [ "moveto", 16, 87 ]
							}
, 							{
								"key" : 41,
								"value" : [ "write", 8 ]
							}
, 							{
								"key" : 42,
								"value" : [ "moveto", 16, 96 ]
							}
, 							{
								"key" : 43,
								"value" : [ "write", 7 ]
							}
, 							{
								"key" : 44,
								"value" : [ "moveto", 16, 105 ]
							}
, 							{
								"key" : 45,
								"value" : [ "write", 6 ]
							}
, 							{
								"key" : 46,
								"value" : [ "moveto", 16, 114 ]
							}
, 							{
								"key" : 47,
								"value" : [ "write", 5 ]
							}
, 							{
								"key" : 48,
								"value" : [ "moveto", 16, 124 ]
							}
, 							{
								"key" : 49,
								"value" : [ "write", 4 ]
							}
, 							{
								"key" : 50,
								"value" : [ "moveto", 16, 133 ]
							}
, 							{
								"key" : 51,
								"value" : [ "write", 3 ]
							}
, 							{
								"key" : 52,
								"value" : [ "moveto", 16, 142 ]
							}
, 							{
								"key" : 53,
								"value" : [ "write", 2 ]
							}
, 							{
								"key" : 54,
								"value" : [ "moveto", 16, 151 ]
							}
, 							{
								"key" : 55,
								"value" : [ "write", 1 ]
							}
, 							{
								"key" : 56,
								"value" : [ "moveto", 17, 158 ]
							}
, 							{
								"key" : 57,
								"value" : [ "write", "-" ]
							}
, 							{
								"key" : 58,
								"value" : [ "moveto", 27, 167 ]
							}
, 							{
								"key" : 59,
								"value" : [ "write", "1a" ]
							}
, 							{
								"key" : 60,
								"value" : [ "moveto", 45, 167 ]
							}
, 							{
								"key" : 61,
								"value" : [ "write", "1b" ]
							}
, 							{
								"key" : 62,
								"value" : [ "moveto", 63, 167 ]
							}
, 							{
								"key" : 63,
								"value" : [ "write", "1c" ]
							}
, 							{
								"key" : 64,
								"value" : [ "moveto", 80, 167 ]
							}
, 							{
								"key" : 65,
								"value" : [ "write", "1d" ]
							}
, 							{
								"key" : 66,
								"value" : [ "moveto", 98, 167 ]
							}
, 							{
								"key" : 67,
								"value" : [ "write", "2a" ]
							}
, 							{
								"key" : 68,
								"value" : [ "moveto", 115, 167 ]
							}
, 							{
								"key" : 69,
								"value" : [ "write", "2b" ]
							}
, 							{
								"key" : 70,
								"value" : [ "moveto", 133, 167 ]
							}
, 							{
								"key" : 71,
								"value" : [ "write", "2c" ]
							}
, 							{
								"key" : 72,
								"value" : [ "moveto", 150, 167 ]
							}
, 							{
								"key" : 73,
								"value" : [ "write", "2d" ]
							}
, 							{
								"key" : 74,
								"value" : [ "moveto", 169, 167 ]
							}
, 							{
								"key" : 75,
								"value" : [ "write", "3a" ]
							}
, 							{
								"key" : 76,
								"value" : [ "moveto", 186, 167 ]
							}
, 							{
								"key" : 77,
								"value" : [ "write", "3b" ]
							}
, 							{
								"key" : 78,
								"value" : [ "moveto", 203, 167 ]
							}
, 							{
								"key" : 79,
								"value" : [ "write", "3c" ]
							}
, 							{
								"key" : 80,
								"value" : [ "moveto", 221, 167 ]
							}
, 							{
								"key" : 81,
								"value" : [ "write", "3d" ]
							}
, 							{
								"key" : 82,
								"value" : [ "moveto", 239, 167 ]
							}
, 							{
								"key" : 83,
								"value" : [ "write", "4a" ]
							}
, 							{
								"key" : 84,
								"value" : [ "moveto", 257, 167 ]
							}
, 							{
								"key" : 85,
								"value" : [ "write", "4b" ]
							}
, 							{
								"key" : 86,
								"value" : [ "moveto", 274, 167 ]
							}
, 							{
								"key" : 87,
								"value" : [ "write", "4c" ]
							}
, 							{
								"key" : 88,
								"value" : [ "moveto", 292, 167 ]
							}
, 							{
								"key" : 89,
								"value" : [ "write", "4d" ]
							}
 ]
					}
,
					"fontname" : "Arial",
					"fontsize" : 12.0,
					"id" : "obj-98",
					"maxclass" : "newobj",
					"numinlets" : 1,
					"numoutlets" : 4,
					"outlettype" : [ "", "", "", "" ],
					"patching_rect" : [ 75.0, 241.5, 109.0, 20.0 ],
					"saved_object_attributes" : 					{
						"embed" : 1
					}
,
					"text" : "coll draw_granular"
				}

			}
, 			{
				"box" : 				{
					"fontname" : "Arial",
					"fontsize" : 12.0,
					"id" : "obj-56",
					"maxclass" : "newobj",
					"numinlets" : 1,
					"numoutlets" : 1,
					"outlettype" : [ "list" ],
					"patching_rect" : [ 233.0, 77.5, 58.0, 20.0 ],
					"text" : "listfunnel"
				}

			}
, 			{
				"box" : 				{
					"border" : 0,
					"id" : "obj-61",
					"ignoreclick" : 1,
					"maxclass" : "lcd",
					"numinlets" : 1,
					"numoutlets" : 4,
					"outlettype" : [ "list", "list", "int", "" ],
					"patching_rect" : [ 75.0, 303.5, 320.0, 173.0 ],
					"presentation" : 1,
					"presentation_rect" : [ 10.0, 230.0, 320.0, 173.0 ]
				}

			}
, 			{
				"box" : 				{
					"fontname" : "Arial",
					"fontsize" : 12.0,
					"id" : "obj-7",
					"maxclass" : "newobj",
					"numinlets" : 1,
					"numoutlets" : 2,
					"outlettype" : [ "float", "bang" ],
					"patching_rect" : [ 482.0, 720.5, 90.0, 20.0 ],
					"text" : "buffer~ sample"
				}

			}
, 			{
				"box" : 				{
					"color" : [ 0.7, 0.7, 0.7, 1.0 ],
					"fontname" : "Arial",
					"fontsize" : 10.435669,
					"id" : "obj-142",
					"maxclass" : "newobj",
					"numinlets" : 1,
					"numoutlets" : 2,
					"outlettype" : [ "", "" ],
					"patching_rect" : [ 279.5, 255.0, 62.0, 18.0 ],
					"save" : [ "#N", "thispatcher", ";", "#Q", "window", "flags", "nogrow", "close", "nozoom", "float", "menu", "minimize", ";", "#Q", "window", "constrain", 50, 50, 32768, 32768, ";", "#Q", "window", "size", 533, 50, 873, 463, ";", "#Q", "window", "title", ";", "#Q", "window", "exec", ";", "#Q", "savewindow", 1, ";", "#Q", "end", ";" ],
					"text" : "thispatcher"
				}

			}
, 			{
				"box" : 				{
					"color" : [ 0.7, 0.7, 0.7, 1.0 ],
					"fontname" : "Arial",
					"fontsize" : 11.595187,
					"id" : "obj-140",
					"maxclass" : "newobj",
					"numinlets" : 1,
					"numoutlets" : 1,
					"outlettype" : [ "" ],
					"patcher" : 					{
						"fileversion" : 1,
						"appversion" : 						{
							"major" : 6,
							"minor" : 1,
							"revision" : 1,
							"architecture" : "x86"
						}
,
						"rect" : [ 130.0, 508.0, 565.0, 385.0 ],
						"bglocked" : 0,
						"openinpresentation" : 0,
						"default_fontsize" : 9.0,
						"default_fontface" : 0,
						"default_fontname" : "Arial",
						"gridonopen" : 0,
						"gridsize" : [ 15.0, 15.0 ],
						"gridsnaponopen" : 0,
						"statusbarvisible" : 2,
						"toolbarvisible" : 1,
						"boxanimatetime" : 200,
						"imprint" : 0,
						"enablehscroll" : 1,
						"enablevscroll" : 1,
						"devicewidth" : 0.0,
						"description" : "",
						"digest" : "",
						"tags" : "",
						"boxes" : [ 							{
								"box" : 								{
									"fontname" : "Arial",
									"fontsize" : 10.435669,
									"id" : "obj-29",
									"linecount" : 3,
									"maxclass" : "message",
									"numinlets" : 2,
									"numoutlets" : 1,
									"outlettype" : [ "" ],
									"patching_rect" : [ 362.0, 225.0, 118.0, 39.0 ],
									"text" : "window flags nogrow, window flags nozoom, window flags float"
								}

							}
, 							{
								"box" : 								{
									"fontname" : "Arial",
									"fontsize" : 10.435669,
									"id" : "obj-1",
									"maxclass" : "message",
									"numinlets" : 2,
									"numoutlets" : 1,
									"outlettype" : [ "" ],
									"patching_rect" : [ 330.0, 300.0, 76.0, 16.0 ],
									"text" : "savewindow 1"
								}

							}
, 							{
								"box" : 								{
									"fontname" : "Arial",
									"fontsize" : 10.435669,
									"id" : "obj-63",
									"maxclass" : "newobj",
									"numinlets" : 2,
									"numoutlets" : 1,
									"outlettype" : [ "" ],
									"patching_rect" : [ 43.0, 203.0, 32.5, 18.0 ],
									"text" : "qlim"
								}

							}
, 							{
								"box" : 								{
									"fontname" : "Arial",
									"fontsize" : 10.435669,
									"id" : "obj-62",
									"maxclass" : "newobj",
									"numinlets" : 2,
									"numoutlets" : 1,
									"outlettype" : [ "" ],
									"patching_rect" : [ 283.0, 203.0, 32.5, 18.0 ],
									"text" : "qlim"
								}

							}
, 							{
								"box" : 								{
									"fontname" : "Arial",
									"fontsize" : 10.435669,
									"id" : "obj-37",
									"maxclass" : "newobj",
									"numinlets" : 1,
									"numoutlets" : 1,
									"outlettype" : [ "" ],
									"patching_rect" : [ 43.0, 280.0, 19.0, 18.0 ],
									"text" : "t l"
								}

							}
, 							{
								"box" : 								{
									"fontname" : "Arial",
									"fontsize" : 10.435669,
									"id" : "obj-39",
									"maxclass" : "message",
									"numinlets" : 2,
									"numoutlets" : 1,
									"outlettype" : [ "" ],
									"patching_rect" : [ 43.0, 225.0, 70.0, 16.0 ],
									"text" : "window exec"
								}

							}
, 							{
								"box" : 								{
									"fontname" : "Arial",
									"fontsize" : 10.435669,
									"id" : "obj-40",
									"maxclass" : "newobj",
									"numinlets" : 1,
									"numoutlets" : 3,
									"outlettype" : [ "bang", "", "bang" ],
									"patching_rect" : [ 43.0, 181.0, 96.0, 18.0 ],
									"text" : "t b l b"
								}

							}
, 							{
								"box" : 								{
									"fontname" : "Arial",
									"fontsize" : 10.435669,
									"id" : "obj-42",
									"linecount" : 3,
									"maxclass" : "message",
									"numinlets" : 2,
									"numoutlets" : 1,
									"outlettype" : [ "" ],
									"patching_rect" : [ 120.0, 225.0, 105.0, 39.0 ],
									"text" : "window flags grow, window flags zoom, window flags nofloat"
								}

							}
, 							{
								"box" : 								{
									"fontname" : "Arial",
									"fontsize" : 10.435669,
									"id" : "obj-43",
									"maxclass" : "newobj",
									"numinlets" : 1,
									"numoutlets" : 1,
									"outlettype" : [ "" ],
									"patching_rect" : [ 43.0, 159.0, 108.0, 18.0 ],
									"text" : "prepend window size"
								}

							}
, 							{
								"box" : 								{
									"fontname" : "Arial",
									"fontsize" : 10.435669,
									"id" : "obj-52",
									"maxclass" : "message",
									"numinlets" : 2,
									"numoutlets" : 1,
									"outlettype" : [ "" ],
									"patching_rect" : [ 43.0, 131.0, 83.0, 16.0 ],
									"text" : "100 50 960 860"
								}

							}
, 							{
								"box" : 								{
									"fontname" : "Arial",
									"fontsize" : 10.435669,
									"id" : "obj-35",
									"maxclass" : "newobj",
									"numinlets" : 1,
									"numoutlets" : 1,
									"outlettype" : [ "" ],
									"patching_rect" : [ 283.0, 280.0, 19.0, 18.0 ],
									"text" : "t l"
								}

							}
, 							{
								"box" : 								{
									"fontname" : "Arial",
									"fontsize" : 10.435669,
									"id" : "obj-31",
									"maxclass" : "message",
									"numinlets" : 2,
									"numoutlets" : 1,
									"outlettype" : [ "" ],
									"patching_rect" : [ 283.0, 225.0, 70.0, 16.0 ],
									"text" : "window exec"
								}

							}
, 							{
								"box" : 								{
									"fontname" : "Arial",
									"fontsize" : 10.435669,
									"id" : "obj-30",
									"maxclass" : "newobj",
									"numinlets" : 1,
									"numoutlets" : 3,
									"outlettype" : [ "bang", "", "bang" ],
									"patching_rect" : [ 283.0, 181.0, 98.0, 18.0 ],
									"text" : "t b l b"
								}

							}
, 							{
								"box" : 								{
									"fontname" : "Arial",
									"fontsize" : 10.435669,
									"id" : "obj-28",
									"maxclass" : "newobj",
									"numinlets" : 1,
									"numoutlets" : 1,
									"outlettype" : [ "" ],
									"patching_rect" : [ 283.0, 159.0, 108.0, 18.0 ],
									"text" : "prepend window size"
								}

							}
, 							{
								"box" : 								{
									"fontname" : "Arial",
									"fontsize" : 10.435669,
									"id" : "obj-16",
									"maxclass" : "message",
									"numinlets" : 2,
									"numoutlets" : 1,
									"outlettype" : [ "" ],
									"patching_rect" : [ 283.0, 131.0, 83.0, 16.0 ],
									"text" : "533 50 873 463"
								}

							}
, 							{
								"box" : 								{
									"fontname" : "Arial",
									"fontsize" : 10.435669,
									"frgb" : 0.0,
									"id" : "obj-11",
									"maxclass" : "comment",
									"numinlets" : 1,
									"numoutlets" : 0,
									"patching_rect" : [ 284.0, 69.0, 31.0, 18.0 ],
									"text" : "view"
								}

							}
, 							{
								"box" : 								{
									"fontname" : "Arial",
									"fontsize" : 10.435669,
									"id" : "obj-10",
									"maxclass" : "message",
									"numinlets" : 2,
									"numoutlets" : 1,
									"outlettype" : [ "" ],
									"patching_rect" : [ 250.0, 90.0, 82.0, 16.0 ],
									"text" : "presentation $1"
								}

							}
, 							{
								"box" : 								{
									"fontname" : "Arial",
									"fontsize" : 10.435669,
									"id" : "obj-9",
									"maxclass" : "newobj",
									"numinlets" : 2,
									"numoutlets" : 1,
									"outlettype" : [ "int" ],
									"patching_rect" : [ 250.0, 69.0, 32.5, 18.0 ],
									"text" : "== 0"
								}

							}
, 							{
								"box" : 								{
									"comment" : "",
									"id" : "obj-44",
									"maxclass" : "inlet",
									"numinlets" : 0,
									"numoutlets" : 1,
									"outlettype" : [ "int" ],
									"patching_rect" : [ 153.0, 17.0, 18.0, 18.0 ],
									"prototypename" : "Arial9"
								}

							}
, 							{
								"box" : 								{
									"id" : "obj-41",
									"maxclass" : "toggle",
									"numinlets" : 1,
									"numoutlets" : 1,
									"outlettype" : [ "int" ],
									"parameter_enable" : 0,
									"patching_rect" : [ 153.0, 45.0, 18.0, 18.0 ],
									"prototypename" : "Arial9"
								}

							}
, 							{
								"box" : 								{
									"fontname" : "Arial",
									"fontsize" : 10.435669,
									"id" : "obj-25",
									"maxclass" : "newobj",
									"numinlets" : 3,
									"numoutlets" : 3,
									"outlettype" : [ "bang", "bang", "" ],
									"patching_rect" : [ 153.0, 74.0, 46.0, 18.0 ],
									"text" : "sel 1 0"
								}

							}
, 							{
								"box" : 								{
									"comment" : "",
									"id" : "obj-21",
									"maxclass" : "outlet",
									"numinlets" : 1,
									"numoutlets" : 0,
									"patching_rect" : [ 250.0, 345.0, 18.0, 18.0 ],
									"prototypename" : "Arial9"
								}

							}
 ],
						"lines" : [ 							{
								"patchline" : 								{
									"destination" : [ "obj-21", 0 ],
									"disabled" : 0,
									"hidden" : 0,
									"source" : [ "obj-1", 0 ]
								}

							}
, 							{
								"patchline" : 								{
									"destination" : [ "obj-21", 0 ],
									"disabled" : 0,
									"hidden" : 0,
									"source" : [ "obj-10", 0 ]
								}

							}
, 							{
								"patchline" : 								{
									"destination" : [ "obj-28", 0 ],
									"disabled" : 0,
									"hidden" : 0,
									"source" : [ "obj-16", 0 ]
								}

							}
, 							{
								"patchline" : 								{
									"destination" : [ "obj-16", 0 ],
									"disabled" : 0,
									"hidden" : 0,
									"source" : [ "obj-25", 1 ]
								}

							}
, 							{
								"patchline" : 								{
									"destination" : [ "obj-52", 0 ],
									"disabled" : 0,
									"hidden" : 0,
									"source" : [ "obj-25", 0 ]
								}

							}
, 							{
								"patchline" : 								{
									"destination" : [ "obj-30", 0 ],
									"disabled" : 0,
									"hidden" : 0,
									"source" : [ "obj-28", 0 ]
								}

							}
, 							{
								"patchline" : 								{
									"destination" : [ "obj-35", 0 ],
									"disabled" : 0,
									"hidden" : 0,
									"source" : [ "obj-29", 0 ]
								}

							}
, 							{
								"patchline" : 								{
									"destination" : [ "obj-29", 0 ],
									"disabled" : 0,
									"hidden" : 0,
									"source" : [ "obj-30", 2 ]
								}

							}
, 							{
								"patchline" : 								{
									"destination" : [ "obj-35", 0 ],
									"disabled" : 0,
									"hidden" : 0,
									"source" : [ "obj-30", 1 ]
								}

							}
, 							{
								"patchline" : 								{
									"destination" : [ "obj-62", 0 ],
									"disabled" : 0,
									"hidden" : 0,
									"source" : [ "obj-30", 0 ]
								}

							}
, 							{
								"patchline" : 								{
									"destination" : [ "obj-35", 0 ],
									"disabled" : 0,
									"hidden" : 0,
									"source" : [ "obj-31", 0 ]
								}

							}
, 							{
								"patchline" : 								{
									"destination" : [ "obj-21", 0 ],
									"disabled" : 0,
									"hidden" : 0,
									"source" : [ "obj-35", 0 ]
								}

							}
, 							{
								"patchline" : 								{
									"destination" : [ "obj-21", 0 ],
									"disabled" : 0,
									"hidden" : 0,
									"source" : [ "obj-37", 0 ]
								}

							}
, 							{
								"patchline" : 								{
									"destination" : [ "obj-37", 0 ],
									"disabled" : 0,
									"hidden" : 0,
									"source" : [ "obj-39", 0 ]
								}

							}
, 							{
								"patchline" : 								{
									"destination" : [ "obj-37", 0 ],
									"disabled" : 0,
									"hidden" : 0,
									"source" : [ "obj-40", 1 ]
								}

							}
, 							{
								"patchline" : 								{
									"destination" : [ "obj-42", 0 ],
									"disabled" : 0,
									"hidden" : 0,
									"source" : [ "obj-40", 2 ]
								}

							}
, 							{
								"patchline" : 								{
									"destination" : [ "obj-63", 0 ],
									"disabled" : 0,
									"hidden" : 0,
									"source" : [ "obj-40", 0 ]
								}

							}
, 							{
								"patchline" : 								{
									"destination" : [ "obj-25", 0 ],
									"disabled" : 0,
									"hidden" : 0,
									"source" : [ "obj-41", 0 ]
								}

							}
, 							{
								"patchline" : 								{
									"destination" : [ "obj-9", 0 ],
									"disabled" : 0,
									"hidden" : 0,
									"source" : [ "obj-41", 0 ]
								}

							}
, 							{
								"patchline" : 								{
									"destination" : [ "obj-37", 0 ],
									"disabled" : 0,
									"hidden" : 0,
									"source" : [ "obj-42", 0 ]
								}

							}
, 							{
								"patchline" : 								{
									"destination" : [ "obj-40", 0 ],
									"disabled" : 0,
									"hidden" : 0,
									"source" : [ "obj-43", 0 ]
								}

							}
, 							{
								"patchline" : 								{
									"destination" : [ "obj-41", 0 ],
									"disabled" : 0,
									"hidden" : 0,
									"source" : [ "obj-44", 0 ]
								}

							}
, 							{
								"patchline" : 								{
									"destination" : [ "obj-43", 0 ],
									"disabled" : 0,
									"hidden" : 0,
									"source" : [ "obj-52", 0 ]
								}

							}
, 							{
								"patchline" : 								{
									"destination" : [ "obj-31", 0 ],
									"disabled" : 0,
									"hidden" : 0,
									"source" : [ "obj-62", 0 ]
								}

							}
, 							{
								"patchline" : 								{
									"destination" : [ "obj-39", 0 ],
									"disabled" : 0,
									"hidden" : 0,
									"source" : [ "obj-63", 0 ]
								}

							}
, 							{
								"patchline" : 								{
									"destination" : [ "obj-10", 0 ],
									"disabled" : 0,
									"hidden" : 0,
									"source" : [ "obj-9", 0 ]
								}

							}
 ]
					}
,
					"patching_rect" : [ 279.5, 231.0, 43.0, 19.0 ],
					"saved_object_attributes" : 					{
						"default_fontface" : 0,
						"default_fontname" : "Arial",
						"default_fontsize" : 9.0,
						"description" : "",
						"digest" : "",
						"fontface" : 0,
						"fontname" : "Arial",
						"fontsize" : 9.0,
						"globalpatchername" : "",
						"tags" : ""
					}
,
					"text" : "p view"
				}

			}
, 			{
				"box" : 				{
					"fontname" : "Arial",
					"fontsize" : 12.0,
					"id" : "obj-43",
					"maxclass" : "message",
					"numinlets" : 2,
					"numoutlets" : 1,
					"outlettype" : [ "" ],
					"patching_rect" : [ 531.5, 206.5, 53.0, 18.0 ],
					"text" : "set 1 $1"
				}

			}
, 			{
				"box" : 				{
					"activebgcolor" : [ 0.188235, 0.188235, 0.188235, 1.0 ],
					"activebgoncolor" : [ 0.188235, 0.188235, 0.188235, 1.0 ],
					"activetextcolor" : [ 0.086275, 0.086275, 0.086275, 1.0 ],
					"activetextoncolor" : [ 0.745098, 0.913725, 1.0, 1.0 ],
					"bgcolor" : [ 0.188235, 0.188235, 0.188235, 1.0 ],
					"bgoncolor" : [ 0.188235, 0.188235, 0.188235, 1.0 ],
					"bordercolor" : [ 0.188235, 0.188235, 0.188235, 1.0 ],
					"focusbordercolor" : [ 0.188235, 0.188235, 0.188235, 1.0 ],
					"id" : "obj-44",
					"ignoreclick" : 1,
					"maxclass" : "live.text",
					"numinlets" : 1,
					"numoutlets" : 2,
					"outlettype" : [ "", "" ],
					"parameter_enable" : 1,
					"patching_rect" : [ 411.5, 227.5, 120.0, 20.0 ],
					"presentation" : 1,
					"presentation_rect" : [ 10.0, 120.0, 120.0, 20.0 ],
					"saved_attribute_attributes" : 					{
						"valueof" : 						{
							"parameter_enum" : [ "val1", "val2" ],
							"parameter_mmax" : 1.0,
							"parameter_initial" : [ 1 ],
							"parameter_type" : 2,
							"parameter_initial_enable" : 1,
							"parameter_shortname" : "live.text",
							"parameter_longname" : "live.text[5]"
						}

					}
,
					"text" : "distanceWeight",
					"textcolor" : [ 0.745098, 0.913725, 1.0, 1.0 ],
					"texton" : "grain interval (ms)",
					"varname" : "live.text[8]"
				}

			}
, 			{
				"box" : 				{
					"activebgcolor" : [ 0.188235, 0.188235, 0.188235, 1.0 ],
					"bordercolor" : [ 0.188235, 0.188235, 0.188235, 1.0 ],
					"focusbordercolor" : [ 0.188235, 0.188235, 0.188235, 1.0 ],
					"id" : "obj-45",
					"maxclass" : "live.numbox",
					"numinlets" : 1,
					"numoutlets" : 2,
					"outlettype" : [ "", "float" ],
					"parameter_enable" : 1,
					"patching_rect" : [ 691.5, 230.0, 40.0, 15.0 ],
					"presentation" : 1,
					"presentation_rect" : [ 290.0, 122.5, 40.0, 15.0 ],
					"saved_attribute_attributes" : 					{
						"valueof" : 						{
							"parameter_units" : "째",
							"parameter_unitstyle" : 0,
							"parameter_mmax" : 1000.0,
							"parameter_mmin" : 10.0,
							"parameter_type" : 0,
							"parameter_shortname" : "live.numbox",
							"parameter_longname" : "live.numbox[11]"
						}

					}
,
					"textcolor" : [ 0.745098, 0.913725, 1.0, 1.0 ],
					"varname" : "live.numbox[5]"
				}

			}
, 			{
				"box" : 				{
					"bgcolor" : [ 0.086275, 0.086275, 0.086275, 1.0 ],
					"bordercolor" : [ 0.188235, 0.188235, 0.188235, 1.0 ],
					"contdata" : 1,
					"id" : "obj-46",
					"maxclass" : "multislider",
					"numinlets" : 1,
					"numoutlets" : 2,
					"orientation" : 0,
					"outlettype" : [ "", "" ],
					"parameter_enable" : 0,
					"patching_rect" : [ 531.5, 232.5, 160.0, 10.0 ],
					"presentation" : 1,
					"presentation_rect" : [ 130.0, 125.0, 160.0, 10.0 ],
					"setminmax" : [ 10.0, 1000.0 ],
					"setstyle" : 1,
					"settype" : 0,
					"slidercolor" : [ 0.745098, 0.913725, 1.0, 1.0 ]
				}

			}
, 			{
				"box" : 				{
					"bgcolor" : [ 0.188235, 0.188235, 0.188235, 1.0 ],
					"bordercolor" : [ 0.188235, 0.188235, 0.188235, 1.0 ],
					"id" : "obj-6",
					"maxclass" : "panel",
					"numinlets" : 1,
					"numoutlets" : 0,
					"patching_rect" : [ 411.5, 227.5, 320.0, 20.0 ],
					"presentation" : 1,
					"presentation_rect" : [ 10.0, 120.0, 320.0, 20.0 ],
					"rounded" : 0
				}

			}
, 			{
				"box" : 				{
					"fontname" : "Arial",
					"fontsize" : 12.0,
					"id" : "obj-3",
					"maxclass" : "message",
					"numinlets" : 2,
					"numoutlets" : 1,
					"outlettype" : [ "" ],
					"patching_rect" : [ 191.0, 49.5, 32.5, 18.0 ],
					"text" : "1"
				}

			}
, 			{
				"box" : 				{
					"comment" : "(signal) audio out",
					"id" : "obj-41",
					"maxclass" : "outlet",
					"numinlets" : 1,
					"numoutlets" : 0,
					"patching_rect" : [ 609.5, 153.5, 25.0, 25.0 ]
				}

			}
, 			{
				"box" : 				{
					"comment" : "(signal) audio out",
					"id" : "obj-38",
					"maxclass" : "outlet",
					"numinlets" : 1,
					"numoutlets" : 0,
					"patching_rect" : [ 579.5, 153.5, 25.0, 25.0 ]
				}

			}
, 			{
				"box" : 				{
					"comment" : "(signal) audio out",
					"id" : "obj-37",
					"maxclass" : "outlet",
					"numinlets" : 1,
					"numoutlets" : 0,
					"patching_rect" : [ 549.5, 153.5, 25.0, 25.0 ]
				}

			}
, 			{
				"box" : 				{
					"comment" : "(signal) audio out",
					"id" : "obj-28",
					"maxclass" : "outlet",
					"numinlets" : 1,
					"numoutlets" : 0,
					"patching_rect" : [ 519.5, 153.5, 25.0, 25.0 ]
				}

			}
, 			{
				"box" : 				{
					"comment" : "(signal) audio out",
					"id" : "obj-27",
					"maxclass" : "outlet",
					"numinlets" : 1,
					"numoutlets" : 0,
					"patching_rect" : [ 489.5, 153.5, 25.0, 25.0 ]
				}

			}
, 			{
				"box" : 				{
					"comment" : "(signal) audio out",
					"id" : "obj-26",
					"maxclass" : "outlet",
					"numinlets" : 1,
					"numoutlets" : 0,
					"patching_rect" : [ 459.5, 153.5, 25.0, 25.0 ]
				}

			}
, 			{
				"box" : 				{
					"comment" : "(signal) audio out",
					"id" : "obj-24",
					"maxclass" : "outlet",
					"numinlets" : 1,
					"numoutlets" : 0,
					"patching_rect" : [ 429.5, 153.5, 25.0, 25.0 ]
				}

			}
, 			{
				"box" : 				{
					"comment" : "(signal) audio out",
					"id" : "obj-22",
					"maxclass" : "outlet",
					"numinlets" : 1,
					"numoutlets" : 0,
					"patching_rect" : [ 399.5, 153.5, 25.0, 25.0 ]
				}

			}
, 			{
				"box" : 				{
					"comment" : "(signal) audio out",
					"id" : "obj-21",
					"maxclass" : "outlet",
					"numinlets" : 1,
					"numoutlets" : 0,
					"patching_rect" : [ 369.5, 153.5, 25.0, 25.0 ]
				}

			}
, 			{
				"box" : 				{
					"comment" : "(signal) audio out",
					"id" : "obj-17",
					"maxclass" : "outlet",
					"numinlets" : 1,
					"numoutlets" : 0,
					"patching_rect" : [ 339.5, 153.5, 25.0, 25.0 ]
				}

			}
, 			{
				"box" : 				{
					"comment" : "(signal) audio out",
					"id" : "obj-16",
					"maxclass" : "outlet",
					"numinlets" : 1,
					"numoutlets" : 0,
					"patching_rect" : [ 309.5, 153.5, 25.0, 25.0 ]
				}

			}
, 			{
				"box" : 				{
					"comment" : "(signal) audio out",
					"id" : "obj-15",
					"maxclass" : "outlet",
					"numinlets" : 1,
					"numoutlets" : 0,
					"patching_rect" : [ 279.5, 153.5, 25.0, 25.0 ]
				}

			}
, 			{
				"box" : 				{
					"comment" : "(signal) audio out",
					"id" : "obj-14",
					"maxclass" : "outlet",
					"numinlets" : 1,
					"numoutlets" : 0,
					"patching_rect" : [ 249.5, 153.5, 25.0, 25.0 ]
				}

			}
, 			{
				"box" : 				{
					"comment" : "(signal) audio out",
					"id" : "obj-13",
					"maxclass" : "outlet",
					"numinlets" : 1,
					"numoutlets" : 0,
					"patching_rect" : [ 219.5, 153.5, 25.0, 25.0 ]
				}

			}
, 			{
				"box" : 				{
					"comment" : "(signal) audio out",
					"id" : "obj-12",
					"maxclass" : "outlet",
					"numinlets" : 1,
					"numoutlets" : 0,
					"patching_rect" : [ 189.5, 153.5, 25.0, 25.0 ]
				}

			}
, 			{
				"box" : 				{
					"comment" : "(signal) audio out",
					"id" : "obj-11",
					"maxclass" : "outlet",
					"numinlets" : 1,
					"numoutlets" : 0,
					"patching_rect" : [ 159.5, 153.5, 25.0, 25.0 ]
				}

			}
, 			{
				"box" : 				{
					"comment" : "(0/1) mute all",
					"id" : "obj-10",
					"maxclass" : "inlet",
					"numinlets" : 0,
					"numoutlets" : 1,
					"outlettype" : [ "" ],
					"patching_rect" : [ 159.5, 15.0, 25.0, 25.0 ]
				}

			}
, 			{
				"box" : 				{
					"fontname" : "Arial",
					"fontsize" : 12.0,
					"id" : "obj-23",
					"maxclass" : "message",
					"numinlets" : 2,
					"numoutlets" : 1,
					"outlettype" : [ "" ],
					"patching_rect" : [ 159.5, 77.5, 64.0, 18.0 ],
					"text" : "mute 0 $1"
				}

			}
, 			{
				"box" : 				{
					"fontname" : "Arial",
					"fontsize" : 12.0,
					"id" : "obj-18",
					"maxclass" : "newobj",
					"numinlets" : 2,
					"numoutlets" : 16,
					"outlettype" : [ "signal", "signal", "signal", "signal", "signal", "signal", "signal", "signal", "signal", "signal", "signal", "signal", "signal", "signal", "signal", "signal" ],
					"patching_rect" : [ 159.5, 108.5, 469.0, 20.0 ],
					"text" : "poly~ engine.granular 1"
				}

			}
, 			{
				"box" : 				{
					"fontname" : "Arial",
					"fontsize" : 12.0,
					"id" : "obj-40",
					"maxclass" : "newobj",
					"numinlets" : 1,
					"numoutlets" : 1,
					"outlettype" : [ "bang" ],
					"patching_rect" : [ 75.0, 15.0, 60.0, 20.0 ],
					"text" : "loadbang"
				}

			}
, 			{
				"box" : 				{
					"fontname" : "Arial",
					"fontsize" : 12.0,
					"id" : "obj-36",
					"maxclass" : "newobj",
					"numinlets" : 1,
					"numoutlets" : 2,
					"outlettype" : [ "float", "bang" ],
					"patching_rect" : [ 330.0, 720.5, 91.0, 20.0 ],
					"text" : "buffer~ window"
				}

			}
 ],
		"lines" : [ 			{
				"patchline" : 				{
					"destination" : [ "obj-20", 0 ],
					"disabled" : 0,
					"hidden" : 0,
					"source" : [ "obj-1", 0 ]
				}

			}
, 			{
				"patchline" : 				{
					"destination" : [ "obj-23", 0 ],
					"disabled" : 0,
					"hidden" : 0,
					"source" : [ "obj-10", 0 ]
				}

			}
, 			{
				"patchline" : 				{
					"destination" : [ "obj-98", 0 ],
					"disabled" : 0,
					"hidden" : 0,
					"source" : [ "obj-114", 0 ]
				}

			}
, 			{
				"patchline" : 				{
					"destination" : [ "obj-61", 0 ],
					"disabled" : 0,
					"hidden" : 0,
					"midpoints" : [ 144.5, 295.0, 84.5, 295.0 ],
					"source" : [ "obj-117", 1 ]
				}

			}
, 			{
				"patchline" : 				{
					"destination" : [ "obj-61", 0 ],
					"disabled" : 0,
					"hidden" : 0,
					"source" : [ "obj-117", 0 ]
				}

			}
, 			{
				"patchline" : 				{
					"color" : [ 0.0, 0.0, 0.0, 1.0 ],
					"destination" : [ "obj-142", 0 ],
					"disabled" : 0,
					"hidden" : 0,
					"source" : [ "obj-140", 0 ]
				}

			}
, 			{
				"patchline" : 				{
					"destination" : [ "obj-11", 0 ],
					"disabled" : 0,
					"hidden" : 0,
					"source" : [ "obj-18", 0 ]
				}

			}
, 			{
				"patchline" : 				{
					"destination" : [ "obj-12", 0 ],
					"disabled" : 0,
					"hidden" : 0,
					"source" : [ "obj-18", 1 ]
				}

			}
, 			{
				"patchline" : 				{
					"destination" : [ "obj-13", 0 ],
					"disabled" : 0,
					"hidden" : 0,
					"source" : [ "obj-18", 2 ]
				}

			}
, 			{
				"patchline" : 				{
					"destination" : [ "obj-14", 0 ],
					"disabled" : 0,
					"hidden" : 0,
					"source" : [ "obj-18", 3 ]
				}

			}
, 			{
				"patchline" : 				{
					"destination" : [ "obj-15", 0 ],
					"disabled" : 0,
					"hidden" : 0,
					"source" : [ "obj-18", 4 ]
				}

			}
, 			{
				"patchline" : 				{
					"destination" : [ "obj-16", 0 ],
					"disabled" : 0,
					"hidden" : 0,
					"source" : [ "obj-18", 5 ]
				}

			}
, 			{
				"patchline" : 				{
					"destination" : [ "obj-17", 0 ],
					"disabled" : 0,
					"hidden" : 0,
					"source" : [ "obj-18", 6 ]
				}

			}
, 			{
				"patchline" : 				{
					"destination" : [ "obj-21", 0 ],
					"disabled" : 0,
					"hidden" : 0,
					"source" : [ "obj-18", 7 ]
				}

			}
, 			{
				"patchline" : 				{
					"destination" : [ "obj-22", 0 ],
					"disabled" : 0,
					"hidden" : 0,
					"source" : [ "obj-18", 8 ]
				}

			}
, 			{
				"patchline" : 				{
					"destination" : [ "obj-24", 0 ],
					"disabled" : 0,
					"hidden" : 0,
					"source" : [ "obj-18", 9 ]
				}

			}
, 			{
				"patchline" : 				{
					"destination" : [ "obj-26", 0 ],
					"disabled" : 0,
					"hidden" : 0,
					"source" : [ "obj-18", 10 ]
				}

			}
, 			{
				"patchline" : 				{
					"destination" : [ "obj-27", 0 ],
					"disabled" : 0,
					"hidden" : 0,
					"source" : [ "obj-18", 11 ]
				}

			}
, 			{
				"patchline" : 				{
					"destination" : [ "obj-28", 0 ],
					"disabled" : 0,
					"hidden" : 0,
					"source" : [ "obj-18", 12 ]
				}

			}
, 			{
				"patchline" : 				{
					"destination" : [ "obj-37", 0 ],
					"disabled" : 0,
					"hidden" : 0,
					"source" : [ "obj-18", 13 ]
				}

			}
, 			{
				"patchline" : 				{
					"destination" : [ "obj-38", 0 ],
					"disabled" : 0,
					"hidden" : 0,
					"source" : [ "obj-18", 14 ]
				}

			}
, 			{
				"patchline" : 				{
					"destination" : [ "obj-41", 0 ],
					"disabled" : 0,
					"hidden" : 0,
					"source" : [ "obj-18", 15 ]
				}

			}
, 			{
				"patchline" : 				{
					"destination" : [ "obj-1", 0 ],
					"disabled" : 0,
					"hidden" : 0,
					"midpoints" : [ 701.0, 328.5, 737.5, 328.5, 737.5, 275.5, 541.0, 275.5 ],
					"source" : [ "obj-19", 0 ]
				}

			}
, 			{
				"patchline" : 				{
					"destination" : [ "obj-79", 0 ],
					"disabled" : 0,
					"hidden" : 0,
					"source" : [ "obj-19", 0 ]
				}

			}
, 			{
				"patchline" : 				{
					"destination" : [ "obj-56", 0 ],
					"disabled" : 0,
					"hidden" : 0,
					"source" : [ "obj-2", 0 ]
				}

			}
, 			{
				"patchline" : 				{
					"destination" : [ "obj-19", 0 ],
					"disabled" : 0,
					"hidden" : 0,
					"source" : [ "obj-20", 0 ]
				}

			}
, 			{
				"patchline" : 				{
					"destination" : [ "obj-75", 1 ],
					"disabled" : 0,
					"hidden" : 0,
					"midpoints" : [ 541.0, 332.0, 623.0, 332.0 ],
					"source" : [ "obj-20", 0 ]
				}

			}
, 			{
				"patchline" : 				{
					"destination" : [ "obj-18", 0 ],
					"disabled" : 0,
					"hidden" : 0,
					"midpoints" : [ 169.0, 103.5, 169.0, 103.5 ],
					"source" : [ "obj-23", 0 ]
				}

			}
, 			{
				"patchline" : 				{
					"destination" : [ "obj-67", 1 ],
					"disabled" : 0,
					"hidden" : 0,
					"source" : [ "obj-29", 3 ]
				}

			}
, 			{
				"patchline" : 				{
					"destination" : [ "obj-68", 0 ],
					"disabled" : 0,
					"hidden" : 0,
					"source" : [ "obj-29", 2 ]
				}

			}
, 			{
				"patchline" : 				{
					"destination" : [ "obj-23", 0 ],
					"disabled" : 0,
					"hidden" : 0,
					"source" : [ "obj-3", 0 ]
				}

			}
, 			{
				"patchline" : 				{
					"destination" : [ "obj-70", 0 ],
					"disabled" : 0,
					"hidden" : 0,
					"source" : [ "obj-30", 0 ]
				}

			}
, 			{
				"patchline" : 				{
					"destination" : [ "obj-7", 0 ],
					"disabled" : 0,
					"hidden" : 0,
					"midpoints" : [ 684.5, 715.5, 491.5, 715.5 ],
					"source" : [ "obj-31", 0 ]
				}

			}
, 			{
				"patchline" : 				{
					"destination" : [ "obj-35", 0 ],
					"disabled" : 0,
					"hidden" : 0,
					"source" : [ "obj-32", 0 ]
				}

			}
, 			{
				"patchline" : 				{
					"destination" : [ "obj-32", 0 ],
					"disabled" : 0,
					"hidden" : 0,
					"midpoints" : [ 701.0, 418.5, 737.5, 418.5, 737.5, 365.5, 541.0, 365.5 ],
					"source" : [ "obj-34", 0 ]
				}

			}
, 			{
				"patchline" : 				{
					"destination" : [ "obj-80", 0 ],
					"disabled" : 0,
					"hidden" : 0,
					"source" : [ "obj-34", 0 ]
				}

			}
, 			{
				"patchline" : 				{
					"destination" : [ "obj-34", 0 ],
					"disabled" : 0,
					"hidden" : 0,
					"source" : [ "obj-35", 0 ]
				}

			}
, 			{
				"patchline" : 				{
					"destination" : [ "obj-75", 0 ],
					"disabled" : 0,
					"hidden" : 0,
					"source" : [ "obj-35", 0 ]
				}

			}
, 			{
				"patchline" : 				{
					"destination" : [ "obj-77", 0 ],
					"disabled" : 0,
					"hidden" : 0,
					"source" : [ "obj-4", 0 ]
				}

			}
, 			{
				"patchline" : 				{
					"destination" : [ "obj-114", 0 ],
					"disabled" : 0,
					"hidden" : 0,
					"midpoints" : [ 84.5, 43.5, 84.5, 43.5 ],
					"source" : [ "obj-40", 0 ]
				}

			}
, 			{
				"patchline" : 				{
					"destination" : [ "obj-3", 0 ],
					"disabled" : 0,
					"hidden" : 0,
					"midpoints" : [ 84.5, 43.5, 200.5, 43.5 ],
					"source" : [ "obj-40", 0 ]
				}

			}
, 			{
				"patchline" : 				{
					"destination" : [ "obj-8", 0 ],
					"disabled" : 0,
					"hidden" : 0,
					"midpoints" : [ 84.5, 44.0, 6.0, 44.0, 6.0, 658.0, 339.5, 658.0 ],
					"source" : [ "obj-40", 0 ]
				}

			}
, 			{
				"patchline" : 				{
					"destination" : [ "obj-19", 0 ],
					"disabled" : 0,
					"hidden" : 0,
					"source" : [ "obj-42", 1 ]
				}

			}
, 			{
				"patchline" : 				{
					"destination" : [ "obj-46", 0 ],
					"disabled" : 0,
					"hidden" : 0,
					"source" : [ "obj-43", 0 ]
				}

			}
, 			{
				"patchline" : 				{
					"destination" : [ "obj-43", 0 ],
					"disabled" : 0,
					"hidden" : 0,
					"midpoints" : [ 701.0, 253.5, 737.5, 253.5, 737.5, 200.5, 541.0, 200.5 ],
					"source" : [ "obj-45", 0 ]
				}

			}
, 			{
				"patchline" : 				{
					"destination" : [ "obj-83", 0 ],
					"disabled" : 0,
					"hidden" : 0,
					"source" : [ "obj-45", 0 ]
				}

			}
, 			{
				"patchline" : 				{
					"destination" : [ "obj-45", 0 ],
					"disabled" : 0,
					"hidden" : 0,
					"source" : [ "obj-46", 0 ]
				}

			}
, 			{
				"patchline" : 				{
					"destination" : [ "obj-31", 0 ],
					"disabled" : 0,
					"hidden" : 0,
					"source" : [ "obj-47", 0 ]
				}

			}
, 			{
				"patchline" : 				{
					"destination" : [ "obj-34", 0 ],
					"disabled" : 0,
					"hidden" : 0,
					"source" : [ "obj-48", 1 ]
				}

			}
, 			{
				"patchline" : 				{
					"destination" : [ "obj-29", 2 ],
					"disabled" : 0,
					"hidden" : 0,
					"midpoints" : [ 562.5, 787.5, 63.75, 787.5, 63.75, 487.5, 235.0, 487.5 ],
					"source" : [ "obj-49", 0 ]
				}

			}
, 			{
				"patchline" : 				{
					"destination" : [ "obj-2", 0 ],
					"disabled" : 0,
					"hidden" : 0,
					"midpoints" : [ 201.5, 300.0, 105.5, 300.0 ],
					"source" : [ "obj-5", 1 ]
				}

			}
, 			{
				"patchline" : 				{
					"destination" : [ "obj-53", 0 ],
					"disabled" : 0,
					"hidden" : 0,
					"source" : [ "obj-50", 0 ]
				}

			}
, 			{
				"patchline" : 				{
					"destination" : [ "obj-50", 0 ],
					"disabled" : 0,
					"hidden" : 0,
					"midpoints" : [ 701.0, 514.5, 737.5, 514.5, 737.5, 461.5, 541.0, 461.5 ],
					"source" : [ "obj-52", 0 ]
				}

			}
, 			{
				"patchline" : 				{
					"destination" : [ "obj-82", 0 ],
					"disabled" : 0,
					"hidden" : 0,
					"source" : [ "obj-52", 0 ]
				}

			}
, 			{
				"patchline" : 				{
					"destination" : [ "obj-52", 0 ],
					"disabled" : 0,
					"hidden" : 0,
					"source" : [ "obj-53", 0 ]
				}

			}
, 			{
				"patchline" : 				{
					"destination" : [ "obj-59", 0 ],
					"disabled" : 0,
					"hidden" : 0,
					"source" : [ "obj-55", 0 ]
				}

			}
, 			{
				"patchline" : 				{
					"destination" : [ "obj-18", 0 ],
					"disabled" : 0,
					"hidden" : 0,
					"source" : [ "obj-56", 0 ]
				}

			}
, 			{
				"patchline" : 				{
					"destination" : [ "obj-55", 0 ],
					"disabled" : 0,
					"hidden" : 0,
					"midpoints" : [ 701.0, 588.5, 737.5, 588.5, 737.5, 535.5, 541.0, 535.5 ],
					"source" : [ "obj-58", 0 ]
				}

			}
, 			{
				"patchline" : 				{
					"destination" : [ "obj-81", 0 ],
					"disabled" : 0,
					"hidden" : 0,
					"source" : [ "obj-58", 0 ]
				}

			}
, 			{
				"patchline" : 				{
					"destination" : [ "obj-58", 0 ],
					"disabled" : 0,
					"hidden" : 0,
					"source" : [ "obj-59", 0 ]
				}

			}
, 			{
				"patchline" : 				{
					"destination" : [ "obj-52", 0 ],
					"disabled" : 0,
					"hidden" : 0,
					"source" : [ "obj-62", 1 ]
				}

			}
, 			{
				"patchline" : 				{
					"destination" : [ "obj-36", 0 ],
					"disabled" : 0,
					"hidden" : 0,
					"source" : [ "obj-63", 0 ]
				}

			}
, 			{
				"patchline" : 				{
					"destination" : [ "obj-58", 0 ],
					"disabled" : 0,
					"hidden" : 0,
					"source" : [ "obj-66", 1 ]
				}

			}
, 			{
				"patchline" : 				{
					"destination" : [ "obj-69", 0 ],
					"disabled" : 0,
					"hidden" : 0,
					"source" : [ "obj-67", 0 ]
				}

			}
, 			{
				"patchline" : 				{
					"destination" : [ "obj-67", 0 ],
					"disabled" : 0,
					"hidden" : 0,
					"source" : [ "obj-68", 0 ]
				}

			}
, 			{
				"patchline" : 				{
					"destination" : [ "obj-73", 1 ],
					"disabled" : 0,
					"hidden" : 0,
					"source" : [ "obj-68", 1 ]
				}

			}
, 			{
				"patchline" : 				{
					"destination" : [ "obj-72", 0 ],
					"disabled" : 0,
					"hidden" : 0,
					"source" : [ "obj-69", 0 ]
				}

			}
, 			{
				"patchline" : 				{
					"destination" : [ "obj-49", 0 ],
					"disabled" : 0,
					"hidden" : 0,
					"source" : [ "obj-7", 1 ]
				}

			}
, 			{
				"patchline" : 				{
					"destination" : [ "obj-47", 0 ],
					"disabled" : 0,
					"hidden" : 0,
					"source" : [ "obj-70", 0 ]
				}

			}
, 			{
				"patchline" : 				{
					"destination" : [ "obj-18", 1 ],
					"disabled" : 0,
					"hidden" : 0,
					"midpoints" : [ 263.0, 749.5, 827.0, 749.5, 827.0, 98.5, 619.0, 98.5 ],
					"source" : [ "obj-71", 0 ]
				}

			}
, 			{
				"patchline" : 				{
					"destination" : [ "obj-71", 0 ],
					"disabled" : 0,
					"hidden" : 0,
					"midpoints" : [ 204.899994, 715.5, 263.0, 715.5 ],
					"source" : [ "obj-72", 0 ]
				}

			}
, 			{
				"patchline" : 				{
					"destination" : [ "obj-73", 0 ],
					"disabled" : 0,
					"hidden" : 0,
					"source" : [ "obj-72", 1 ]
				}

			}
, 			{
				"patchline" : 				{
					"destination" : [ "obj-76", 0 ],
					"disabled" : 0,
					"hidden" : 0,
					"source" : [ "obj-73", 0 ]
				}

			}
, 			{
				"patchline" : 				{
					"destination" : [ "obj-7", 0 ],
					"disabled" : 0,
					"hidden" : 0,
					"source" : [ "obj-74", 0 ]
				}

			}
, 			{
				"patchline" : 				{
					"destination" : [ "obj-20", 0 ],
					"disabled" : 0,
					"hidden" : 0,
					"midpoints" : [ 541.0, 448.5, 402.0, 448.5, 402.0, 299.5, 541.0, 299.5 ],
					"source" : [ "obj-75", 0 ]
				}

			}
, 			{
				"patchline" : 				{
					"destination" : [ "obj-18", 1 ],
					"disabled" : 0,
					"hidden" : 0,
					"midpoints" : [ 220.0, 779.5, 827.5, 779.5, 827.5, 98.5, 619.0, 98.5 ],
					"source" : [ "obj-76", 0 ]
				}

			}
, 			{
				"patchline" : 				{
					"destination" : [ "obj-18", 1 ],
					"disabled" : 0,
					"hidden" : 0,
					"midpoints" : [ 421.0, 359.5, 827.0, 359.5, 827.0, 98.5, 619.0, 98.5 ],
					"source" : [ "obj-77", 0 ]
				}

			}
, 			{
				"patchline" : 				{
					"destination" : [ "obj-18", 1 ],
					"disabled" : 0,
					"hidden" : 0,
					"midpoints" : [ 754.0, 260.5, 827.5, 260.5, 827.5, 98.5, 619.0, 98.5 ],
					"source" : [ "obj-78", 0 ]
				}

			}
, 			{
				"patchline" : 				{
					"destination" : [ "obj-18", 1 ],
					"disabled" : 0,
					"hidden" : 0,
					"midpoints" : [ 754.0, 329.5, 827.5, 329.5, 827.5, 98.5, 619.0, 98.5 ],
					"source" : [ "obj-79", 0 ]
				}

			}
, 			{
				"patchline" : 				{
					"destination" : [ "obj-63", 0 ],
					"disabled" : 0,
					"hidden" : 0,
					"source" : [ "obj-8", 0 ]
				}

			}
, 			{
				"patchline" : 				{
					"destination" : [ "obj-74", 0 ],
					"disabled" : 0,
					"hidden" : 0,
					"midpoints" : [ 339.5, 687.5, 491.5, 687.5 ],
					"source" : [ "obj-8", 0 ]
				}

			}
, 			{
				"patchline" : 				{
					"destination" : [ "obj-18", 1 ],
					"disabled" : 0,
					"hidden" : 0,
					"midpoints" : [ 754.0, 417.5, 827.5, 417.5, 827.5, 98.5, 619.0, 98.5 ],
					"source" : [ "obj-80", 0 ]
				}

			}
, 			{
				"patchline" : 				{
					"destination" : [ "obj-18", 1 ],
					"disabled" : 0,
					"hidden" : 0,
					"midpoints" : [ 754.0, 585.5, 827.5, 585.5, 827.5, 98.5, 619.0, 98.5 ],
					"source" : [ "obj-81", 0 ]
				}

			}
, 			{
				"patchline" : 				{
					"destination" : [ "obj-18", 1 ],
					"disabled" : 0,
					"hidden" : 0,
					"midpoints" : [ 754.0, 511.5, 827.5, 511.5, 827.5, 98.5, 619.0, 98.5 ],
					"source" : [ "obj-82", 0 ]
				}

			}
, 			{
				"patchline" : 				{
					"destination" : [ "obj-78", 0 ],
					"disabled" : 0,
					"hidden" : 0,
					"source" : [ "obj-83", 0 ]
				}

			}
, 			{
				"patchline" : 				{
					"color" : [ 0.0, 0.0, 0.0, 1.0 ],
					"destination" : [ "obj-140", 0 ],
					"disabled" : 0,
					"hidden" : 1,
					"source" : [ "obj-84", 0 ]
				}

			}
, 			{
				"patchline" : 				{
					"destination" : [ "obj-45", 0 ],
					"disabled" : 0,
					"hidden" : 0,
					"source" : [ "obj-9", 1 ]
				}

			}
, 			{
				"patchline" : 				{
					"destination" : [ "obj-117", 0 ],
					"disabled" : 0,
					"hidden" : 0,
					"source" : [ "obj-98", 0 ]
				}

			}
 ],
		"parameters" : 		{
			"obj-58" : [ "live.numbox[4]", "live.numbox", 0 ],
			"obj-44" : [ "live.text[5]", "live.text", 0 ],
			"obj-51" : [ "live.text[6]", "live.text", 0 ],
			"obj-45" : [ "live.numbox[11]", "live.numbox", 0 ],
			"obj-33" : [ "live.text[2]", "live.text", 0 ],
			"obj-34" : [ "live.numbox[2]", "live.numbox", 0 ],
			"obj-19" : [ "live.numbox[1]", "live.numbox", 0 ],
			"obj-57" : [ "live.text[7]", "live.text", 0 ],
			"obj-4" : [ "live.text[1]", "live.text", 0 ],
			"obj-52" : [ "live.numbox[3]", "live.numbox", 0 ]
		}
,
		"dependency_cache" : [ 			{
				"name" : "engine.granular.maxpat",
				"bootpath" : "/Users/ruipenha/Documents/Max/Projects/spatium.ambi/patchers",
				"patcherrelativepath" : ".",
				"type" : "JSON",
				"implicit" : 1
			}
, 			{
				"name" : "grain.pulse~.mxo",
				"type" : "iLaX"
			}
, 			{
				"name" : "train.shift~.mxo",
				"type" : "iLaX"
			}
 ]
	}

}
